<?xml version="1.0" standalone="no"?>
<!DOCTYPE svg PUBLIC "-//W3C//DTD SVG 1.1//EN" "http://www.w3.org/Graphics/SVG/1.1/DTD/svg11.dtd" >
<svg xmlns="http://www.w3.org/2000/svg">
<metadata></metadata>
<defs>
<font id="apple_garamondregular" horiz-adv-x="1024" >
<font-face units-per-em="2048" ascent="1638" descent="-410" />
<missing-glyph horiz-adv-x="448" />
<glyph horiz-adv-x="2048" />
<glyph horiz-adv-x="2048" />
<glyph unicode="&#xd;" />
<glyph unicode=" "  horiz-adv-x="448" />
<glyph unicode="&#x09;" horiz-adv-x="448" />
<glyph unicode="&#xa0;" horiz-adv-x="448" />
<glyph unicode="!" horiz-adv-x="493" d="M143 1161q0 -23 6.5 -81t16.5 -156l55 -553q4 -23 7 -37.5t18 -14.5q14 0 18 14.5t8 37.5l56 553q10 92 16 153.5t6 93.5q0 53 -28.5 85t-75.5 32t-75 -32.5t-28 -94.5zM156 88q0 -47 27.5 -77.5t62.5 -30.5t62.5 30.5t27.5 77.5t-27.5 78t-62.5 31t-62.5 -31t-27.5 -78z " />
<glyph unicode="&#x22;" horiz-adv-x="677" d="M90 1362q0 -10 1 -20.5t3 -20.5l64 -457h32l66 457q2 12 3 22.5t1 18.5q0 49 -22.5 74.5t-63.5 25.5q-84 0 -84 -100zM418 1360q0 -10 1 -19.5t3 -19.5l65 -457h31l68 457q2 12 2 22v19q0 100 -84 100q-41 0 -63.5 -25.5t-22.5 -76.5z" />
<glyph unicode="#" horiz-adv-x="1574" d="M104 467h324l-166 -469h131l166 469h287l-166 -469h133l166 469h330l43 115h-332l100 286h310l40 115h-307l166 473h-131l-168 -473h-287l168 473h-133l-166 -473h-348l-43 -115h348l-100 -286h-322zM600 582l100 286h291l-102 -286h-289z" />
<glyph unicode="$" horiz-adv-x="894" d="M106 211q0 -27 4.5 -46.5t18.5 -36.5t43 -34.5t78 -40.5l-37 -250h51l37 232q49 -10 96 -12l-32 -220h51l35 224q70 10 129 41.5t100 83t64.5 117t23.5 143.5q0 117 -48 199.5t-157 158.5l58 391q29 -33 40 -66.5t17 -61t13 -45t28 -17.5q27 0 26 80v65q0 27 -3 46.5 t-14 35.5t-32.5 30.5t-58.5 31.5l27 176h-52l-26 -166q-49 6 -99 6l25 160h-53l-25 -160q-131 -23 -203.5 -114t-72.5 -232q0 -100 43 -170t137 -129l-74 -488q-41 35 -58.5 75t-25.5 93q-4 31 -5 55.5t-2 43t-7 29t-21 10.5q-27 0 -33 -55.5t-6 -182.5zM285 1034 q0 72 40 118t99 50l-51 -328q-88 61 -88 160zM311 111l74 495q51 -23 94 -53l-69 -459q-27 0 -50.5 3t-48.5 14zM422 846l55 362h17q47 0 81 -16l-61 -395q-49 25 -92 49zM461 98l65 428q57 -47 83 -92t26 -108q0 -92 -48 -154.5t-126 -73.5z" />
<glyph unicode="%" horiz-adv-x="1259" d="M86 987q0 -72 22.5 -131t59.5 -102t85 -66.5t101 -23.5q51 0 99.5 24.5t86.5 69.5t60.5 107.5t22.5 138.5q0 68 -21.5 127t-58.5 102t-85.5 68.5t-103.5 25.5q-53 0 -101 -25.5t-85 -70.5t-59.5 -107.5t-22.5 -136.5zM172 -39h84l831 1366h-86zM215 1010q0 119 37 185.5 t96 66.5t102.5 -75t43.5 -206q0 -123 -38 -190.5t-98 -67.5q-59 0 -101 77t-42 210zM637 285q0 -72 21.5 -131.5t58.5 -102.5t86 -66.5t102 -23.5q51 0 99.5 25.5t86 70.5t60.5 107.5t23 136.5q0 70 -22 129t-58.5 102t-85 68t-103.5 25q-53 0 -101 -26t-85 -71 t-59.5 -107.5t-22.5 -135.5zM766 309q0 119 38 186.5t97 67.5q57 0 100 -74.5t43 -203.5q0 -125 -37.5 -192.5t-97.5 -67.5q-59 0 -101 74.5t-42 209.5z" />
<glyph unicode="&#x26;" horiz-adv-x="1236" d="M53 324q0 -76 22.5 -141.5t62.5 -114t94.5 -76t119.5 -27.5q102 0 179 46t163 141l29 30q16 16 20 17q4 0 9.5 -3t9.5 -10l39 -59q12 -18 12 -31q0 -20 -12.5 -28.5t-26.5 -11.5t-26.5 -8t-12.5 -19q0 -12 9.5 -20.5t21.5 -8.5q23 0 69 7t111 7q82 0 134.5 -7t78.5 -7 q43 0 43 33q0 14 -16.5 19t-44 17.5t-66.5 41t-84 94.5l-114 164q-6 8 -7 22q0 8 13 31l37 61q121 197 204 238q18 8 34 13t28 9.5t18 9.5t6 15q0 23 -26 23q-12 0 -44 -4.5t-81 -4.5q-74 0 -120 6.5t-65 6.5q-41 0 -40 -29q0 -16 18 -21.5t39.5 -8.5t40 -12t18.5 -36 q0 -37 -49 -123l-61 -104q-6 -10 -15 -10q-8 0 -14 8l-213 307q-6 8 -6 16q0 10 16 21l41 22q98 53 144.5 110.5t46.5 137.5q0 53 -20.5 99.5t-57.5 81t-90.5 54t-116.5 19.5t-117.5 -22.5t-94.5 -60.5t-62.5 -90t-22.5 -112q0 -59 17.5 -110t48.5 -105l28 -51q8 -16 8 -24 q0 -14 -22 -27l-64 -39q-221 -129 -221 -362zM233 387q0 88 30 156.5t77 103.5l45 33q8 6 16 6q15 0 21 -10l260 -383q8 -16 8 -23q0 -16 -8 -24l-47 -51q-86 -92 -180 -93q-98 0 -160 78t-62 207zM420 1116q0 72 33.5 114t87.5 42q59 0 102 -58.5t43 -162.5 q0 -47 -20.5 -89t-55.5 -71l-32 -27q-10 -10 -25 -10q-18 0 -31 20l-47 68q-29 41 -42 86t-13 88z" />
<glyph unicode="'" horiz-adv-x="348" d="M90 1339q0 -8 2 -18l66 -457h32l66 457q2 12 3 22.5t1 18.5q0 49 -22.5 74.5t-63.5 25.5q-84 0 -84 -102v-21z" />
<glyph unicode="(" horiz-adv-x="636" d="M152 428q0 -223 74.5 -417.5t207.5 -340.5q68 -74 122 -108.5t71 -34.5q23 0 22 16q0 12 -12 20.5t-33.5 24t-48.5 40t-55 67.5q-82 123 -130 309t-48 424q0 240 49 424t129 307q29 43 55.5 67.5t48 39t33.5 23.5t12 22q1 16 -22 16q-16 0 -80 -42t-137 -130 q-125 -147 -191.5 -331.5t-66.5 -395.5z" />
<glyph unicode=")" horiz-adv-x="636" d="M-12 -457q0 -16 22 -16q16 0 79 41t138 131q125 147 191.5 332.5t66.5 396.5t-66.5 395.5t-191.5 331.5q-76 90 -138.5 131t-78.5 41q-23 0 -22 -16q0 -12 14 -21.5t36.5 -27t53.5 -46t62 -79.5q76 -127 118.5 -306.5t42.5 -402.5q0 -242 -49 -427t-129 -306 q-29 -43 -55.5 -67.5t-48 -39t-33.5 -23.5t-12 -22z" />
<glyph unicode="*" horiz-adv-x="819" d="M109 750q0 -41 22.5 -67t48.5 -26q31 0 50.5 22.5t40 57.5t49 75t75.5 75q0 -8 1 -15.5t1 -15.5q0 -49 -9 -87t-21.5 -70.5t-21.5 -60.5t-9 -54q0 -88 74 -88q35 0 53 26.5t18 61.5q0 29 -9 58.5t-20.5 62t-20.5 71.5t-9 88v21q49 -31 76.5 -71t48 -76t40 -59.5 t52.5 -23.5q23 0 47.5 27t24.5 61q0 45 -27 73t-66 32q-41 4 -85 11t-97 50q41 41 88 51.5t103 16.5q29 4 56.5 30.5t27.5 67.5q0 35 -21.5 63.5t-48.5 28.5q-33 0 -53.5 -22.5t-40 -57t-47 -75.5t-76.5 -76q0 8 -1 15t-1 14q0 47 9 86t21.5 71.5t21.5 61t9 55.5 q0 88 -73 88q-35 0 -54.5 -24.5t-19.5 -61.5q0 -29 9 -58.5t21.5 -62.5t21.5 -71.5t9 -85.5v-25q-49 33 -77.5 73t-49 74.5t-40 58t-52.5 23.5q-31 0 -50 -27.5t-19 -62.5q0 -43 25.5 -69.5t66.5 -30.5q43 -4 88 -11.5t94 -52.5q-51 -55 -154 -61q-121 -6 -120 -102z" />
<glyph unicode="+" horiz-adv-x="1705" d="M254 553h541v-553h118v553h539v117h-539v551h-118v-551h-541v-117z" />
<glyph unicode="," horiz-adv-x="448" d="M106 84q0 -35 16.5 -61.5t41.5 -36.5q18 -6 33 -6q14 0 24 -2.5t15.5 -12.5t5.5 -37q0 -61 -20.5 -106t-44 -77t-44 -53.5t-20.5 -35.5q0 -20 18 -21q14 0 45 30t62.5 80t56 117.5t24.5 143.5q0 86 -32.5 134t-83.5 48q-41 0 -69 -29.5t-28 -74.5z" />
<glyph unicode="-" horiz-adv-x="454" d="M31 367q0 -10 14 -11h313q6 0 14.5 7.5t12.5 19.5l37 137q2 8 2 15q0 10 -14 10h-314q-6 0 -14 -7.5t-12 -19.5l-35 -137q-4 -16 -4 -14z" />
<glyph unicode="." horiz-adv-x="448" d="M133 88q0 -47 27.5 -77.5t62.5 -30.5t62.5 30.5t27.5 77.5t-27.5 78t-62.5 31t-62.5 -31t-27.5 -78z" />
<glyph unicode="/" horiz-adv-x="454" d="M-33 -190h66l506 1517h-64z" />
<glyph unicode="0" horiz-adv-x="894" d="M53 645q0 -164 32 -292t85 -215t126 -132t153 -45t150.5 45t124.5 132t86 214t32 293q0 164 -32 291t-85 214t-126 132t-153 45t-150.5 -45t-124.5 -132t-86 -214t-32 -291zM244 645q0 313 48 469t154 156q111 0 158 -156t47 -471t-47 -470t-155 -155q-109 0 -157 156 t-48 471z" />
<glyph unicode="1" horiz-adv-x="894" d="M168 1112q0 -27 27 -27q18 0 39.5 9.5t45 20.5t46 20.5t43.5 9.5q23 0 25.5 -25.5t2.5 -87.5v-796q0 -78 -12 -116t-61 -46q-29 -4 -54 -4q-23 0 -39 -2t-25 -8.5t-9 -24.5q0 -35 34 -35q25 0 80.5 6t141.5 6q147 0 217.5 -8t81.5 -8q29 0 28 35q0 20 -14 27.5t-35.5 8.5 t-48.5 1q-25 0 -47 10q-35 16 -44 59t-9 115v917q0 37 4 66t4 47q0 39 -27 39q-6 0 -19.5 -9t-41 -25.5t-71.5 -39t-109 -47.5q-68 -27 -111 -42t-43 -46z" />
<glyph unicode="2" horiz-adv-x="894" d="M72 37q0 -41 45 -41q6 0 13 2t15 2h560q49 0 60 12.5t11 67.5v194q0 29 -2 45.5t-18 16.5q-14 0 -21.5 -9.5t-11.5 -23.5t-8 -31.5t-13 -33.5q-10 -23 -34.5 -30t-71.5 -7h-324q-27 0 -26 8q0 4 10 18l45 56q139 164 232.5 259t132.5 142q55 72 84.5 149.5t29.5 155.5 q0 74 -24.5 135.5t-68.5 105.5t-104.5 68.5t-129.5 24.5q-80 0 -146.5 -36t-115 -83t-74 -97t-25.5 -77q0 -25 21 -24q23 0 37 26.5t43 67.5q45 61 91 93t103 32q86 0 143.5 -70t57.5 -192q0 -104 -53.5 -206t-145.5 -237l-268 -389q-23 -31 -36 -52.5t-13 -41.5z" />
<glyph unicode="3" horiz-adv-x="894" d="M78 -51q0 -121 184 -121q88 0 188.5 52t190.5 157q154 178 154 385q0 131 -50.5 220t-146.5 130q-41 18 -75 23.5t-57.5 7.5t-37.5 2q-12 0 -12 6q0 12 43 31.5t102 66.5q57 45 83 94.5t26 116.5q0 88 -66.5 146.5t-187.5 58.5q-72 0 -130.5 -24.5t-99.5 -58.5 t-63.5 -70.5t-22.5 -63.5q0 -29 17 -29q20 0 28.5 19.5t32.5 50.5q39 49 79 73.5t91 24.5q61 0 103.5 -47t42.5 -121q0 -90 -59.5 -160.5t-160.5 -152.5q-82 -66 -127 -95.5t-45 -58.5q0 -10 7.5 -16t15.5 -6q6 0 21.5 9t40 20.5t59.5 20.5t80 9q141 0 223 -89t82 -245 q0 -98 -30 -175t-74 -129t-93 -78.5t-88 -26.5q-29 0 -52.5 20.5t-45 44t-45 44t-51.5 20.5q-74 0 -74 -86z" />
<glyph unicode="4" horiz-adv-x="894" d="M47 461q0 -33 12.5 -40t38.5 -7h361q31 0 36 -8.5t5 -43.5v-159q0 -47 -7.5 -76t-37.5 -39q-33 -10 -56.5 -14t-38 -8.5t-21.5 -11.5t-7 -25t4 -23.5t20 -5.5t76 8t168 8q59 0 102 -6t68 -6q18 0 26.5 6t8.5 25q0 18 -7 24.5t-19.5 8.5t-29 3t-34.5 11q-23 12 -29 33.5 t-6 62.5v197q0 20 6 29.5t25 9.5h104q23 0 23 26v33q0 29 -25 29h-96q-25 0 -31 9t-6 32v424q0 33 -21 32q-2 0 -38.5 -11t-77.5 -38q-31 -20 -37 -33.5t-6 -33.5v-334q0 -29 -5.5 -38t-31.5 -9h-289q-16 0 -26.5 2t-10.5 16q0 10 22.5 45t63.5 97l109 159 q102 150 183 260.5t138.5 185t87 116.5t29.5 55q0 6 -5 12t-11 6h-29q-16 0 -23.5 -6t-17.5 -18l-569 -838q-31 -47 -49.5 -79t-18.5 -54z" />
<glyph unicode="5" horiz-adv-x="894" d="M98 -84q0 -31 35 -31q18 0 60.5 8.5t96.5 26t114.5 43t115.5 62.5q129 84 200 201.5t71 244.5q0 356 -373 434q-49 10 -89 13.5t-68 6.5t-42 10t-14 28q0 53 12 79.5t34.5 39t55.5 13.5t76 5l242 20q16 2 33.5 3t32 17.5t23.5 53.5t9 109q0 25 -21 24h-18l-336 -33 q-43 -4 -67.5 -8t-38 -11t-18.5 -20.5t-11 -35.5q-47 -195 -80 -301.5t-33 -145.5q0 -25 13.5 -33t40 -11t67.5 -5t96 -14q150 -31 222.5 -105t72.5 -201q0 -133 -72.5 -237.5t-211.5 -165.5q-55 -25 -98.5 -34t-73 -14t-44 -11.5t-14.5 -24.5z" />
<glyph unicode="6" horiz-adv-x="894" d="M57 526q0 -125 32 -229t87 -179t129 -116t158 -41q78 0 147.5 38t121.5 103.5t82 155.5t30 193q0 84 -21.5 154.5t-60.5 122.5t-93.5 82t-119.5 30q-39 0 -74 -12.5t-62.5 -29t-44 -37t-16.5 -34.5q0 -8 5 -16.5t14 -8.5q8 0 17 7.5t21.5 16.5t27 17.5t34.5 8.5 q78 0 135.5 -97.5t57.5 -283.5q0 -166 -47.5 -256t-122.5 -90q-47 0 -92.5 37.5t-81 106.5t-58 165t-22.5 215q0 109 28.5 218.5t78.5 210.5t119 187t148 150q49 39 88 58.5t67 30.5t43 19.5t15 24.5q0 25 -26 25q-12 0 -54 -15.5t-100.5 -46.5t-130.5 -78t-143 -110 q-154 -137 -235 -317.5t-81 -379.5z" />
<glyph unicode="7" horiz-adv-x="894" d="M72 1253q0 -43 3 -89t19 -97q31 8 89.5 13t144.5 5h311q51 0 51 -16q0 -4 -2 -17.5t-10 -35.5l-203 -567q-72 -207 -117 -323t-55 -142l-18 -43q-6 -18 -6 -25q0 -16 22 -16q25 0 33 5t16 27l266 713q111 295 178.5 444.5t67.5 178.5q0 12 -8 21t-20 9q-10 0 -32 -5 t-57 -5h-434q-76 0 -126 6t-72 6q-23 0 -32 -9t-9 -38z" />
<glyph unicode="8" horiz-adv-x="894" d="M45 315q0 -76 26.5 -140t77 -112.5t122 -75t161.5 -26.5q88 0 163 31t129 84t85 128t31 163q0 215 -170 321l-49 31q-20 12 -21 20q0 4 21 15l32 14q156 68 156 250q0 70 -25.5 127t-71.5 98t-110.5 63.5t-144.5 22.5q-82 0 -149.5 -26.5t-116 -74.5t-75 -116t-26.5 -151 q0 -96 32 -158t105 -111l54 -35q25 -18 24 -18q0 -6 -16 -12l-41 -17q-94 -39 -148.5 -114.5t-54.5 -180.5zM213 307q0 70 16.5 124t41 93t54 59.5t56.5 20.5q8 0 33.5 -9t57.5 -26.5t64.5 -40t57.5 -47.5q74 -76 74 -205q0 -55 -17.5 -102t-48.5 -82t-73 -54.5t-89 -19.5 t-89 20.5t-72.5 59.5t-48 91.5t-17.5 117.5zM246 1044q0 109 55 170.5t135 61.5q96 0 157.5 -73.5t61.5 -196.5q0 -53 -17 -97.5t-40 -75t-48.5 -48t-39.5 -17.5q-6 0 -28.5 9t-53.5 25.5t-63.5 39t-57.5 49.5q-61 61 -61 153z" />
<glyph unicode="9" horiz-adv-x="894" d="M49 881q0 -92 24.5 -167t68.5 -128.5t104.5 -82t130.5 -28.5q31 0 63.5 10.5t58 26.5t43 33.5t17.5 34.5q0 20 -16 20q-10 0 -32 -16.5t-62 -16.5q-41 0 -81 25.5t-71 74t-50.5 116t-19.5 151.5q0 76 15.5 138.5t41 106.5t59.5 68.5t71 24.5q41 0 83 -35t75.5 -98.5 t54 -152.5t20.5 -198q0 -221 -96 -427.5t-270 -360.5q-43 -39 -83 -63.5t-69 -42t-46 -29.5t-17 -25q0 -29 22 -28q10 0 93 38.5t206 126.5q215 154 329.5 358t114.5 435q0 125 -31.5 227.5t-87 176t-128 113.5t-154.5 40q-76 0 -144.5 -32.5t-120.5 -92t-84 -141.5 t-32 -180z" />
<glyph unicode=":" horiz-adv-x="485" d="M154 88q0 -47 26.5 -77.5t61.5 -30.5t62.5 30.5t27.5 77.5t-27.5 78t-62.5 31t-61.5 -31t-26.5 -78zM154 659q0 -47 26.5 -77.5t61.5 -30.5t62.5 30.5t27.5 77.5t-27.5 78t-62.5 31t-61.5 -30.5t-26.5 -78.5z" />
<glyph unicode=";" horiz-adv-x="485" d="M137 84q0 -35 16.5 -61.5t41.5 -36.5q18 -8 32.5 -7t24.5 -1.5t15 -12.5t5 -37q0 -61 -20.5 -106t-44 -77t-44 -53.5t-20.5 -35.5q0 -20 19 -21q14 0 45 30t62.5 80t56 117.5t24.5 145.5q0 86 -32.5 133t-84.5 47q-41 0 -68.5 -29.5t-27.5 -74.5zM141 659q0 -47 27 -77.5 t61 -30.5q35 0 62.5 30.5t27.5 77.5t-27.5 78t-62.5 31t-61.5 -30.5t-26.5 -78.5z" />
<glyph unicode="&#x3c;" horiz-adv-x="1705" d="M264 559l1178 -483v129l-1000 405l1000 408v127l-1178 -483v-103z" />
<glyph unicode="=" horiz-adv-x="1705" d="M254 360h1198v117h-1198v-117zM254 743h1198v117h-1198v-117z" />
<glyph unicode="&#x3e;" horiz-adv-x="1705" d="M264 76l1178 483v103l-1178 483v-127l1000 -408l-1000 -405v-129z" />
<glyph unicode="?" horiz-adv-x="561" d="M80 1196q0 -66 14.5 -102.5t34.5 -36.5q25 0 43 23.5t38.5 52t45.5 52t59 23.5q41 0 72 -48t31 -124t-42 -135t-118 -131q-45 -43 -75.5 -71.5t-30.5 -73.5q0 -135 16 -219t37 -84q18 0 21 17t4 42t4.5 53.5t19.5 50.5q20 29 64 63t92 89q113 127 112 285 q0 80 -22.5 147.5t-62.5 115.5t-96 74.5t-124 26.5q-137 0 -137 -90zM127 88q0 -47 26.5 -77.5t61.5 -30.5t62.5 30.5t27.5 77.5t-27.5 78t-62.5 31t-61.5 -31t-26.5 -78z" />
<glyph unicode="@" horiz-adv-x="2019" d="M145 537q0 -199 78 -359t230 -274q240 -184 616 -185q356 0 655 222l-30 36q-285 -207 -613 -206q-350 0 -581 196q-125 106 -181.5 235.5t-56.5 303.5q0 410 264 663q242 233 617 234q143 0 268 -44t215 -122q203 -178 203 -455q0 -178 -65.5 -317t-186.5 -229 q-45 -35 -90 -50.5t-74 -15.5q-43 0 -68.5 27.5t-25.5 74.5q0 35 6 60.5t12 48.5l170 610h-143l-53 -180q-43 195 -221 195q-72 0 -152 -35t-147 -101q-92 -88 -139.5 -195.5t-47.5 -213.5q0 -154 76 -245t201 -91q186 0 309 211q12 -211 207 -211q66 0 132 26.5t126 81.5 q104 96 162.5 234.5t58.5 298.5q0 156 -53.5 283t-152.5 216t-239.5 138t-314.5 49q-371 0 -635 -221q-166 -137 -251 -313.5t-85 -380.5zM750 375q0 45 10 101t29.5 116.5t49 122t68.5 119.5q45 66 89.5 98.5t101.5 32.5q72 0 120 -58.5t48 -154.5q0 -84 -32 -191.5 t-93 -208.5q-111 -178 -242 -178q-66 0 -107.5 52.5t-41.5 148.5z" />
<glyph unicode="A" horiz-adv-x="940" d="M-76 23q0 -27 37 -27q23 0 56.5 5t78.5 5q66 0 111 -6t67 -6q35 0 35 24q0 23 -20.5 31t-61.5 14q-29 4 -41 14.5t-12 41.5q0 37 31 157l49 183q2 8 9 13t13 5h254q27 0 31 -16l80 -262q18 -66 18 -93q0 -29 -16 -39t-68 -10q-41 0 -40 -32q0 -25 34 -25q20 0 72.5 5 t138.5 5q61 0 103.5 -6t68.5 -6q43 0 43 29q0 18 -23.5 21t-51.5 24q-41 27 -59.5 69.5t-41.5 114.5l-309 975q-14 43 -20.5 69.5t-28.5 26.5q-16 0 -21.5 -13.5t-13.5 -35.5l-326 -1057q-16 -55 -30.5 -93t-42.5 -58q-16 -12 -34 -14.5t-33 -4.5t-25.5 -7t-10.5 -21z M287 567v6q0 6 2 15l96 362q4 16 12 17q7 -1 13 -19l110 -356q4 -16 4 -21q0 -6 -6 -11t-12 -5h-205q-14 0 -14 12z" />
<glyph unicode="B" horiz-adv-x="1062" d="M39 1229q0 -29 24 -29q16 0 34 5t38 5q55 0 55 -80v-937q0 -16 -1 -26.5t-1 -14.5q0 -41 -16 -65t-63 -24q-49 0 -50 -30q0 -33 39 -33q20 0 58.5 6t95.5 6q76 0 167 -15t202 -15q86 0 156.5 27.5t120.5 77.5t78 118.5t28 150.5q0 143 -70 233.5t-199 117.5 q104 39 152.5 103t48.5 167q0 166 -128 240.5t-386 74.5q-383 0 -383 -63zM371 209v420q-1 26 26 26h127q135 0 205 -78.5t70 -209.5q0 -150 -70 -231t-192 -81q-92 0 -129 38t-37 116zM371 784v342q0 55 20.5 77t97.5 22q123 0 186.5 -66.5t63.5 -193.5 q0 -117 -72.5 -180.5t-205.5 -63.5h-27q-23 0 -36 2t-19 8t-7 18t-1 35z" />
<glyph unicode="C" horiz-adv-x="1099" d="M61 647q0 -145 45.5 -270t125 -217t189 -145.5t238.5 -53.5q78 0 142.5 14.5t112 39t73 56t25.5 66.5q0 74 3 118t3 56q0 43 -23 43q-18 0 -32.5 -30.5t-38.5 -85.5q-47 -106 -111.5 -158.5t-161.5 -52.5q-76 0 -144.5 45t-120.5 127t-83 193.5t-31 244.5q0 143 31 261 t85 201t126 128t156 45q80 0 139 -47t115 -140q23 -39 38 -60t29 -21q16 0 17 36q0 92 -8.5 146.5t-18.5 65t-36.5 23.5t-67.5 24.5t-92.5 19.5t-106.5 8q-129 0 -240.5 -52t-195.5 -144.5t-132.5 -216.5t-48.5 -267z" />
<glyph unicode="D" horiz-adv-x="1218" d="M41 33q0 -33 43 -33q39 0 82 7t90 7q53 0 119.5 -10t146.5 -10q154 0 271.5 46t199.5 130t124 205t42 270q0 147 -44 271t-126 212.5t-199.5 137.5t-263.5 49q-233 0 -358 -25.5t-125 -66.5q0 -31 23 -31q18 0 36.5 9t40.5 9q27 0 35 -16t8 -49v-952q0 -33 -1 -54.5 t-7 -35t-19.5 -21.5t-37.5 -14q-14 -4 -29 -5q-14 0 -25.5 -2t-18.5 -8t-7 -20zM371 252v883q0 31 5 52t21.5 35.5t47 21.5t83.5 7q94 0 172 -44t133.5 -123.5t86 -189.5t30.5 -239q0 -139 -30.5 -249.5t-87 -187.5t-136.5 -119t-178 -42q-92 0 -119.5 44.5t-27.5 150.5z " />
<glyph unicode="E" horiz-adv-x="956" d="M37 33q0 -33 45 -33q12 0 60 5t141 5q199 0 328.5 -8t193.5 -8q23 0 34 2t17 10t8 21.5t4 38.5l23 198q2 16 3 26l1 11q0 4 -7 11t-14 7q-25 0 -43 -41.5t-55 -99.5q-25 -37 -49.5 -60.5t-55 -35.5t-68.5 -16.5t-85 -4.5q-45 0 -73.5 5.5t-45 18.5t-22.5 39t-6 69v421 q0 23 7 30t30 7h90q66 0 106.5 -10t65.5 -57q16 -31 24 -56.5t13.5 -45t12.5 -31t19 -11.5q25 0 25 37q0 14 -3 58.5t-3 115.5q0 61 5 112.5t5 90.5q0 29 -25 29q-16 0 -21 -12.5t-9 -31t-12.5 -40t-28.5 -41.5q-14 -14 -61.5 -25.5t-110.5 -11.5h-92q-29 0 -33 7t-4 34v338 q0 37 3 60.5t14 37.5t33.5 20.5t63.5 6.5q166 0 250 -78q27 -25 41.5 -52.5t22.5 -50t15 -37t22 -14.5q23 0 22 51v177v8q0 33 -8 47t-49 14q-20 0 -120.5 -4t-281.5 -4q-141 0 -217 4t-88 4q-35 0 -35 -28q0 -16 7.5 -21.5t19.5 -7.5t29 -2q16 0 32 -6q29 -10 34 -28.5 t5 -66.5v-937q0 -59 -8 -90t-53 -37q-39 -6 -64 -7q-25 0 -24 -26z" />
<glyph unicode="F" horiz-adv-x="882" d="M37 33q0 -33 45 -33q23 0 69 6t123 6q82 0 136.5 -6t78.5 -6q51 0 52 29q0 16 -7.5 22t-20.5 9t-30 3q-16 0 -34 5q-29 6 -44.5 13t-22.5 20.5t-9 35t-2 56.5v432q0 27 26 26h86q61 0 100.5 -9t67.5 -60q18 -31 26.5 -56.5t14.5 -45t12.5 -30t18.5 -10.5q25 0 25 37 q0 14 -2.5 58.5t-2.5 115.5q0 61 4.5 111.5t4.5 91.5q0 29 -23 29q-16 0 -21.5 -9.5t-8.5 -26t-9 -36.5t-20 -43q-31 -47 -181 -47h-79q-29 0 -34 17.5t-5 52.5v309q0 35 2 59.5t13 38.5t32.5 20.5t60.5 6.5q160 0 242 -78q27 -27 40 -53.5t21.5 -49t15.5 -37t19 -14.5 q23 0 23 51v177v8q0 31 -7.5 46t-48.5 15q-23 0 -117 -4t-261 -4q-152 0 -227 5t-85 5q-35 0 -35 -30q0 -23 19.5 -26t43 -6t43 -13.5t19.5 -47.5q0 -10 1 -19t1 -20v-937q0 -61 -8 -90t-55 -37q-37 -6 -62 -7q-25 0 -24 -26z" />
<glyph unicode="G" horiz-adv-x="1214" d="M59 618q0 -143 43 -264t120 -208t184.5 -136t234.5 -49q82 0 154.5 15.5t128 43t87 67.5t31.5 87v311q0 53 9.5 70.5t46.5 26.5q18 4 33.5 5t26.5 3t18.5 8t7.5 20q0 27 -31 27q-14 0 -65.5 -8t-149.5 -8q-88 0 -140.5 8t-72.5 8q-35 0 -35 -29q0 -14 7.5 -19t20.5 -7 t30.5 -3t39.5 -5q41 -10 50.5 -26.5t9.5 -70.5v-241q0 -49 -5 -90t-23.5 -71t-53.5 -46.5t-94 -16.5q-82 0 -155 43t-127 122t-86 189.5t-32 248.5q0 147 31 267t86 205t130 131t163 46q180 0 252 -180q16 -41 25.5 -69t31.5 -28q27 0 27 58q0 174 -25 198 q-10 12 -37.5 25.5t-67.5 25t-89 18.5t-105 7q-137 0 -253.5 -53t-200.5 -147.5t-132.5 -224.5t-48.5 -284z" />
<glyph unicode="H" horiz-adv-x="1259" d="M41 33q0 -33 43 -33q18 0 66.5 6t128.5 6t128 -6t66 -6q43 0 43 29q0 16 -7 23t-19.5 9t-28.5 2t-35 7q-20 6 -31.5 14t-16.5 21.5t-6 34t-1 53.5v438q0 29 26 28h465q25 0 25 -28v-438q0 -33 -1 -54.5t-7.5 -35t-19.5 -21.5t-38 -14q-14 -4 -28 -5q-14 0 -25.5 -2 t-19 -8t-7.5 -20q0 -33 45 -33q18 0 66.5 6t128.5 6t127 -6t66 -6q45 0 45 29q0 16 -8.5 23t-20.5 9t-29 2q-16 0 -35 7q-20 6 -30.5 14t-15.5 21.5t-6 34t-1 53.5v937q0 49 7 69t46 28q18 4 35 5t29 3t18 7t6 20q0 28 -28 28h-2q-16 0 -65.5 -8t-137.5 -8t-137 8t-66 8 q-31 0 -30 -28q0 -16 7 -21.5t20 -7.5t30 -2q18 0 39 -6q31 -10 37 -27.5t6 -67.5v-370q0 -29 -25 -29h-465q-27 0 -26 27v372q0 49 7 69t46 28q18 4 34.5 5t29 3t18.5 7t6 20q0 28 -29 28h-2q-16 0 -65 -8t-137 -8t-137.5 8t-65.5 8q-31 0 -31 -28q0 -16 7 -21.5t20.5 -7.5 t29.5 -2q18 0 39 -6q31 -10 38 -27.5t7 -67.5v-937q0 -33 -1 -54.5t-7 -35t-19.5 -21.5t-37.5 -14q-14 -4 -29 -5q-14 0 -25.5 -2t-18.5 -8t-7 -20z" />
<glyph unicode="I" horiz-adv-x="557" d="M41 33q0 -33 43 -33q18 0 66.5 6t128.5 6t128 -6t66 -6q43 0 43 29q0 16 -7 23t-19.5 9t-28.5 2t-35 7q-20 6 -31.5 14t-16.5 21.5t-6 34t-1 53.5v937q0 49 7 69t46 28q18 4 34.5 5t29 3t18.5 7t6 20q0 28 -29 28h-2q-16 0 -65 -8t-137 -8t-137.5 8t-65.5 8 q-31 0 -31 -28q0 -16 7 -21.5t20.5 -7.5t29.5 -2q18 0 39 -6q31 -10 38 -27.5t7 -67.5v-937q0 -33 -1 -54.5t-7 -35t-19.5 -21.5t-37.5 -14q-14 -4 -29 -5q-14 0 -25.5 -2t-18.5 -8t-7 -20z" />
<glyph unicode="J" horiz-adv-x="567" d="M-147 -252q0 -61 32.5 -97t85.5 -36q131 0 279 207q72 98 103.5 205.5t31.5 236.5v866q0 51 7 69t46 28q37 8 62.5 7t25.5 28q0 28 -28 28h-2q-16 0 -65.5 -8t-137.5 -8q-90 0 -138.5 8t-64.5 8q-31 0 -31 -28q0 -16 8.5 -21.5t21.5 -6.5t30.5 -2t36.5 -7 q31 -10 37 -28.5t6 -66.5v-1019q0 -190 -31 -284.5t-76 -94.5q-25 0 -40 19.5t-29.5 44t-32 44t-47.5 19.5q-35 0 -62.5 -32t-27.5 -79z" />
<glyph unicode="K" horiz-adv-x="1036" d="M41 33q0 -33 43 -33q18 0 66.5 6t128.5 6t128 -6t66 -6q43 0 43 29q0 16 -7 23t-19.5 9t-28.5 2t-35 7q-20 6 -31.5 14t-16.5 21.5t-6 34t-1 53.5v409q0 29 20 29q10 0 19 -13l290 -477q10 -14 13.5 -28.5t3.5 -26.5q0 -18 -16.5 -23.5t-37 -7.5t-37 -7t-16.5 -19 q0 -29 49 -29q12 0 57.5 6t131.5 6q82 0 130 -6t71 -6q49 0 49 29q0 14 -6.5 19t-16.5 6t-23.5 3t-27.5 9q-35 16 -57.5 45.5t-51.5 72.5l-362 557q-6 8 -6 21q0 10 16 31l203 243q63 78 113.5 123t81.5 60q18 8 36.5 11t31.5 6t21.5 8t8.5 18q0 28 -25 28h-2q-16 0 -60 -8 t-124 -8q-78 0 -122 8t-60 8q-27 0 -27 -28q0 -20 16.5 -25.5t37 -7.5t36.5 -9.5t16 -33.5q0 -20 -26 -58l-316 -393q-14 -14 -20 -14q-12 0 -12 29v380q0 49 7 69t46 28q18 4 34.5 5t29 3t18.5 7t6 20q0 28 -29 28h-2q-16 0 -65 -8t-137 -8t-137.5 8t-65.5 8q-31 0 -31 -28 q0 -16 7 -21.5t20.5 -7.5t29.5 -2q18 0 39 -6q31 -10 38 -27.5t7 -67.5v-937q0 -33 -1 -54.5t-7 -35t-19.5 -21.5t-37.5 -14q-14 -4 -29 -5q-14 0 -25.5 -2t-18.5 -8t-7 -20z" />
<glyph unicode="L" horiz-adv-x="843" d="M41 33q0 -33 43 -33q18 0 66.5 6t128.5 6q182 0 305 -9t188 -9q41 0 41 35q0 4 1 12t3 22l21 193q2 16 2 25v12q0 4 -6.5 10t-12.5 6q-16 0 -37.5 -38t-68.5 -99q-43 -57 -94.5 -85t-116.5 -28q-133 0 -133 134v937q0 49 7 69t46 28q18 4 34.5 5t29 3t18.5 7t6 20 q0 28 -29 28h-2q-16 0 -66 -8t-143 -8q-84 0 -128 8t-60 8q-27 0 -27 -28q0 -16 7.5 -21.5t18.5 -6.5t27.5 -2t34.5 -7q29 -10 35 -28.5t6 -66.5v-937q0 -33 -1 -54.5t-7 -35t-19.5 -21.5t-37.5 -14q-14 -4 -29 -5q-14 0 -25.5 -2t-18.5 -8t-7 -20z" />
<glyph unicode="M" horiz-adv-x="1366" d="M18 29q0 -33 50 -33q23 0 54.5 4t72.5 4q47 0 82.5 -4t58.5 -4q51 0 51 33q0 31 -39 30q-8 0 -14 -1t-12 -1q-59 0 -76 44t-17 141q0 23 1 51.5t3 62.5l35 627q2 39 13 39q4 0 14 -27l305 -932q6 -25 33 -24q23 0 33 31l301 927q6 20 12 21q10 0 10 -23l15 -757v-48 q0 -37 -2.5 -61.5t-13.5 -39.5t-32.5 -21.5t-60.5 -6.5q-31 0 -31 -30q0 -33 41 -33q29 0 79 7t118 7q61 0 107 -7t79 -7q20 0 31.5 9t11.5 22q0 18 -8 24t-21.5 7t-32 2t-36.5 10q-33 14 -38 38.5t-7 79.5l-23 897v50q0 41 5.5 56t27.5 26q18 8 35.5 9t32 3t23.5 7t9 22 q0 26 -26 26h-2h-264q-16 0 -23.5 -9t-11.5 -26l-269 -813q-8 -23 -16 -22q-6 0 -14 24l-273 828q-4 12 -11 15t-17 3h-269q-29 0 -28 -26q0 -16 7 -21.5t19.5 -6.5t28.5 -2t35 -7q29 -10 37 -28.5t8 -66.5q0 -16 -1 -26t-1 -15l-35 -700q-4 -92 -8 -154.5t-12.5 -101.5 t-24.5 -56.5t-43 -17.5q-6 0 -15.5 1t-21.5 1q-29 0 -29 -30z" />
<glyph unicode="N" horiz-adv-x="1187" d="M35 29q0 -31 49 -31q29 0 60.5 4t70.5 4q43 0 78 -4t63 -4q53 0 54 31q0 33 -29 32q-10 0 -18.5 -1t-18.5 -1q-31 0 -49.5 9.5t-27.5 33t-11 61.5t-2 95v797q0 23 8 22q2 0 4 -2l674 -1098q19 -32 38 -32h1q12 0 21.5 15t9.5 36v1022q0 113 12 164t65 51h21q20 0 27.5 5 t7.5 22q0 30 -42 30h-3q-23 0 -53.5 -3t-73.5 -3q-45 0 -79 3t-63 3q-53 0 -53 -30q0 -12 10.5 -20.5t26.5 -8.5q43 0 66.5 -5t35 -22.5t14.5 -50.5t3 -88q0 -10 1 -35.5t1 -68.5v-562q0 -23 -8 -22q-2 0 -4 2l-549 891q-10 14 -15.5 17t-19.5 3h-262q-29 0 -29 -28 q1 -29 29 -28h5q27 0 60 -9q29 -10 35 -28.5t6 -66.5v-851q0 -59 -2 -101.5t-11 -68t-27.5 -37t-49.5 -11.5h-18q-39 0 -39 -32z" />
<glyph unicode="O" horiz-adv-x="1273" d="M61 645q0 -145 46.5 -270t124 -217t182 -144.5t221.5 -52.5q119 0 224.5 52.5t184 144.5t123.5 217t45 270t-46 270t-123.5 216.5t-182 143.5t-221.5 52q-119 0 -224.5 -52t-183 -143.5t-124 -216t-46.5 -270.5zM270 674q0 143 28 253.5t76 186.5t113.5 116t139.5 40 q78 0 146.5 -44t119.5 -128t81 -205t30 -275q0 -143 -28 -253.5t-77 -187.5t-114.5 -117t-139.5 -40q-78 0 -146.5 44.5t-119.5 128t-80 205.5t-29 276z" />
<glyph unicode="P" horiz-adv-x="882" d="M47 31q0 -33 41 -33q23 0 69 7t117 7q78 0 126.5 -7t68.5 -7t31.5 9t11.5 22q0 18 -8 24t-21.5 8t-32 3.5t-36.5 9.5q-29 14 -35 36.5t-6 75.5v383q0 20 3 29.5t15 9.5q2 0 15 -4l32 -14q37 -16 68 -26.5t59 -10.5q57 0 107.5 27.5t89.5 76t61.5 114t22.5 142.5 q0 375 -357 375q-68 0 -119 -2t-85 -2h-33q-74 0 -114 3t-48 3q-39 0 -39 -28q0 -16 7.5 -21.5t19.5 -7.5t29.5 -3t35.5 -7q29 -10 36 -28.5t7 -64.5v-923q0 -70 -8 -99.5t-53 -41.5q-14 -4 -29 -5q-14 0 -24.5 -2t-17.5 -8t-7 -20zM371 733v397q0 53 16 77t80 24 q37 0 70.5 -22.5t59.5 -62.5t41 -96.5t15 -125.5q0 -129 -53 -204t-123 -75q-39 0 -72.5 21.5t-33.5 66.5z" />
<glyph unicode="Q" horiz-adv-x="1273" d="M63 641q0 -121 31 -227.5t87.5 -194.5t138 -150.5t186.5 -93.5l33 -8q14 -4 17 -10t5 -20l8 -50q10 -66 49 -121t99.5 -95t138.5 -63.5t166 -23.5q102 0 160.5 25.5t58.5 52.5q0 20 -16 21q-6 0 -27.5 -9.5t-62.5 -9.5q-45 0 -93.5 19.5t-94.5 53.5t-85 79t-65 96l-21 39 l-4 8t-2 8q0 10 18 17l43 14q82 27 152 86t121 143t80.5 189.5t29.5 224.5q0 145 -46 270t-124.5 216.5t-182 143.5t-220.5 52q-119 0 -224.5 -52t-183 -143.5t-124 -216.5t-46.5 -270zM272 674q0 143 28 253.5t76 186.5t113.5 116t139.5 40q78 0 146.5 -44t119.5 -128 t81 -205t30 -275q0 -143 -28 -253.5t-77 -187.5t-114.5 -117t-139.5 -40q-78 0 -146.5 44.5t-119.5 128t-80 205.5t-29 276z" />
<glyph unicode="R" horiz-adv-x="976" d="M41 33q0 -33 43 -33q18 0 66.5 6t128.5 6t125 -6t61 -6q41 0 41 29q0 34 -43 34h-2q-33 0 -51.5 9.5t-26.5 26t-10 40t-2 54.5v403q0 29 26 29h21q47 0 69.5 -19.5t44.5 -73.5l185 -464q14 -35 23.5 -51.5t39.5 -16.5q23 0 45.5 3t44.5 3q35 0 67 -3t58 -3q18 0 26.5 3 t8.5 17q0 23 -25.5 28t-60.5 20q-20 8 -40.5 53t-55.5 129l-119 282q-16 41 -33.5 74t-50.5 56q102 23 160.5 107.5t58.5 207.5q0 143 -85 230t-251 87q-70 0 -142.5 -6t-149.5 -6q-53 0 -88 4t-48 4q-29 0 -42 -4t-13 -24q0 -16 7 -21.5t20.5 -7.5t29.5 -2q18 0 39 -6 q31 -10 38 -27.5t7 -67.5v-937q0 -33 -1 -54.5t-7 -35t-19.5 -21.5t-37.5 -14q-14 -4 -29 -5q-14 0 -25.5 -2t-18.5 -8t-7 -20zM371 735v389q0 25 3 44.5t13 32.5t30.5 19.5t55.5 6.5q100 0 152.5 -75t52.5 -204q0 -260 -213 -260q-53 0 -73.5 7t-20.5 40z" />
<glyph unicode="S" horiz-adv-x="856" d="M80 137q0 -88 84 -132t219 -44q86 0 158.5 32t125 87t82 131t29.5 166q0 86 -22.5 151.5t-66.5 117.5t-107.5 95t-145.5 86q-98 51 -144 102.5t-46 133.5q0 98 52 154.5t144 56.5q72 0 111 -43t72 -125q23 -53 30 -81t29 -28q27 0 27 43q0 203 -17 224q-14 18 -80.5 40.5 t-152.5 22.5q-84 0 -150.5 -25.5t-113.5 -72.5t-73 -112.5t-26 -145.5q0 -90 23.5 -149.5t63.5 -102.5t94.5 -76t115.5 -68q117 -66 175.5 -140.5t58.5 -168.5q0 -53 -17.5 -98t-47 -78t-70.5 -51.5t-86 -18.5q-78 0 -146.5 57.5t-99.5 162.5q-8 29 -12.5 55.5t-7.5 45.5 t-9 30.5t-20 11.5q-31 0 -31 -64q0 -4 1 -17t1 -36q0 -29 -2 -61.5t-2 -67.5z" />
<glyph unicode="T" horiz-adv-x="985" d="M16 1028q0 -20 5.5 -24.5t13.5 -4.5h4q25 0 44 35t56 96q39 49 80 74t105 25h57q12 0 19.5 -13.5t7.5 -25.5v-997q0 -66 -8.5 -88.5t-47.5 -34.5q-16 -6 -33 -7q-16 0 -28 -2t-20.5 -8t-8.5 -20q0 -33 43 -33q33 0 82 7t113 7q66 0 114 -7t80 -7q43 0 43 29q0 16 -7 22 t-19.5 8t-28.5 3t-35 8q-20 6 -31.5 14t-16.5 21.5t-6 34t-1 53.5v1003q0 10 7 21.5t19 11.5h33q94 0 143.5 -17.5t77.5 -83.5q8 -31 14.5 -55t11.5 -42.5t12.5 -29t21.5 -10.5q16 0 21 11.5t8 46.5l12 270v22q0 10 -5 23.5t-18 13.5q-8 0 -14 -9t-12 -22.5t-15.5 -27.5 t-23.5 -23q-16 -10 -66 -10q-29 0 -68.5 2t-91.5 2h-251q-45 0 -82 -1t-66 -1q-78 0 -96 19q-10 0 -14.5 11t-9.5 24.5t-10 23.5t-13 10q-20 0 -25.5 -28.5t-15.5 -75.5l-51 -209q-4 -12 -6.5 -22.5t-2.5 -12.5z" />
<glyph unicode="U" horiz-adv-x="1150" d="M39 1262q0 -16 7 -21.5t19.5 -6.5t30 -2t37.5 -7q33 -10 39 -26.5t6 -68.5v-718q0 -94 9.5 -169t50.5 -134q53 -78 141 -113t219 -35q119 0 203 40t127 114q41 70 48 151.5t7 188.5v503q0 76 2 129.5t11.5 85t26.5 46t50 14.5q31 0 45.5 5t14.5 24q0 28 -40 28h-3 q-16 0 -51 -3t-91 -3q-53 0 -87 3t-52 3q-35 0 -35 -28q0 -16 12.5 -21.5t30 -7.5t35.5 -4t33 -12q27 -23 32 -85.5t5 -179.5v-495q0 -106 -7.5 -182t-44.5 -132q-75 -108 -236 -108h-3q-82 0 -133.5 24.5t-81 72.5t-40.5 119t-11 165v714q0 49 7 66.5t38 28.5q18 6 34 6 q18 0 31.5 1t22 7t8.5 23q0 28 -29 28h-2q-16 0 -65.5 -8t-137.5 -8t-137 8t-65 8q-31 0 -31 -28z" />
<glyph unicode="V" horiz-adv-x="960" d="M-48 1239q9 -4 21.5 -6t26.5 -3t25 -7q31 -16 49 -62.5t45 -124.5l330 -958q14 -39 22 -66.5t23 -27.5q14 0 26 36l359 1096q14 41 28.5 68.5t38.5 40.5q12 6 26.5 7t27 2t20.5 6t8 22q0 27 -39 26q-8 0 -43 -4t-98 -4q-57 0 -92 6t-51 6q-39 0 -39 -28q0 -23 18 -27 t42 -8t42 -17.5t18 -52.5q0 -41 -26 -133l-176 -598q-12 -45 -25 -45q-10 0 -24 45l-228 657q-18 55 -18 86t16.5 40.5t35.5 13.5t35.5 8t16.5 27q0 25 -28 24q-16 0 -51 -5t-83 -5q-123 0 -184 6t-72 6q-32 0 -32 -29q0 -14 9 -18z" />
<glyph unicode="W" horiz-adv-x="1433" d="M-49 1260q0 -12 8 -18.5t19.5 -8.5t24.5 -3t24 -7q29 -16 47 -61.5t45 -119.5l334 -958q39 -111 59 -111q12 0 16 9.5t13 29.5l190 469q10 20 14 21q10 0 17 -21l141 -411q16 -43 22.5 -70t22.5 -27q23 0 35 39l332 996q27 78 50.5 127t39.5 65q18 20 37.5 25.5t36 7.5 t27 6t10.5 23q0 25 -33 24q-12 0 -45 -4t-88 -4q-57 0 -89 6t-42 6q-18 0 -19 -26q0 -18 12.5 -23.5t27.5 -9.5t27.5 -14.5t12.5 -40.5q0 -16 -6 -53.5t-19 -78.5l-231 -725q-6 -20 -16 -20q-8 0 -15 18l-139 431q-4 12 -4 20q0 10 4 19.5t8 19.5l127 311q16 41 31.5 68.5 t38.5 38.5q12 6 26.5 7t26.5 2t20.5 6t8.5 22q0 25 -33 24q-14 0 -45 -4t-80 -4q-45 0 -72.5 5t-40.5 5q-23 0 -22 -26q0 -16 11 -21.5t25.5 -10.5t26 -13.5t11.5 -26.5q0 -16 -2 -32.5t-7 -27.5l-79 -206q-12 -29 -19 -29q-8 0 -16 27l-56 163q-10 29 -15 52.5t-5 40.5 q0 25 12.5 34t25.5 13t25.5 9t12.5 26q0 25 -19 24q-8 0 -32.5 -5t-71.5 -5q-82 0 -137.5 6t-89.5 6q-39 0 -39 -26q0 -23 18 -24t41 -7q39 -12 68 -99l159 -464q6 -16 6 -41q0 -14 -8 -37l-98 -269q-6 -20 -14 -20q-6 0 -13 18l-268 770q-12 35 -16 59.5t-4 29.5 q0 25 13 34t28.5 14t29 10t13.5 23q0 27 -25 27q-6 0 -41 -5t-100 -5q-92 0 -141.5 7t-63.5 7q-43 0 -43 -28z" />
<glyph unicode="X" horiz-adv-x="1048" d="M-35 27q0 -25 31 -25q23 0 66.5 5t105.5 5q55 0 99 -7t77 -7q49 0 49 31q0 18 -21.5 24t-46 12.5t-46 15.5t-21.5 34q0 10 10.5 41.5t34.5 72.5l168 277q12 18 16 18q8 0 19 -18l170 -303q35 -66 35 -90q0 -53 -95 -54q-33 0 -32 -28q0 -27 30 -27q10 0 57.5 5t133.5 5 q92 0 148.5 -7t82.5 -7q47 0 47 29q0 12 -8 17t-21.5 7t-28.5 5t-30 14q-25 16 -52.5 57t-61.5 104l-258 457q-10 20 -11 33q0 10 11 27l225 358q33 51 76 83t82 36q29 4 57.5 6t28.5 31q0 25 -37 24q-23 0 -65 -5t-101 -5q-102 0 -151.5 6t-57.5 6q-35 0 -35 -26 q0 -18 18.5 -23.5t41 -10.5t41 -16.5t18.5 -42.5q0 -14 -15.5 -56t-50.5 -101l-110 -189q-12 -20 -21 -20q-8 0 -20 20l-152 262q-35 61 -35 91q0 27 19.5 35t44.5 11t44 8t19 28q0 27 -34 26q-16 0 -69.5 -6t-145.5 -6q-80 0 -136.5 8t-93.5 8q-43 0 -43 -33q0 -10 7.5 -14 t18.5 -5t24.5 -2t25.5 -5q43 -14 94 -96l293 -494q8 -14 8 -31q0 -16 -10 -32l-213 -342q-49 -80 -94 -116t-79 -49.5t-54.5 -18.5t-20.5 -25z" />
<glyph unicode="Y" horiz-adv-x="942" d="M-72 1260q0 -14 9.5 -18.5t22.5 -5.5t28.5 -3t29.5 -12q37 -29 111 -162l260 -475q6 -10 10 -25.5t4 -23.5v-342q0 -59 -8 -85t-47 -38q-16 -6 -33 -7q-16 0 -28.5 -2t-20.5 -8t-8 -20q0 -33 43 -33q18 0 66.5 6t128.5 6t128 -6t66 -6q43 0 43 29q0 16 -6 22t-17.5 9 t-25.5 3t-31 5q-45 10 -55 33.5t-10 80.5v389q0 10 4 24.5t8 25.5l244 456q31 59 55.5 95t58.5 49q14 6 28.5 7t25 3t17.5 8t7 23q0 25 -30 24q-6 0 -39 -4t-101 -4q-53 0 -91 6t-58 6q-33 0 -33 -24q0 -23 17.5 -28t39 -8t40 -11.5t18.5 -34.5q0 -8 -6.5 -28.5t-22.5 -51.5 l-195 -391q-10 -18 -12 -19q-12 0 -18 15l-228 424q-14 27 -14 49q0 23 15.5 30t35 11t34.5 10t15 27q0 27 -24 26q-8 0 -47 -4t-113 -4q-100 0 -162.5 6t-87.5 6q-18 0 -29.5 -10t-11.5 -20z" />
<glyph unicode="Z" horiz-adv-x="974" d="M18 23q0 -27 41 -27q16 0 161 6t437 6q104 0 159.5 -6t66.5 -6q27 0 33 8t6 25v295q0 43 -23 43q-18 0 -23.5 -20.5t-10.5 -51.5t-13 -68t-33 -69q-51 -68 -139 -80t-211 -12h-158q-35 0 -35 20q0 4 2.5 12t8.5 19l602 1085q14 29 14 47q0 41 -59 41q-10 0 -61.5 -3 t-147.5 -3h-348q-45 0 -63.5 7t-26.5 34q-8 25 -7.5 40t-21.5 15q-14 0 -16 -11t-7 -28l-55 -272q-10 -57 -10 -74q0 -12 18 -12q10 0 21.5 16.5t26 41t34 54t47.5 56.5q43 43 109.5 57.5t169.5 14.5h129q27 0 27 -27q0 -12 -5 -18l-630 -1125q-8 -16 -9 -30z" />
<glyph unicode="[" horiz-adv-x="636" d="M193 -375q0 -55 10 -74.5t61 -19.5h219q31 0 31 33q0 31 -31 30h-104q-29 0 -36 14.5t-7 43.5v1556q0 29 7 43.5t36 14.5h104q31 0 31 30q0 18 -7 24.5t-24 6.5h-219q-51 0 -61 -19.5t-10 -74.5v-1608z" />
<glyph unicode="\" horiz-adv-x="454" d="M-33 1327l508 -1517h64l-506 1517h-66z" />
<glyph unicode="]" horiz-adv-x="636" d="M123 -436q0 -18 6 -25.5t25 -7.5h219q51 0 61 19.5t10 74.5v1608q0 55 -10 74.5t-61 19.5h-219q-18 0 -24.5 -6t-6.5 -25q0 -31 31 -30h104q29 0 36 -14.5t7 -43.5v-1556q0 -29 -7 -43.5t-36 -14.5h-104q-31 0 -31 -30z" />
<glyph unicode="^" horiz-adv-x="2048" d="M412 897h90l520 436l518 -436h92l-520 565h-178z" />
<glyph unicode="_" d="M0 -365v-118h1024v118h-1024z" />
<glyph unicode="`" d="M287 1331q0 -39 49 -76l264 -206h53l-231 301q-23 29 -39 44t-39 15t-40 -20.5t-17 -57.5z" />
<glyph unicode="a" horiz-adv-x="780" d="M59 653q0 -16 11.5 -26.5t27.5 -10.5q61 0 89 36t51 87q29 66 59.5 102t83.5 36t66.5 -39t13.5 -125v-146q0 -23 -3 -32t-20 -17l-51 -26q-74 -37 -134 -74t-103.5 -79t-66 -93t-22.5 -119q0 -78 40 -122t106 -44q57 0 104 32t101 77l43 36h12q23 -70 57.5 -104.5 t87.5 -34.5q25 0 54.5 16.5t55.5 39t44 46t18 40.5q0 31 -24 30q-18 0 -36.5 -20.5t-41.5 -20.5q-35 0 -43 33t-8 98v476q0 57 -6.5 101t-26.5 73.5t-60 45t-106 15.5q-80 0 -148.5 -27.5t-118.5 -69.5t-78 -93.5t-28 -96.5zM244 215q0 143 121 205l67 33q14 8 21 8 q10 0 10 -25v-162q0 -41 -13.5 -73.5t-34 -56t-45 -37t-48.5 -13.5q-35 0 -56.5 31t-21.5 90z" />
<glyph unicode="b" horiz-adv-x="925" d="M8 1296q0 -12 14.5 -18t32 -13.5t31.5 -19.5t14 -39v-975q0 -84 -8 -152.5t-8 -117.5q0 -39 22 -39q12 0 23.5 16.5t22 37t21.5 37t28 16.5q14 0 35.5 -10.5t52 -23.5t71.5 -23.5t97 -10.5q92 0 168.5 38t133 105.5t87.5 161.5t31 209q0 104 -27 190.5t-72 146.5 t-106.5 93t-128.5 33q-68 0 -118 -27.5t-108 -87.5l-24 -24q-10 -10 -17 -11q-4 0 -4 13v442q0 41 2 75t2 64q0 18 -4 28.5t-20 10.5q-10 0 -44 -23.5t-106 -49.5q-39 -14 -66.5 -21.5t-27.5 -30.5zM272 215v301q0 63 3.5 115.5t19.5 89.5t49 57.5t92 20.5q117 0 194 -99.5 t77 -283.5q0 -86 -19.5 -159t-55.5 -125t-85 -80.5t-109 -28.5q-78 0 -122 47t-44 145z" />
<glyph unicode="c" horiz-adv-x="753" d="M49 442q0 -111 28.5 -199.5t80 -151t121 -96.5t151.5 -34q61 0 114.5 20.5t91.5 48t59.5 57.5t21.5 48q0 27 -27 27q-6 0 -19.5 -13.5t-35 -30t-53 -29.5t-70.5 -13q-61 0 -112.5 27.5t-89.5 80t-59.5 128t-21.5 171.5q0 94 19.5 168t50.5 126t70 80t75 28 q29 0 48.5 -13.5t36 -36t30.5 -56.5t33 -72q27 -59 55 -60q25 0 40 44t15 122q0 27 -19 49.5t-51 39t-75 26.5t-92 10q-90 0 -166 -35t-131 -99.5t-87 -155.5t-32 -206z" />
<glyph unicode="d" horiz-adv-x="960" d="M49 434q0 -109 30 -195.5t82 -148t119.5 -95.5t145.5 -34q51 0 90 14.5t66.5 32t44 31.5t20.5 14q6 0 10.5 -13t8.5 -30.5t11 -31t17 -13.5q16 0 60.5 26.5t119.5 53.5q23 8 37.5 17.5t14.5 43.5q0 16 -6.5 25.5t-10.5 9.5q-10 0 -25.5 -19.5t-35.5 -19.5q-29 0 -29 82 v1059q0 41 3 76t3 63q0 18 -4 28.5t-20 10.5q-10 0 -44 -23.5t-106 -49.5q-39 -14 -66.5 -21.5t-27.5 -30.5q0 -12 14.5 -18t30.5 -13.5t30.5 -19.5t14.5 -39v-270q0 -31 -12 -31h-4l-27 10q-23 8 -59.5 15.5t-77.5 7.5q-86 0 -162 -37t-132 -103.5t-90 -159.5t-34 -204z M236 440q0 100 20 182.5t56 138.5t82 87t100 31q55 0 85.5 -21.5t46 -61.5t18.5 -96.5t3 -128.5v-346q0 -41 -2 -71.5t-14.5 -53t-37 -34t-67.5 -11.5q-135 0 -212.5 101.5t-77.5 283.5z" />
<glyph unicode="e" horiz-adv-x="833" d="M49 446q0 -113 26.5 -202.5t76 -153t118 -97.5t152.5 -34q80 0 143.5 26.5t109.5 62.5t70.5 73t24.5 59q0 23 -16 23q-6 0 -21.5 -18.5t-43 -41t-69.5 -41t-100 -18.5q-129 0 -210 110.5t-81 301.5v49q0 20 4.5 26.5t20.5 6.5h453q37 0 53 8t16 35q0 66 -23.5 123 t-66.5 100t-104.5 68.5t-135.5 25.5q-86 0 -158.5 -35t-125.5 -98.5t-83 -154.5t-30 -204zM246 659v5l6 32q16 84 69.5 139.5t124.5 55.5q66 0 108 -43t42 -94q0 -68 -46.5 -90.5t-146.5 -22.5h-133q-25 0 -24 18z" />
<glyph unicode="f" horiz-adv-x="485" d="M18 27q0 -33 39 -33q35 0 78 6t94 6t98.5 -6t88.5 -6q45 0 45 29q0 16 -7.5 22t-21.5 9t-33.5 6t-44.5 16q-23 10 -30 27.5t-7 52.5v637q0 27 25 26h154q20 0 23 9.5t3 29.5v10q0 16 -4 24.5t-22 8.5h-152q-25 0 -25 27v104q0 162 28 242t69 80q20 0 36.5 -22.5t34 -49.5 t34 -49.5t36.5 -22.5q12 0 25.5 15.5t24.5 36t18.5 42t7.5 35.5q0 29 -44 55.5t-104 26.5q-61 0 -117.5 -25.5t-101.5 -73.5t-73.5 -118.5t-34.5 -159.5l-8 -104q-4 -25 -23 -35l-37 -18q-39 -20 -39 -39q0 -10 9.5 -19.5t21.5 -9.5h37q27 0 26 -26v-637q0 -35 -8 -53.5 t-37 -32.5q-37 -16 -59.5 -15.5t-22.5 -27.5z" />
<glyph unicode="g" horiz-adv-x="845" d="M23 -227q0 -100 89 -162t257 -62q100 0 186 32t149.5 86t99.5 124t36 148q0 68 -23.5 110.5t-71 66t-117 33t-159.5 9.5h-47q-66 0 -111 9t-45 54q0 37 39 55.5t111 22.5q164 12 246.5 94t82.5 219q0 76 -30 156q20 2 33.5 3t21.5 1q33 0 50.5 2t17.5 12q0 51 -10.5 66.5 t-36.5 15.5q-12 0 -19.5 -1t-11.5 -1l-58 -4h-18q-29 0 -40 6t-28 15q-47 27 -95 41t-122 14q-72 0 -132 -25.5t-104 -69.5t-68.5 -104.5t-24.5 -128.5q0 -78 32.5 -144.5t92.5 -107.5l30 -22q23 -16 23 -19q0 -6 -25 -18l-78 -37q-29 -14 -46 -27.5t-17 -37.5 q0 -25 21.5 -60t60.5 -84l26 -33q14 -16 15 -22q0 -12 -23 -29l-67 -49q-92 -68 -92 -147zM193 -180q0 97 79 162q106 -2 184.5 -5.5t129.5 -17.5t75.5 -46t24.5 -93q0 -88 -75.5 -145.5t-194.5 -57.5q-102 0 -162.5 57.5t-60.5 145.5zM256 618q0 125 43 195t109 70 t107.5 -71t41.5 -194t-42 -193.5t-107 -70.5q-66 0 -109 71t-43 193z" />
<glyph unicode="h" horiz-adv-x="954" d="M27 27q0 -33 36 -33q25 0 66 6t100 6t100.5 -6t61.5 -6q35 0 35 29q0 18 -7 24t-18.5 9t-26 4t-28.5 12q-18 12 -24.5 32.5t-6.5 51.5v444q0 111 48.5 164t121.5 53q162 0 162 -248v-413q0 -37 -6 -55.5t-37 -32.5q-14 -6 -27.5 -8.5t-23.5 -4.5t-16.5 -8t-6.5 -20 q0 -33 37 -33q29 0 71 6t95 6q51 0 89 -6t61 -6q30 0 30 27q0 18 -5 24t-14 9t-21.5 6t-28.5 16q-16 10 -20.5 28.5t-4.5 51.5v458q0 156 -68.5 240t-191.5 84q-57 0 -110.5 -29.5t-92.5 -81.5l-20 -26q-10 -12 -17 -13q-4 0 -4 27v428q0 41 3.5 76t3.5 63q0 18 -4.5 28.5 t-20.5 10.5q-10 0 -44 -23.5t-106 -49.5q-39 -14 -66.5 -21.5t-27.5 -30.5q0 -16 14.5 -19t31 -10t30.5 -25.5t14 -63.5v-1022q0 -39 -5 -58.5t-38 -31.5q-16 -6 -29.5 -8.5t-22.5 -4.5t-15 -7t-6 -19z" />
<glyph unicode="i" horiz-adv-x="452" d="M49 27q0 -35 31 -35q23 0 59.5 7t89.5 7q49 0 92.5 -7t73.5 -7q37 0 37 33q0 14 -7 20t-18.5 9t-26.5 5t-32 11q-18 10 -25.5 28.5t-7.5 55.5v747q0 43 -20 43q-8 0 -17.5 -9t-23.5 -23.5t-35.5 -33t-52.5 -36.5q-51 -29 -79 -43.5t-28 -36.5q0 -20 13.5 -21.5t29 -6.5 t28.5 -23.5t13 -73.5v-483q0 -41 -5 -58.5t-27 -29.5q-12 -6 -22.5 -7.5t-20 -3.5t-14.5 -8t-5 -20zM147 1182q0 -43 27 -78t64 -35t63.5 35t26.5 78t-26.5 77.5t-63.5 34.5t-64 -34.5t-27 -77.5z" />
<glyph unicode="j" horiz-adv-x="444" d="M-10 -432q0 -18 20 -19q27 0 84.5 36t114.5 102q39 45 60.5 90t31.5 93t12 101.5t2 116.5v813q0 43 -20 43q-8 0 -17.5 -9t-23.5 -23.5t-35.5 -33t-52.5 -36.5q-51 -29 -79 -43.5t-28 -36.5q0 -20 13.5 -21.5t29 -6.5t28.5 -23.5t13 -73.5v-569q0 -131 -8 -226.5 t-47 -160.5q-14 -23 -30.5 -39.5t-32 -28.5t-25.5 -22.5t-10 -22.5zM147 1182q0 -43 27 -78t64 -35t63.5 35t26.5 78t-26.5 77.5t-63.5 34.5t-64 -34.5t-27 -77.5z" />
<glyph unicode="k" horiz-adv-x="860" d="M23 27q0 -33 38 -33q27 0 70 6t102 6q47 0 83 -6t65 -6q33 0 33 33q0 14 -5.5 19t-15.5 8t-24.5 7.5t-30.5 14.5q-14 8 -17.5 19t-3.5 28v301q0 27 15 27q18 0 41 -39l172 -287q6 -12 11 -21.5t5 -19.5q0 -16 -12 -20.5t-27.5 -7.5t-28 -9t-12.5 -22q0 -20 8.5 -26.5 t24.5 -6.5q23 0 69 6t115 6q63 0 104.5 -6t59.5 -6q35 0 35 31q0 27 -21.5 29.5t-44.5 13.5q-31 12 -53 43.5t-51 76.5l-233 363q-2 4 -4.5 7t-2.5 7q0 12 15 25l186 174q45 43 78 58.5t53.5 21.5t29.5 9t9 21t-7 23.5t-28 5.5q-16 0 -45.5 -6t-77.5 -6q-66 0 -105.5 7 t-55.5 7q-18 0 -24.5 -6t-6.5 -23q0 -20 14.5 -26t32.5 -9t32.5 -9.5t14.5 -26.5q0 -23 -24 -43l-248 -242q-4 -4 -11 -4q-2 0 -2 2v727q0 37 2.5 72t2.5 67q0 18 -4.5 28.5t-20.5 10.5q-10 0 -44 -23.5t-106 -49.5q-39 -14 -66.5 -21.5t-27.5 -30.5q0 -12 14.5 -18 t32 -13.5t31.5 -19.5t14 -39v-1050q0 -35 -7 -53.5t-36 -32.5q-18 -8 -32.5 -10.5t-24.5 -5.5t-16 -8t-6 -19z" />
<glyph unicode="l" horiz-adv-x="462" d="M27 27q0 -33 36 -33q29 0 71 6t95 6q51 0 96.5 -6t80.5 -6q40 0 40 28q0 19 -8 26t-21.5 9t-29.5 3t-33 10q-39 18 -39 86v1087q0 43 3.5 78t3.5 61q0 18 -4.5 28.5t-20.5 10.5q-10 0 -44 -23.5t-106 -49.5q-37 -14 -64.5 -21.5t-27.5 -30.5q0 -12 13.5 -18t31 -12 t30.5 -18.5t13 -39.5v-1065q0 -31 -6 -48t-35 -27q-33 -12 -55 -13q-20 0 -20 -28z" />
<glyph unicode="m" horiz-adv-x="1409" d="M41 27q0 -35 33 -35q23 0 59.5 7t89.5 7q51 0 92 -7t72 -7q37 0 37 33q0 14 -7 20t-18.5 9t-27 5t-31.5 11q-18 10 -24.5 28.5t-6.5 55.5v446q0 111 43 164t115 53q90 0 122 -81t32 -240v-342q0 -41 -7.5 -58.5t-29.5 -29.5q-12 -6 -22.5 -7.5t-20 -3.5t-14.5 -8t-5 -20 q0 -35 33 -35q23 0 59.5 7t90.5 7q49 0 91 -7t72 -7q37 0 37 33q0 14 -7 20t-18.5 9t-26.5 5t-32 11q-18 10 -23 28.5t-5 55.5v446q0 111 43 164t112 53q92 0 122 -82t30 -239v-342q0 -39 -6.5 -58.5t-28.5 -29.5q-12 -6 -23.5 -8.5t-19.5 -4.5t-13 -7t-5 -19q0 -35 32 -35 q23 0 60 7t90 7q51 0 92 -7t72 -7q36 0 36 31q0 16 -7 22t-18 9t-26.5 5t-31.5 11q-18 10 -24.5 28.5t-6.5 55.5v483q0 137 -65.5 219t-170.5 82q-152 0 -252 -162h-10q-41 72 -94 117t-137 45q-57 0 -109.5 -28.5t-91.5 -82.5l-20 -26q-10 -12 -15 -13q-6 0 -6 27v86 q0 18 -4 30.5t-10 12.5t-16.5 -9t-26 -24.5t-39 -36t-58.5 -40.5q-41 -23 -70.5 -35.5t-29.5 -38.5q0 -18 14.5 -20.5t31 -6.5t30.5 -23.5t14 -72.5v-483q0 -39 -6 -58.5t-29 -29.5q-12 -6 -23 -8.5t-19.5 -4.5t-13.5 -7t-5 -19z" />
<glyph unicode="n" horiz-adv-x="974" d="M53 27q0 -35 33 -35q23 0 59.5 7t90.5 7q51 0 92 -7t69 -7q37 0 37 31q0 18 -6 24t-17.5 8t-25.5 3t-33 12q-20 10 -25 29.5t-5 54.5v444q0 111 49 164t127 53q84 0 129 -62.5t45 -185.5v-413q0 -37 -4 -56.5t-29 -31.5q-12 -6 -23.5 -7.5t-20.5 -3.5t-14.5 -8t-5.5 -20 q0 -35 33 -35q20 0 58.5 7t91.5 7t94 -7t70 -7q36 0 36 31q0 18 -7 24t-19 8t-27.5 4t-30.5 11q-31 20 -30 84v440q0 170 -71 257t-198 87q-61 0 -117.5 -28.5t-99.5 -82.5l-22 -26q-10 -12 -17 -13q-6 0 -6 27v84q0 23 -6 33t-12 10q-18 0 -43 -32.5t-84 -67.5 q-51 -31 -78 -46.5t-27 -35.5t13.5 -21.5t30 -5.5t30 -22.5t13.5 -73.5v-483q0 -41 -6.5 -59.5t-28.5 -28.5q-12 -6 -23.5 -7.5t-20 -3.5t-13.5 -8t-5 -20z" />
<glyph unicode="o" horiz-adv-x="952" d="M49 451q0 -109 30 -199t84 -154.5t130 -100.5t168 -36q102 0 184 35t138.5 98.5t87 153.5t30.5 198q0 111 -29.5 201t-84 154.5t-132 100.5t-172.5 36q-98 0 -178 -35t-137 -98.5t-88 -153t-31 -200.5zM231 479q0 193 63.5 297.5t180.5 104.5q109 0 177.5 -122t68.5 -339 q0 -190 -64.5 -296t-177.5 -106q-111 0 -179.5 122t-68.5 339z" />
<glyph unicode="p" horiz-adv-x="978" d="M27 -418q0 -33 36 -33q29 0 70 6.5t94 6.5t99.5 -6.5t87.5 -6.5q43 0 43 29q0 18 -8.5 24.5t-21.5 8.5t-32.5 4t-40.5 12q-25 10 -31 28.5t-6 55.5l2 291l9 6q82 -47 178 -47q92 0 168 38t131 106.5t86 162.5t31 209q0 104 -27 190.5t-72 145.5t-106.5 92t-128.5 33 q-66 0 -121 -27.5t-109 -89.5l-20 -24q-10 -10 -16 -11q-6 0 -7 15v100q0 43 -20 43q-16 0 -43 -30.5t-86 -71.5q-47 -33 -79 -44.5t-32 -35.5q0 -20 14.5 -21.5t32 -6.5t31.5 -23.5t14 -73.5v-926q0 -41 -9 -59.5t-36 -28.5q-31 -12 -53 -12q-23 0 -22 -29zM319 215v381 q0 102 38 152.5t124 50.5q117 0 194 -100.5t77 -282.5q0 -86 -19.5 -159t-55.5 -125t-85 -80.5t-109 -28.5q-78 0 -121 47t-43 145z" />
<glyph unicode="q" horiz-adv-x="925" d="M49 434q0 -109 30 -196.5t82 -149t119.5 -94.5t145.5 -33q94 0 215 74l12 -8v-316q0 -39 -7 -55t-42 -29q-43 -16 -67 -16q-25 0 -25 -29q0 -33 43 -33q35 0 83 8.5t101 8.5q55 0 97.5 -8.5t70.5 -8.5q37 0 37 33q0 14 -7 20.5t-18.5 9.5t-28 6t-34.5 13q-23 12 -27 31 t-4 49v891q0 137 8.5 221t8.5 117q0 20 -7.5 28.5t-17.5 8.5q-12 0 -22.5 -16.5t-21.5 -36t-22.5 -36t-27.5 -16.5q-14 0 -35.5 10.5t-51.5 23t-69 22.5t-90 10q-92 0 -170 -37t-135 -104.5t-90 -159.5t-33 -203zM236 440q0 100 20 182.5t55 138.5t82 87t101 31 q159 0 159 -215v-484q0 -123 -127 -123q-135 0 -212.5 100.5t-77.5 282.5z" />
<glyph unicode="r" horiz-adv-x="634" d="M27 27q0 -33 36 -33q33 0 75 6t91 6q53 0 101.5 -7t89.5 -7q23 0 34 9t11 22q0 16 -8 22t-21.5 9t-34 6t-45.5 16q-25 10 -33 27.5t-8 52.5v444q0 193 76 193q16 0 32.5 -15.5t35 -34t41 -34t53.5 -15.5q39 0 66.5 29t27.5 74q0 61 -39 102t-94 41q-74 0 -139 -78 l-41 -45q-14 -14 -19 -14q-6 0 -6 18v80q0 43 -20 43q-18 0 -46 -33.5t-87 -74.5q-43 -29 -70 -40.5t-27 -33.5q0 -18 13.5 -21.5t29 -7.5t28.5 -16t13 -49v-525q0 -29 -5 -44t-34 -29q-16 -8 -30.5 -10.5t-24.5 -5.5t-16 -8t-6 -19z" />
<glyph unicode="s" horiz-adv-x="671" d="M59 82q0 -29 4.5 -45.5t22.5 -26.5q29 -18 84 -33.5t125 -15.5t128 22.5t101 64.5t66.5 103.5t23.5 139.5q0 100 -47 166.5t-147 120.5q-47 25 -85 44t-64.5 39.5t-41 44t-14.5 58.5q0 53 36 87t95 34q84 0 135 -88q25 -43 29 -72t27 -29q20 0 26 34t6 106q0 53 -47 77.5 t-176 24.5q-123 0 -201.5 -75t-78.5 -201q0 -51 13 -89t39.5 -68t65.5 -55.5t90 -52.5q45 -25 82 -46t62.5 -44.5t39 -53.5t13.5 -69q0 -76 -42 -121t-107 -45q-106 0 -164 125q-16 35 -23.5 62.5t-12.5 47t-11.5 30t-20.5 10.5q-23 0 -27 -38t-4 -122v-51z" />
<glyph unicode="t" horiz-adv-x="532" d="M33 838q0 -27 37 -27h36q20 0 24.5 -17.5t4.5 -45.5l-8 -441v-86q0 -260 164 -260q47 0 89 17.5t73.5 42t50 49t18.5 39.5q0 29 -20 28q-10 0 -21.5 -8t-26 -19.5t-31.5 -19.5t-40 -8q-47 0 -64.5 44t-17.5 140v518q0 27 25 27h155q18 0 22.5 6t4.5 23v41q0 12 -4 16 t-23 4h-153q-27 0 -27 27v125q0 23 -3 36t-17 13q-18 0 -42 -41t-73 -98q-29 -31 -52.5 -49.5t-42 -31t-28.5 -22.5t-10 -22z" />
<glyph unicode="u" horiz-adv-x="974" d="M18 879q0 -23 17.5 -27t39 -10t40 -24.5t18.5 -67.5v-476q0 -141 74 -224t196 -83q61 0 119 29t99 80l20 26q10 14 18 15q6 0 7 -29v-84q0 -43 24 -43q20 0 152 45q37 12 57.5 22.5t20.5 30.5t-14.5 21.5t-32 5.5t-32 21.5t-14.5 70.5v690q0 18 -5 26.5t-25 8.5 q-10 0 -27.5 -2t-46.5 -2q-53 0 -89 7t-56 7q-35 0 -35 -34q0 -16 7 -21.5t18.5 -8.5t26.5 -6t32 -14q18 -12 24 -28.5t6 -50.5v-445q0 -111 -50 -164t-130 -53t-126 62.5t-46 173.5v544q0 18 -5 26.5t-26 8.5q-10 0 -28.5 -3t-44.5 -3q-47 0 -83 7t-63 7q-37 0 -37 -32z " />
<glyph unicode="v" horiz-adv-x="755" d="M-29 877q0 -18 13.5 -22.5t34 -15t44 -38t43.5 -90.5l224 -688q8 -23 12 -35.5t23 -12.5q23 0 38 45l238 654q29 76 50.5 112.5t56.5 51.5q25 10 45 10t20 29q0 16 -5 20t-24 4q-8 0 -35.5 -3t-80.5 -3q-63 0 -104.5 4t-57.5 4q-20 0 -27.5 -4t-7.5 -22q0 -20 19.5 -24.5 t42 -9.5t42 -16.5t19.5 -44.5q0 -14 -5 -44.5t-20 -73.5l-127 -381q-4 -12 -10 -13q-10 0 -12 13l-123 395q-14 47 -19.5 78.5t-5.5 46.5q0 23 15.5 31t34 12t34 9t15.5 24q0 23 -25 22q-10 0 -55 -5t-131 -5q-68 0 -107 6t-53 6q-29 0 -29 -26z" />
<glyph unicode="w" horiz-adv-x="1239" d="M-31 877q0 -16 13.5 -22.5t32 -16t38 -26.5t33.5 -54l268 -735q8 -23 14.5 -35.5t22.5 -12.5t23.5 11.5t15.5 33.5l195 500l190 -497q8 -23 13.5 -35.5t23.5 -12.5q23 0 39 45l233 654q29 76 51.5 114.5t55.5 49.5q29 10 47 10t18 29q0 16 -4 20t-20 4q-12 0 -49 -4 t-99 -4q-51 0 -87 4t-58 4q-14 0 -19.5 -5t-5.5 -22q0 -18 19.5 -22t42 -9t42 -16.5t19.5 -42.5q0 -14 -5 -44.5t-21 -75.5l-123 -381q-8 -23 -17 -23q-10 0 -16 14l-147 404q-16 45 -23.5 76.5t-7.5 48.5q0 23 19.5 31t42 12t42 10t19.5 23q0 24 -32 24h-3q-16 0 -58 -6 t-112 -6h-359q-123 0 -192.5 5t-89.5 5q-16 0 -20.5 -4t-4.5 -20zM268 778q0 31 32 49.5t87 18.5q88 0 129 -53q12 -16 23.5 -41t20.5 -50.5t15.5 -47t6.5 -29.5q0 -29 -9.5 -55.5t-19.5 -57.5l-86 -238q-6 -18 -12 -18t-13 14l-161 441q-12 33 -13 67z" />
<glyph unicode="x" horiz-adv-x="823" d="M-37 25q0 -27 35 -27q16 0 46 4t77 4q53 0 96 -4t78 -4q39 0 39 27q0 20 -17.5 26t-38 9t-38 9.5t-17.5 28.5q0 10 9.5 37t31.5 62l90 139q8 14 17 14q8 0 20 -18l94 -158q16 -27 25.5 -43t9.5 -27q0 -20 -17.5 -27t-38 -12.5t-37.5 -12.5t-17 -25q0 -29 41 -29 q12 0 55 5t121 5q88 0 134 -4t56 -4q31 0 31 27q0 20 -10.5 24t-30 15.5t-50 38t-71.5 92.5l-188 301q-2 4 -2 12q0 23 10 35l86 123q45 63 80 101t73 54q20 8 38 10.5t32 5.5t22.5 9t8.5 22q0 18 -9.5 24.5t-25.5 5.5q-20 0 -49 -2.5t-68 -2.5h-28q-47 0 -84 3t-60 2 q-27 0 -26 -26q0 -18 12 -24t27.5 -10t29 -10.5t13.5 -24.5q0 -29 -19 -55l-92 -142q-12 -18 -18 -18q-8 0 -19 18l-94 158q-12 20 -12 31q0 18 13 26t30.5 12.5t31 12.5t13.5 26t-6.5 23.5t-26.5 5.5q-10 0 -50 -6t-108 -6q-92 0 -146.5 5t-66.5 4q-33 0 -33 -26 q0 -23 10.5 -25.5t31 -11t50 -31t70.5 -81.5l180 -270q8 -12 9 -27q0 -16 -11 -31l-79 -121q-55 -86 -100.5 -134t-69.5 -62q-18 -10 -37 -13.5t-33 -6.5t-23.5 -10t-9.5 -25z" />
<glyph unicode="y" horiz-adv-x="755" d="M-45 877q0 -14 7 -20.5t18.5 -10.5t25.5 -8t29 -15q27 -18 48 -65t46 -123l168 -514q16 -53 23.5 -88t7.5 -45q0 -27 -15 -64l-43 -119q-18 -51 -37.5 -60t-50.5 -9h-8q-57 0 -74.5 -25.5t-17.5 -87.5q0 -74 78 -74q37 0 58.5 6.5t34.5 21.5t21.5 39t18.5 60 q16 49 62 202t143 409l168 450q20 57 44.5 78t44 27t33 9t13.5 26q0 16 -2 20t-19 4q-16 0 -49 -3t-82 -3q-57 0 -92 3t-51 3q-14 0 -19.5 -3t-5.5 -19q0 -23 17.5 -30t39 -12.5t40 -15.5t18.5 -39q0 -8 -6 -42.5t-21 -75.5l-125 -351q-10 -25 -16 -24q-8 0 -16 24l-115 365 q-16 47 -20.5 80t-4.5 45q0 18 15.5 24.5t34 11.5t34 12t15.5 28q0 22 -23 22h-2q-8 0 -49 -4t-119 -4t-125 4t-63 4q-18 0 -26.5 -4t-8.5 -20z" />
<glyph unicode="z" horiz-adv-x="737" d="M-2 14q0 -18 35 -18q6 0 37.5 2t95.5 2h366q37 0 67 -4t54 -4q27 0 33 8t6 25q0 10 -1 21t-1 22q0 49 3 90t3 75q0 35 -22 35q-16 0 -24.5 -15t-15.5 -37.5t-19.5 -48.5t-32.5 -44q-68 -59 -242 -60h-90q-4 0 -7 6.5t-3 12.5q0 10 8 20l444 729q23 39 23 52q0 10 -9.5 19 t-23.5 9q-29 0 -77 -5t-113 -5h-181q-20 -2 -37.5 -3t-31.5 -1q-66 0 -82 27q-4 6 -6 17t-2.5 20.5t-6.5 16.5t-16 7q-20 0 -29.5 -29.5t-32 -89t-30.5 -93.5t-8 -44q0 -29 20 -29q12 0 20.5 10.5t17.5 26t20.5 32.5t27.5 30q37 29 93.5 35t136.5 6h106q14 0 14 -17 q0 -4 -4 -12l-461 -743q-23 -39 -22 -54z" />
<glyph unicode="{" d="M176 606q84 -6 138.5 -23.5t86 -51t44 -87t12.5 -129.5v-213q0 -98 17.5 -163.5t61.5 -106.5t116.5 -58.5t183.5 -17.5h10v51q-76 0 -124 14.5t-74.5 45.5t-37 80t-10.5 123v143q0 98 -9 170t-40 122t-87 80.5t-151 49.5q94 18 150.5 49t87.5 81t40 121.5t9 170.5v143 q0 74 10.5 124t37 81t74.5 45t124 14v52h-10q-111 0 -183.5 -17.5t-116.5 -58.5t-61.5 -106.5t-17.5 -164.5v-213q0 -78 -12.5 -129t-44 -84.5t-86 -51t-138.5 -25.5v-60z" />
<glyph unicode="|" d="M449 -483h126v2048h-126v-2048z" />
<glyph unicode="}" d="M178 -193v-51h10q111 0 183.5 17.5t115.5 58.5t61.5 106.5t18.5 163.5v213q0 76 12.5 129.5t44 87t86 51t138.5 23.5v60q-84 8 -138.5 25.5t-86 51t-44 85t-12.5 128.5v213q0 98 -18.5 164t-61.5 107t-115.5 58.5t-183.5 17.5h-10v-52q76 0 124 -14t74.5 -45t37 -81 t10.5 -124v-143q0 -98 9 -170t40 -122t87 -81t151 -49q-94 -18 -150.5 -49t-87.5 -81t-40 -122t-9 -170v-143q0 -74 -10.5 -123t-37 -80t-74.5 -45.5t-124 -14.5z" />
<glyph unicode="~" horiz-adv-x="1705" d="M178 461q111 78 202 119t183 41q96 0 189.5 -34t199.5 -69q104 -35 191 -35q186 0 387 144v131q-109 -76 -201 -116t-184 -40q-78 0 -146.5 22.5t-142.5 49.5q-70 25 -140.5 45t-150.5 20q-176 0 -387 -145v-133z" />
<glyph unicode="&#xa1;" horiz-adv-x="493" d="M143 115q0 -61 28 -94t75 -33t75.5 32.5t28.5 85.5q0 35 -6 95.5t-16 152.5l-56 553q-4 23 -8 37t-18 14t-17.5 -14t-7.5 -37l-55 -553q-10 -98 -16.5 -157.5t-6.5 -81.5zM158 1190q0 -47 27.5 -79t62.5 -32t61.5 32t26.5 79t-26.5 77.5t-61.5 30.5t-62.5 -30.5 t-27.5 -77.5z" />
<glyph unicode="&#xa2;" horiz-adv-x="894" d="M152 666q0 -164 77.5 -263.5t204.5 -113.5v-289h45v289q49 2 90 18.5t71 37t45 42t15 35.5q0 10 -8 19.5t-14 9.5q-4 0 -14.5 -11.5t-29 -25t-44 -24.5t-58.5 -11q-10 0 -23 2t-30 6v627q39 -6 62.5 -37t39 -64.5t28 -60.5t32.5 -27t32.5 36t12.5 89q0 96 -207 107v233 h-45v-239q-131 -23 -206.5 -124.5t-75.5 -260.5zM301 700q0 113 36 191t97 113v-598q-133 76 -133 294z" />
<glyph unicode="&#xa3;" horiz-adv-x="894" d="M8 139q0 -72 44 -117t116 -45q119 0 227 146q57 -74 103.5 -112t93.5 -38t94 35t84 87t60.5 114.5t23.5 118.5q0 70 -27.5 107.5t-68.5 37.5q-33 0 -53.5 -26.5t-20.5 -63.5q0 -35 14.5 -56.5t32 -37t31.5 -30.5t14 -36q0 -27 -22.5 -47t-51.5 -20q-23 0 -79 20.5 t-142 67.5q29 63 45.5 120.5t16.5 120.5q0 10 -2 35t-9 64h160q27 25 27 65v10h-223q-76 143 -123 246t-47 185q0 70 41 117.5t96 47.5q37 0 62.5 -27.5t45 -60t36 -60.5t34.5 -28q12 0 24.5 12.5t22.5 31t16.5 41t6.5 44.5q0 53 -52.5 80t-134.5 27q-72 0 -134 -27.5 t-110.5 -76t-76 -113t-27.5 -137.5q0 -70 25.5 -143t72.5 -159h-147q-23 -39 -23 -67v-8h209q80 -135 80 -238q0 -31 -12 -67q-49 23 -91 36t-77 13q-86 0 -145.5 -54.5t-59.5 -134.5zM160 164q0 45 19.5 70.5t49.5 25.5q29 0 58.5 -23.5t64.5 -70.5q-23 -47 -53.5 -71.5 t-58.5 -24.5q-33 0 -56.5 28.5t-23.5 65.5z" />
<glyph unicode="&#xa4;" horiz-adv-x="1241" d="M86 424l72 -74l207 207q113 -88 256 -88q147 0 260 88l204 -207l72 74l-205 205q86 113 86 256q0 141 -86 256l205 205l-72 73l-204 -207q-119 90 -260 91q-72 0 -134.5 -23t-121.5 -68l-207 207l-72 -73l207 -205q-88 -117 -88 -256t88 -256zM309 887q0 63 24.5 120.5 t66.5 100.5t99.5 67.5t123.5 24.5t123 -24.5t99 -67.5t66.5 -100.5t24.5 -120.5q0 -66 -24.5 -123t-66.5 -100t-99.5 -68t-122.5 -25q-66 0 -123.5 25t-99.5 68t-66.5 100t-24.5 123z" />
<glyph unicode="&#xa5;" horiz-adv-x="1095" d="M8 1260q0 -14 8.5 -18.5t21.5 -5.5t28.5 -3t29.5 -12q16 -10 45 -50.5t68 -111.5l108 -201h-272v-65h307l86 -158h-393v-64h422q4 -14 6 -23t2 -13v-342q0 -33 -1 -54.5t-7 -35t-19.5 -21.5t-37.5 -14q-14 -4 -29 -5q-14 0 -25.5 -2t-18.5 -8t-7 -20q0 -33 45 -33 q18 0 66 6t128 6q61 0 103.5 -6t66.5 -6q45 0 45 29q0 16 -8 23t-20.5 9t-28.5 2t-35 7q-20 6 -30.5 14t-15.5 21.5t-6 34t-1 53.5v378h424v64h-404l84 158h320v65h-285l117 219q33 61 57.5 97t57.5 47q31 10 53 10q23 0 22 31q0 25 -28 24q-6 0 -38 -4t-95 -4q-47 0 -82 6 t-58 6q-33 0 -32 -24q0 -23 17 -28t38.5 -8t40 -11.5t18.5 -34.5q0 -6 -6 -27.5t-22 -52.5l-205 -406q-10 -18 -12 -18q-10 0 -17 14l-235 439q-14 27 -15 49q0 23 15.5 30t35 11t35 10t15.5 27q0 27 -27 26q-10 0 -46 -4t-101 -4q-88 0 -145.5 6t-86.5 6q-18 0 -29.5 -9 t-11.5 -21z" />
<glyph unicode="&#xa6;" d="M449 -350h126v758h-126v-758zM449 674h126v758h-126v-758z" />
<glyph unicode="&#xa7;" horiz-adv-x="819" d="M109 526q0 -78 35.5 -147.5t105.5 -142.5l143 -156q66 -72 104 -130.5t38 -119.5q0 -68 -42 -112t-110 -44q-59 0 -91 21.5t-32 46.5q0 12 8 22.5t17.5 23.5t17.5 30.5t8 42.5q0 39 -22.5 62.5t-52.5 23.5q-35 0 -57.5 -30t-22.5 -83q0 -41 16 -78t47 -64.5t73 -45 t93 -17.5q53 0 99 19.5t79 53.5t51.5 80t18.5 99q0 76 -40 149.5t-120 151.5q6 0 11 -1t12 -1q92 0 153.5 71t61.5 179q0 74 -35 145.5t-105 145.5l-141 149q-66 72 -105.5 130.5t-39.5 127.5q0 70 37.5 113t97.5 43q47 0 79.5 -23.5t32.5 -48.5q0 -12 -8 -25t-18 -26.5 t-18.5 -31t-8.5 -37.5q0 -35 21.5 -57.5t52.5 -22.5q35 0 58.5 27.5t23.5 78.5q0 90 -61.5 149.5t-151.5 59.5q-109 0 -172.5 -72.5t-63.5 -183.5q0 -82 40 -151.5t116 -147.5h-18q-45 0 -84 -19.5t-69 -52t-46 -77.5t-16 -97zM201 578q0 66 38 109.5t93 43.5q43 0 80 -33.5 t92 -95.5q115 -127 114 -225q0 -66 -38.5 -108t-92.5 -42q-43 0 -89 42t-109 122q-43 53 -65.5 98.5t-22.5 88.5z" />
<glyph unicode="&#xa8;" d="M223 1204q0 -43 29 -71.5t70 -28.5t70.5 28.5t29.5 71.5q0 41 -30 71t-70 30q-41 0 -70 -30t-29 -71zM604 1204q0 -43 29 -71.5t69 -28.5q41 0 71 28.5t30 71.5q0 41 -30 71t-71 30t-69.5 -30t-28.5 -71z" />
<glyph unicode="&#xa9;" horiz-adv-x="1683" d="M139 678q0 -143 52.5 -270t154.5 -228q102 -102 228 -153.5t268 -51.5q143 0 270 52.5t225 152.5q102 104 154.5 231.5t52.5 266.5q0 141 -54 271t-152.5 228.5t-227.5 151.5t-266 53q-141 0 -271.5 -53t-228.5 -153q-100 -102 -152.5 -229.5t-52.5 -268.5zM225 678 q0 125 46 237.5t135 202.5q86 88 200.5 136.5t237.5 48.5q121 0 234.5 -48.5t199.5 -134.5t133 -202.5t47 -239.5t-46 -235.5t-136 -204.5q-88 -90 -197.5 -135.5t-236.5 -45.5q-254 0 -434 181q-88 88 -135.5 200.5t-47.5 239.5zM426 664q0 -86 31.5 -163t86 -134.5 t128 -90t157.5 -32.5q225 0 342 209l-34 24q-113 -174 -283 -174q-266 0 -266 381q0 373 248 373q213 0 280 -275h41l-2 314h-35q-12 -61 -63 -62q-14 0 -33.5 10.5t-47.5 23.5t-65 23.5t-84 10.5q-84 0 -156.5 -33t-127 -91t-86 -139t-31.5 -175z" />
<glyph unicode="&#xaa;" horiz-adv-x="585" d="M45 1114q0 -10 9 -17t20 -7q47 0 67.5 25.5t36.5 60.5q23 45 45.5 70.5t63.5 25.5q39 0 49 -27.5t10 -87.5v-102q0 -16 -2 -22.5t-14 -12.5l-39 -19q-55 -27 -100.5 -52t-77 -55t-49 -65.5t-17.5 -83.5q0 -53 29.5 -83.5t79.5 -30.5q43 0 77.5 21.5t75.5 54.5l33 24h8 q35 -96 109 -96q18 0 40.5 11t42 26.5t33 33t13.5 27.5q0 23 -19 23q-14 0 -27.5 -14.5t-29.5 -14.5q-27 0 -33 22.5t-6 67.5v334q0 39 -5 69.5t-20.5 52t-45 32t-78.5 10.5q-59 0 -110.5 -19.5t-88.5 -49t-58.5 -64.5t-21.5 -68zM182 807q0 100 92 143l50 25q8 4 16 4 t8 -16v-113q0 -57 -36 -92t-70 -35q-27 0 -43.5 21.5t-16.5 62.5z" />
<glyph unicode="&#xab;" horiz-adv-x="671" d="M49 451q0 -12 15.5 -28.5t43 -40.5t65.5 -57.5t81 -80.5q39 -43 56.5 -73t39.5 -30q12 0 12 17q0 18 -10 40.5t-26 55.5l-107 197l107 196q16 31 26 54.5t10 41.5q0 16 -12 17q-23 0 -45 -36t-78 -95q-78 -80 -128 -118t-50 -60zM315 451q0 -12 15.5 -28.5t43 -40.5 t65.5 -57.5t81 -82.5q39 -43 56.5 -72t39.5 -29q14 0 15 21q0 20 -39 92l-107 197l107 196q39 72 39 92t-15 21q-23 0 -45 -36t-77 -95q-76 -80 -127.5 -118t-51.5 -60z" />
<glyph unicode="&#xac;" horiz-adv-x="1705" d="M254 741h1083v-385h115v502h-1198v-117z" />
<glyph unicode="&#xad;" horiz-adv-x="454" d="M31 367q0 -10 14 -11h313q6 0 14.5 7.5t12.5 19.5l37 137q2 8 2 15q0 10 -14 10h-314q-6 0 -14 -7.5t-12 -19.5l-35 -137q-4 -16 -4 -14z" />
<glyph unicode="&#xae;" horiz-adv-x="1683" d="M139 678q0 -143 52.5 -270t155 -227.5t227 -153t262.5 -52.5q147 0 272 51.5t223 149.5q104 104 158.5 234.5t54.5 265.5q0 141 -52 271t-150.5 228.5t-228.5 152.5t-269 54q-141 0 -271.5 -53t-228.5 -153q-100 -102 -152.5 -229.5t-52.5 -268.5zM225 678 q0 125 46 237.5t135 202.5q88 88 201.5 136.5t236.5 48.5q121 0 234.5 -48.5t199.5 -134.5t133 -202.5t47 -239.5t-46 -235.5t-136 -204.5q-88 -90 -197.5 -135.5t-236.5 -45.5q-254 0 -434 181q-182 182 -183 440zM469 291h385v41q-72 4 -98.5 24.5t-26.5 75.5v248h33 q168 0 207 -133q6 -23 7 -47.5t2 -52t5 -55t16 -54.5q33 -66 127 -66q160 0 160 179v12h-43q0 -133 -67 -133q-25 0 -35.5 12t-15.5 33.5t-8 48.5t-11 57q-23 86 -71 134.5t-142 76.5q147 27 217 74t70 125q0 90 -82 145.5t-236 55.5h-393v-43q72 -4 99.5 -23.5t27.5 -77.5 v-516q0 -55 -27.5 -76.5t-99.5 -23.5v-41zM729 719v262q0 72 105 72q96 0 146 -46t50 -116q0 -82 -59.5 -128t-175.5 -46h-25q-16 0 -41 2z" />
<glyph unicode="&#xaf;" d="M305 1141h414v127h-414v-127z" />
<glyph unicode="&#xb0;" horiz-adv-x="673" d="M55 1171q0 -59 21.5 -110t59.5 -90t89 -60.5t111 -21.5q59 0 111.5 22.5t90 61.5t60.5 90t23 108t-23 109.5t-60.5 90.5t-90 60.5t-109.5 22.5q-59 0 -110.5 -21.5t-89.5 -59.5t-60.5 -90t-22.5 -112zM135 1171q0 86 59.5 143.5t143.5 57.5q86 0 143.5 -58.5t57.5 -142.5 q0 -41 -15.5 -77.5t-42 -64.5t-63.5 -44t-80 -16q-41 0 -78 15t-64.5 43t-44 64.5t-16.5 79.5z" />
<glyph unicode="&#xb1;" horiz-adv-x="1705" d="M254 41h1198v117h-1198v-117zM254 719h541v-344h118v344h539v117h-539v344h-118v-344h-541v-117z" />
<glyph unicode="&#xb2;" horiz-adv-x="589" d="M47 539q0 -25 31 -25q4 0 9 1t9 1h369q33 0 40 7t7 40v117q0 16 -1 26.5t-11 10.5q-18 0 -22.5 -19.5t-14.5 -38.5q-10 -23 -70 -22h-213q-18 0 -18 4l8 12l29 33q92 98 153.5 154.5t87.5 85.5q74 90 74 184q0 88 -60.5 144.5t-154.5 56.5q-53 0 -97 -21.5t-75 -50.5 t-48.5 -58.5t-17.5 -45.5q0 -14 13 -15q16 0 25.5 16.5t27.5 39.5q29 37 59.5 56t69.5 19q55 0 93 -43t38 -114q0 -61 -35 -123t-96 -144l-176 -233q-14 -18 -23.5 -30.5t-9.5 -24.5z" />
<glyph unicode="&#xb3;" horiz-adv-x="589" d="M51 485q0 -72 121 -71q59 0 126 31.5t126 93.5q100 106 100 231q0 158 -129 209q-53 20 -87 18t-34 7q0 6 29 17t68 40q37 29 54 57.5t17 69.5q0 53 -45 88t-123 35q-47 0 -85.5 -14.5t-66.5 -35t-42 -43t-14 -36.5q0 -18 12 -19q12 0 17 12.5t22 30.5q27 29 52.5 43.5 t59.5 14.5q41 0 69 -28t28 -73q0 -53 -40 -96t-106 -92q-53 -39 -82.5 -56.5t-29.5 -35.5q0 -12 14 -13q10 0 42 17.5t91 17.5q94 0 147.5 -53t53.5 -147q0 -59 -19.5 -105.5t-48.5 -77t-61.5 -47t-57.5 -16.5q-18 0 -34.5 12t-30.5 26.5t-29.5 27t-34.5 12.5q-49 0 -49 -52 z" />
<glyph unicode="&#xb4;" d="M371 1049h53l264 206q49 37 49 82q0 33 -17.5 52.5t-39.5 19.5q-23 0 -39 -15.5t-39 -43.5z" />
<glyph unicode="&#xb6;" d="M76 1130q0 -150 99 -244.5t276 -103.5v-782h94v1401h184v-1401h94v1401h125v78h-479q-90 0 -163 -26t-124 -72t-78.5 -110.5t-27.5 -140.5z" />
<glyph unicode="&#xb7;" horiz-adv-x="448" d="M139 645q0 -47 24.5 -77.5t59.5 -30.5t60.5 30.5t25.5 77.5t-25.5 77t-60.5 30t-59.5 -30t-24.5 -77z" />
<glyph unicode="&#xb8;" d="M322 -371q68 -35 124 -55t111 -20q84 0 129 47t45 129q0 76 -38 120t-101 44q-18 0 -55 -7v113h-52v-190q18 4 30.5 6t21.5 2q43 0 66.5 -24.5t23.5 -65.5q0 -92 -99 -93q-29 0 -77 16.5t-101 55.5z" />
<glyph unicode="&#xb9;" horiz-adv-x="589" d="M111 1184q0 -16 18 -17q23 0 55.5 17.5t59.5 17.5q14 0 16 -15.5t2 -51.5v-478q0 -47 -8 -69.5t-41 -26.5q-37 -6 -60.5 -4t-23.5 -20q0 -20 25 -21q16 0 52 4t93 4q98 0 144 -5t53 -5q20 0 20 21q0 12 -9 16t-23.5 5t-32.5 1q-16 0 -31 6q-23 10 -29 36t-6 69v551 q0 23 2 39t2 28q0 23 -16 23q-8 0 -41 -21.5t-119 -50.5q-45 -16 -73.5 -25.5t-28.5 -27.5z" />
<glyph unicode="&#xba;" horiz-adv-x="714" d="M37 973q0 -76 22.5 -139.5t63.5 -108.5t97 -69.5t126 -24.5q154 0 242 93t88 247q0 76 -22.5 139.5t-63.5 109.5t-98.5 70.5t-129.5 24.5q-147 0 -236 -93t-89 -249zM174 993q0 135 48 208t134 73q82 0 133.5 -86t51.5 -238q0 -133 -48.5 -206.5t-132.5 -73.5t-135 86 t-51 237z" />
<glyph unicode="&#xbb;" horiz-adv-x="671" d="M41 162q0 -20 12 -21q23 0 45.5 36t77.5 95q78 80 128 118t50 61q0 12 -13 25t-36.5 33.5t-57.5 50.5t-73 71q-55 57 -76.5 93t-44.5 36q-12 0 -12 -21q0 -25 37 -92l106 -196l-106 -197q-37 -66 -37 -92zM307 162q0 -20 12 -21q23 0 46.5 36t78.5 95q78 80 128.5 118 t50.5 61q0 12 -13.5 26.5t-38 34.5t-57.5 49t-72 70q-55 57 -77.5 93t-45.5 36q-12 0 -12 -21q0 -25 39 -92l107 -196l-107 -197q-39 -68 -39 -92z" />
<glyph unicode="&#xbc;" horiz-adv-x="1400" d="M104 1190q0 -14 19 -14q23 0 53.5 16t54.5 16q14 0 16.5 -14t2.5 -49v-447q0 -43 -7 -64.5t-40 -25.5q-35 -4 -57.5 -3t-22.5 -17q0 -20 22 -21q16 0 51 3t89 3q94 0 138 -4t50 -4q18 0 19 19q0 12 -9.5 16t-23.5 4h-29q-16 0 -31 6q-23 10 -27.5 34t-4.5 65v514 q0 20 2 36.5t2 26.5q0 20 -17 21q-6 0 -37.5 -19.5t-113.5 -48.5q-43 -14 -71 -23.5t-28 -25.5zM289 -39h71l750 1366h-72zM864 258q0 -18 8.5 -22.5t24.5 -4.5h227q20 0 23.5 -4t3.5 -24v-90q0 -27 -5 -42.5t-24 -21.5q-41 -12 -59 -12t-19 -21q0 -16 17 -16q10 0 47 4 t106 4q37 0 64 -3t43 -3q23 0 22 18q0 10 -5 13.5t-12 4.5t-17.5 2t-22.5 5q-16 8 -19 20.5t-3 34.5v109q0 23 20 22h66q14 0 14 15v18q0 16 -16 17h-62q-16 0 -19 5t-3 17v238q0 18 -13 18q-2 0 -24.5 -6t-48.5 -21q-20 -10 -23.5 -18t-3.5 -20v-187q0 -16 -4 -21t-21 -5 h-180q-25 0 -24 10q0 6 14 25.5t41 54.5l67 90q129 168 203 249t74 95q0 10 -10 10h-19q-14 0 -26 -14l-359 -469q-18 -25 -30.5 -43.5t-12.5 -30.5z" />
<glyph unicode="&#xbd;" horiz-adv-x="1400" d="M104 1190q0 -14 19 -14q23 0 53.5 16t54.5 16q14 0 16.5 -14t2.5 -49v-447q0 -43 -7 -64.5t-40 -25.5q-35 -4 -57.5 -3t-22.5 -17q0 -20 22 -21q16 0 51 3t89 3q94 0 138 -4t50 -4q18 0 19 19q0 12 -9.5 16t-23.5 4h-29q-16 0 -31 6q-23 10 -27.5 34t-4.5 65v514 q0 20 2 36.5t2 26.5q0 20 -17 21q-6 0 -37.5 -19.5t-113.5 -48.5q-43 -14 -71 -23.5t-28 -25.5zM289 -39h71l750 1366h-72zM881 20q0 -23 28 -22q4 0 9.5 1t9.5 1h352q31 0 38 7t7 38v109q0 16 -2 25t-12 9q-16 0 -19.5 -18t-13.5 -37q-10 -20 -68 -20h-202q-16 0 -17 4 q0 4 6 10l29 31q86 92 145.5 145t83.5 80q72 84 72 170q0 84 -58.5 136t-148.5 52q-51 0 -93 -19.5t-71.5 -47t-46 -55t-16.5 -41.5t14 -15q12 0 21.5 15.5t27.5 37.5q57 70 123 70q53 0 90 -40t37 -107q0 -57 -33.5 -114.5t-91.5 -133.5l-170 -217q-31 -37 -30 -54z" />
<glyph unicode="&#xbe;" horiz-adv-x="1400" d="M49 539q0 -68 117 -68q55 0 118.5 29.5t118.5 87.5q96 100 97 215q0 150 -123 196q-51 20 -83 17.5t-32 5.5q0 6 27.5 17.5t64.5 37.5q68 47 68 117q0 49 -42 82t-118 33q-45 0 -82 -13.5t-62.5 -33t-40 -40t-14.5 -34.5q0 -16 11 -17q12 0 17 11.5t22 27.5 q25 29 49 42.5t57 13.5q39 0 65.5 -27t26.5 -68q0 -51 -37.5 -90t-101.5 -86q-51 -37 -80 -53t-29 -33q0 -12 15 -12q10 0 39.5 17.5t87.5 17.5q90 0 141 -50.5t51 -138.5q0 -55 -18.5 -98t-46 -71.5t-59 -44t-56.5 -15.5q-18 0 -32.5 11.5t-28 25.5t-27.5 25.5t-33 11.5 q-47 0 -47 -49zM289 -39h71l750 1366h-72zM864 258q0 -18 8.5 -22.5t24.5 -4.5h227q20 0 23.5 -4t3.5 -24v-90q0 -27 -5 -42.5t-24 -21.5q-41 -12 -59 -12t-19 -21q0 -16 17 -16q10 0 47 4t106 4q37 0 64 -3t43 -3q23 0 22 18q0 10 -5 13.5t-12 4.5t-17.5 2t-22.5 5 q-16 8 -19 20.5t-3 34.5v109q0 23 20 22h66q14 0 14 15v18q0 16 -16 17h-62q-16 0 -19 5t-3 17v238q0 18 -13 18q-2 0 -24.5 -6t-48.5 -21q-20 -10 -23.5 -18t-3.5 -20v-187q0 -16 -4 -21t-21 -5h-180q-25 0 -24 10q0 6 14 25.5t41 54.5l67 90q129 168 203 249t74 95 q0 10 -10 10h-19q-14 0 -26 -14l-359 -469q-18 -25 -30.5 -43.5t-12.5 -30.5z" />
<glyph unicode="&#xbf;" horiz-adv-x="561" d="M59 344q0 -80 22.5 -147.5t62.5 -115.5t96.5 -74.5t124.5 -26.5q72 0 104.5 20t32.5 70q0 66 -14.5 102.5t-34.5 36.5q-23 0 -42.5 -23.5t-40 -52.5t-45 -52.5t-59.5 -23.5q-41 0 -71.5 47.5t-30.5 124.5q0 78 42 136.5t118 130.5q45 41 74.5 70.5t29.5 74.5 q0 135 -15.5 219t-35.5 84q-18 0 -21.5 -16.5t-4.5 -41t-4 -53t-19 -53.5q-23 -31 -66 -64.5t-90 -86.5q-57 -66 -85 -133.5t-28 -151.5zM281 1178q0 -47 27.5 -78t62.5 -31t61.5 30.5t26.5 78.5q0 47 -26.5 77.5t-61.5 30.5t-62.5 -30.5t-27.5 -77.5z" />
<glyph unicode="&#xc0;" horiz-adv-x="940" d="M-76 23q0 -27 37 -27q23 0 56.5 5t78.5 5q66 0 111 -6t67 -6q35 0 35 24q0 23 -20.5 31t-61.5 14q-29 4 -41 14.5t-12 41.5q0 37 31 157l49 183q2 8 9 13t13 5h254q27 0 31 -16l80 -262q18 -66 18 -93q0 -29 -16 -39t-68 -10q-41 0 -40 -32q0 -25 34 -25q20 0 72.5 5 t138.5 5q61 0 103.5 -6t68.5 -6q43 0 43 29q0 18 -23.5 21t-51.5 24q-41 27 -59.5 69.5t-41.5 114.5l-309 975q-14 43 -20.5 69.5t-28.5 26.5q-16 0 -21.5 -13.5t-13.5 -35.5l-326 -1057q-16 -55 -30.5 -93t-42.5 -58q-16 -12 -34 -14.5t-33 -4.5t-25.5 -7t-10.5 -21z M248 1720q0 -39 49 -76l264 -206h53l-231 301q-23 29 -39 44t-39 15t-40 -20.5t-17 -57.5zM287 567v6q0 6 2 15l96 362q4 16 12 17q7 -1 13 -19l110 -356q4 -16 4 -21q0 -6 -6 -11t-12 -5h-205q-14 0 -14 12z" />
<glyph unicode="&#xc1;" horiz-adv-x="940" d="M-76 23q0 -27 37 -27q23 0 56.5 5t78.5 5q66 0 111 -6t67 -6q35 0 35 24q0 23 -20.5 31t-61.5 14q-29 4 -41 14.5t-12 41.5q0 37 31 157l49 183q2 8 9 13t13 5h254q27 0 31 -16l80 -262q18 -66 18 -93q0 -29 -16 -39t-68 -10q-41 0 -40 -32q0 -25 34 -25q20 0 72.5 5 t138.5 5q61 0 103.5 -6t68.5 -6q43 0 43 29q0 18 -23.5 21t-51.5 24q-41 27 -59.5 69.5t-41.5 114.5l-309 975q-14 43 -20.5 69.5t-28.5 26.5q-16 0 -21.5 -13.5t-13.5 -35.5l-326 -1057q-16 -55 -30.5 -93t-42.5 -58q-16 -12 -34 -14.5t-33 -4.5t-25.5 -7t-10.5 -21z M287 567v6q0 6 2 15l96 362q4 16 12 17q7 -1 13 -19l110 -356q4 -16 4 -21q0 -6 -6 -11t-12 -5h-205q-14 0 -14 12zM332 1438h53l264 206q49 37 49 82q0 33 -17.5 52.5t-39.5 19.5q-23 0 -39 -15.5t-39 -43.5z" />
<glyph unicode="&#xc2;" horiz-adv-x="940" d="M-76 23q0 -27 37 -27q23 0 56.5 5t78.5 5q66 0 111 -6t67 -6q35 0 35 24q0 23 -20.5 31t-61.5 14q-29 4 -41 14.5t-12 41.5q0 37 31 157l49 183q2 8 9 13t13 5h254q27 0 31 -16l80 -262q18 -66 18 -93q0 -29 -16 -39t-68 -10q-41 0 -40 -32q0 -25 34 -25q20 0 72.5 5 t138.5 5q61 0 103.5 -6t68.5 -6q43 0 43 29q0 18 -23.5 21t-51.5 24q-41 27 -59.5 69.5t-41.5 114.5l-309 975q-14 43 -20.5 69.5t-28.5 26.5q-16 0 -21.5 -13.5t-13.5 -35.5l-326 -1057q-16 -55 -30.5 -93t-42.5 -58q-16 -12 -34 -14.5t-33 -4.5t-25.5 -7t-10.5 -21z M240 1438h47l186 211l186 -211h47l-186 350h-94zM287 567v6q0 6 2 15l96 362q4 16 12 17q7 -1 13 -19l110 -356q4 -16 4 -21q0 -6 -6 -11t-12 -5h-205q-14 0 -14 12z" />
<glyph unicode="&#xc3;" horiz-adv-x="940" d="M-76 23q0 -27 37 -27q23 0 56.5 5t78.5 5q66 0 111 -6t67 -6q35 0 35 24q0 23 -20.5 31t-61.5 14q-29 4 -41 14.5t-12 41.5q0 37 31 157l49 183q2 8 9 13t13 5h254q27 0 31 -16l80 -262q18 -66 18 -93q0 -29 -16 -39t-68 -10q-41 0 -40 -32q0 -25 34 -25q20 0 72.5 5 t138.5 5q61 0 103.5 -6t68.5 -6q43 0 43 29q0 18 -23.5 21t-51.5 24q-41 27 -59.5 69.5t-41.5 114.5l-309 975q-14 43 -20.5 69.5t-28.5 26.5q-16 0 -21.5 -13.5t-13.5 -35.5l-326 -1057q-16 -55 -30.5 -93t-42.5 -58q-16 -12 -34 -14.5t-33 -4.5t-25.5 -7t-10.5 -21z M244 1485h41q12 49 27.5 70.5t49.5 21.5q10 0 19.5 -2t19.5 -6l86 -27q35 -10 60 -10q125 0 155 205h-43q-12 -45 -27.5 -65.5t-47.5 -20.5q-12 0 -43 10l-88 28q-23 8 -52 9q-129 0 -157 -213zM287 567v6q0 6 2 15l96 362q4 16 12 17q7 -1 13 -19l110 -356q4 -16 4 -21 q0 -6 -6 -11t-12 -5h-205q-14 0 -14 12z" />
<glyph unicode="&#xc4;" horiz-adv-x="940" d="M-76 23q0 -27 37 -27q23 0 56.5 5t78.5 5q66 0 111 -6t67 -6q35 0 35 24q0 23 -20.5 31t-61.5 14q-29 4 -41 14.5t-12 41.5q0 37 31 157l49 183q2 8 9 13t13 5h254q27 0 31 -16l80 -262q18 -66 18 -93q0 -29 -16 -39t-68 -10q-41 0 -40 -32q0 -25 34 -25q20 0 72.5 5 t138.5 5q61 0 103.5 -6t68.5 -6q43 0 43 29q0 18 -23.5 21t-51.5 24q-41 27 -59.5 69.5t-41.5 114.5l-309 975q-14 43 -20.5 69.5t-28.5 26.5q-16 0 -21.5 -13.5t-13.5 -35.5l-326 -1057q-16 -55 -30.5 -93t-42.5 -58q-16 -12 -34 -14.5t-33 -4.5t-25.5 -7t-10.5 -21z M184 1593q0 -43 29 -71.5t70 -28.5t70.5 28.5t29.5 71.5q0 41 -30 71t-70 30q-41 0 -70 -30t-29 -71zM287 567v6q0 6 2 15l96 362q4 16 12 17q7 -1 13 -19l110 -356q4 -16 4 -21q0 -6 -6 -11t-12 -5h-205q-14 0 -14 12zM565 1593q0 -43 29 -71.5t69 -28.5q41 0 71 28.5 t30 71.5q0 41 -30 71t-71 30t-69.5 -30t-28.5 -71z" />
<glyph unicode="&#xc5;" horiz-adv-x="940" d="M-76 23q0 -27 37 -27q23 0 56.5 5t78.5 5q66 0 111 -6t67 -6q35 0 35 24q0 23 -20.5 31t-61.5 14q-29 4 -41 14.5t-12 41.5q0 37 31 157l49 183q2 8 9 13t13 5h254q27 0 31 -16l80 -262q18 -66 18 -93q0 -29 -16 -39t-68 -10q-41 0 -40 -32q0 -25 34 -25q20 0 72.5 5 t138.5 5q61 0 103.5 -6t68.5 -6q43 0 43 29q0 18 -23.5 21t-51.5 24q-41 27 -59.5 69.5t-41.5 114.5l-309 975q-14 43 -20.5 69.5t-28.5 26.5q-16 0 -21.5 -13.5t-13.5 -35.5l-326 -1057q-16 -55 -30.5 -93t-42.5 -58q-16 -12 -34 -14.5t-33 -4.5t-25.5 -7t-10.5 -21z M219 1636q0 -51 18.5 -95t50 -76.5t76 -51t95.5 -18.5t95 18.5t77 51t51 76.5t18 95q0 49 -19 93.5t-52 77t-77 51t-93 18.5t-93 -18.5t-77 -51t-51.5 -77t-18.5 -93.5zM287 567v6q0 6 2 15l96 362q4 16 12 17q7 -1 13 -19l110 -356q4 -16 4 -21q0 -6 -6 -11t-12 -5h-205 q-14 0 -14 12zM309 1636q0 61 44 105.5t106 44.5q61 0 105 -44t44 -106q0 -63 -44 -107t-105 -44q-63 0 -106.5 44t-43.5 107z" />
<glyph unicode="&#xc6;" horiz-adv-x="1421" d="M-86 29q0 -29 41 -29q14 0 49 3t88 3q76 0 126 -3t77 -3q61 0 61 33q0 27 -26 26q-25 0 -60 4q-68 6 -67 68q0 20 7 52t19 59l177 387q6 12 9 17t19 5h248q27 0 27 -26v-432q0 -33 -1 -54.5t-7.5 -35t-20.5 -21.5t-39 -14q-16 -4 -30.5 -5.5t-26 -3.5t-18.5 -7t-7 -19 q0 -33 45 -33q10 0 61.5 5t147.5 5q190 0 310 -8t167 -8q41 0 48.5 12t11.5 60l20 198q2 16 3 25.5t1 11.5q0 6 -6 12t-12 6q-23 0 -40.5 -40.5t-51.5 -100.5q-43 -74 -95.5 -95.5t-140.5 -21.5q-45 0 -71.5 5.5t-41 20.5t-18.5 40t-4 66v421q0 23 6 30t27 7h84q59 0 97 -10 t60 -57q14 -31 22.5 -57.5t12.5 -45t10.5 -30t18.5 -11.5q23 0 22 37q0 16 -3 59.5t-3 114.5q0 86 6.5 133t6.5 60q0 39 -25 39q-14 0 -19.5 -12.5t-9.5 -31t-11 -41t-26 -40.5q-14 -14 -57 -25.5t-100 -11.5h-86q-23 0 -28 6t-5 25v348q0 35 2 59.5t12.5 38.5t32 20.5 t57.5 6.5q158 0 232 -78q25 -25 37 -52.5t19 -50t14.5 -37t19.5 -14.5q23 0 22 51v177q0 39 -6 54t-47 15q-29 0 -93.5 -4t-164.5 -4h-389q-45 0 -60.5 4t-19.5 4q-29 0 -29 -28q0 -18 10.5 -22.5t24 -6.5t23.5 -3t10 -13q0 -4 -2 -14.5t-10 -26.5l-475 -938 q-35 -68 -64 -108t-59 -56q-14 -6 -27.5 -8.5t-25 -5.5t-17.5 -9t-6 -22zM446 721l191 407q27 59 51 60q14 0 17.5 -15.5t3.5 -42.5v-382q0 -27 -27 -27h-236z" />
<glyph unicode="&#xc7;" horiz-adv-x="1099" d="M61 647q0 -145 45.5 -270t125 -217t189 -145.5t238.5 -53.5q78 0 142.5 14.5t112 39t73 56t25.5 66.5q0 74 3 118t3 56q0 43 -23 43q-18 0 -32.5 -30.5t-38.5 -85.5q-47 -106 -111.5 -158.5t-161.5 -52.5q-76 0 -144.5 45t-120.5 127t-83 193.5t-31 244.5q0 143 31 261 t85 201t126 128t156 45q80 0 139 -47t115 -140q23 -39 38 -60t29 -21q16 0 17 36q0 92 -8.5 146.5t-18.5 65t-36.5 23.5t-67.5 24.5t-92.5 19.5t-106.5 8q-129 0 -240.5 -52t-195.5 -144.5t-132.5 -216.5t-48.5 -267zM420 -371q68 -35 124 -55t111 -20q84 0 129 47t45 129 q0 76 -38 120t-101 44q-18 0 -55 -7v113h-52v-190q18 4 30.5 6t21.5 2q43 0 66.5 -24.5t23.5 -65.5q0 -92 -99 -93q-29 0 -77 16.5t-101 55.5z" />
<glyph unicode="&#xc8;" horiz-adv-x="956" d="M37 33q0 -33 45 -33q12 0 60 5t141 5q199 0 328.5 -8t193.5 -8q23 0 34 2t17 10t8 21.5t4 38.5l23 198q2 16 3 26l1 11q0 4 -7 11t-14 7q-25 0 -43 -41.5t-55 -99.5q-25 -37 -49.5 -60.5t-55 -35.5t-68.5 -16.5t-85 -4.5q-45 0 -73.5 5.5t-45 18.5t-22.5 39t-6 69v421 q0 23 7 30t30 7h90q66 0 106.5 -10t65.5 -57q16 -31 24 -56.5t13.5 -45t12.5 -31t19 -11.5q25 0 25 37q0 14 -3 58.5t-3 115.5q0 61 5 112.5t5 90.5q0 29 -25 29q-16 0 -21 -12.5t-9 -31t-12.5 -40t-28.5 -41.5q-14 -14 -61.5 -25.5t-110.5 -11.5h-92q-29 0 -33 7t-4 34v338 q0 37 3 60.5t14 37.5t33.5 20.5t63.5 6.5q166 0 250 -78q27 -25 41.5 -52.5t22.5 -50t15 -37t22 -14.5q23 0 22 51v177v8q0 33 -8 47t-49 14q-20 0 -120.5 -4t-281.5 -4q-141 0 -217 4t-88 4q-35 0 -35 -28q0 -16 7.5 -21.5t19.5 -7.5t29 -2q16 0 32 -6q29 -10 34 -28.5 t5 -66.5v-937q0 -59 -8 -90t-53 -37q-39 -6 -64 -7q-25 0 -24 -26zM256 1720q0 -39 49 -76l264 -206h53l-231 301q-23 29 -39 44t-39 15t-40 -20.5t-17 -57.5z" />
<glyph unicode="&#xc9;" horiz-adv-x="956" d="M37 33q0 -33 45 -33q12 0 60 5t141 5q199 0 328.5 -8t193.5 -8q23 0 34 2t17 10t8 21.5t4 38.5l23 198q2 16 3 26l1 11q0 4 -7 11t-14 7q-25 0 -43 -41.5t-55 -99.5q-25 -37 -49.5 -60.5t-55 -35.5t-68.5 -16.5t-85 -4.5q-45 0 -73.5 5.5t-45 18.5t-22.5 39t-6 69v421 q0 23 7 30t30 7h90q66 0 106.5 -10t65.5 -57q16 -31 24 -56.5t13.5 -45t12.5 -31t19 -11.5q25 0 25 37q0 14 -3 58.5t-3 115.5q0 61 5 112.5t5 90.5q0 29 -25 29q-16 0 -21 -12.5t-9 -31t-12.5 -40t-28.5 -41.5q-14 -14 -61.5 -25.5t-110.5 -11.5h-92q-29 0 -33 7t-4 34v338 q0 37 3 60.5t14 37.5t33.5 20.5t63.5 6.5q166 0 250 -78q27 -25 41.5 -52.5t22.5 -50t15 -37t22 -14.5q23 0 22 51v177v8q0 33 -8 47t-49 14q-20 0 -120.5 -4t-281.5 -4q-141 0 -217 4t-88 4q-35 0 -35 -28q0 -16 7.5 -21.5t19.5 -7.5t29 -2q16 0 32 -6q29 -10 34 -28.5 t5 -66.5v-937q0 -59 -8 -90t-53 -37q-39 -6 -64 -7q-25 0 -24 -26zM340 1438h53l264 206q49 37 49 82q0 33 -17.5 52.5t-39.5 19.5q-23 0 -39 -15.5t-39 -43.5z" />
<glyph unicode="&#xca;" horiz-adv-x="956" d="M37 33q0 -33 45 -33q12 0 60 5t141 5q199 0 328.5 -8t193.5 -8q23 0 34 2t17 10t8 21.5t4 38.5l23 198q2 16 3 26l1 11q0 4 -7 11t-14 7q-25 0 -43 -41.5t-55 -99.5q-25 -37 -49.5 -60.5t-55 -35.5t-68.5 -16.5t-85 -4.5q-45 0 -73.5 5.5t-45 18.5t-22.5 39t-6 69v421 q0 23 7 30t30 7h90q66 0 106.5 -10t65.5 -57q16 -31 24 -56.5t13.5 -45t12.5 -31t19 -11.5q25 0 25 37q0 14 -3 58.5t-3 115.5q0 61 5 112.5t5 90.5q0 29 -25 29q-16 0 -21 -12.5t-9 -31t-12.5 -40t-28.5 -41.5q-14 -14 -61.5 -25.5t-110.5 -11.5h-92q-29 0 -33 7t-4 34v338 q0 37 3 60.5t14 37.5t33.5 20.5t63.5 6.5q166 0 250 -78q27 -25 41.5 -52.5t22.5 -50t15 -37t22 -14.5q23 0 22 51v177v8q0 33 -8 47t-49 14q-20 0 -120.5 -4t-281.5 -4q-141 0 -217 4t-88 4q-35 0 -35 -28q0 -16 7.5 -21.5t19.5 -7.5t29 -2q16 0 32 -6q29 -10 34 -28.5 t5 -66.5v-937q0 -59 -8 -90t-53 -37q-39 -6 -64 -7q-25 0 -24 -26zM248 1438h47l186 211l186 -211h47l-186 350h-94z" />
<glyph unicode="&#xcb;" horiz-adv-x="956" d="M37 33q0 -33 45 -33q12 0 60 5t141 5q199 0 328.5 -8t193.5 -8q23 0 34 2t17 10t8 21.5t4 38.5l23 198q2 16 3 26l1 11q0 4 -7 11t-14 7q-25 0 -43 -41.5t-55 -99.5q-25 -37 -49.5 -60.5t-55 -35.5t-68.5 -16.5t-85 -4.5q-45 0 -73.5 5.5t-45 18.5t-22.5 39t-6 69v421 q0 23 7 30t30 7h90q66 0 106.5 -10t65.5 -57q16 -31 24 -56.5t13.5 -45t12.5 -31t19 -11.5q25 0 25 37q0 14 -3 58.5t-3 115.5q0 61 5 112.5t5 90.5q0 29 -25 29q-16 0 -21 -12.5t-9 -31t-12.5 -40t-28.5 -41.5q-14 -14 -61.5 -25.5t-110.5 -11.5h-92q-29 0 -33 7t-4 34v338 q0 37 3 60.5t14 37.5t33.5 20.5t63.5 6.5q166 0 250 -78q27 -25 41.5 -52.5t22.5 -50t15 -37t22 -14.5q23 0 22 51v177v8q0 33 -8 47t-49 14q-20 0 -120.5 -4t-281.5 -4q-141 0 -217 4t-88 4q-35 0 -35 -28q0 -16 7.5 -21.5t19.5 -7.5t29 -2q16 0 32 -6q29 -10 34 -28.5 t5 -66.5v-937q0 -59 -8 -90t-53 -37q-39 -6 -64 -7q-25 0 -24 -26zM192 1593q0 -43 29 -71.5t70 -28.5t70.5 28.5t29.5 71.5q0 41 -30 71t-70 30q-41 0 -70 -30t-29 -71zM573 1593q0 -43 29 -71.5t69 -28.5q41 0 71 28.5t30 71.5q0 41 -30 71t-71 30t-69.5 -30t-28.5 -71z " />
<glyph unicode="&#xcc;" horiz-adv-x="557" d="M41 33q0 -33 43 -33q18 0 66.5 6t128.5 6t128 -6t66 -6q43 0 43 29q0 16 -7 23t-19.5 9t-28.5 2t-35 7q-20 6 -31.5 14t-16.5 21.5t-6 34t-1 53.5v937q0 49 7 69t46 28q18 4 34.5 5t29 3t18.5 7t6 20q0 29 -31 28q-16 0 -65 -8t-137 -8t-137.5 8t-65.5 8q-31 0 -31 -28 q0 -16 7 -21.5t20.5 -7.5t29.5 -2q18 0 39 -6q31 -10 38 -27.5t7 -67.5v-937q0 -33 -1 -54.5t-7 -35t-19.5 -21.5t-37.5 -14q-14 -4 -29 -5q-14 0 -25.5 -2t-18.5 -8t-7 -20zM56 1720q0 -39 49 -76l264 -206h53l-231 301q-23 29 -39 44t-39 15t-40 -20.5t-17 -57.5z" />
<glyph unicode="&#xcd;" horiz-adv-x="557" d="M41 33q0 -33 43 -33q18 0 66.5 6t128.5 6t128 -6t66 -6q43 0 43 29q0 16 -7 23t-19.5 9t-28.5 2t-35 7q-20 6 -31.5 14t-16.5 21.5t-6 34t-1 53.5v937q0 49 7 69t46 28q18 4 34.5 5t29 3t18.5 7t6 20q0 29 -31 28q-16 0 -65 -8t-137 -8t-137.5 8t-65.5 8q-31 0 -31 -28 q0 -16 7 -21.5t20.5 -7.5t29.5 -2q18 0 39 -6q31 -10 38 -27.5t7 -67.5v-937q0 -33 -1 -54.5t-7 -35t-19.5 -21.5t-37.5 -14q-14 -4 -29 -5q-14 0 -25.5 -2t-18.5 -8t-7 -20zM140 1438h53l264 206q49 37 49 82q0 33 -17.5 52.5t-39.5 19.5q-23 0 -39 -15.5t-39 -43.5z" />
<glyph unicode="&#xce;" horiz-adv-x="557" d="M41 33q0 -33 43 -33q18 0 66.5 6t128.5 6t128 -6t66 -6q43 0 43 29q0 16 -7 23t-19.5 9t-28.5 2t-35 7q-20 6 -31.5 14t-16.5 21.5t-6 34t-1 53.5v937q0 49 7 69t46 28q18 4 34.5 5t29 3t18.5 7t6 20q0 29 -31 28q-16 0 -65 -8t-137 -8t-137.5 8t-65.5 8q-31 0 -31 -28 q0 -16 7 -21.5t20.5 -7.5t29.5 -2q18 0 39 -6q31 -10 38 -27.5t7 -67.5v-937q0 -33 -1 -54.5t-7 -35t-19.5 -21.5t-37.5 -14q-14 -4 -29 -5q-14 0 -25.5 -2t-18.5 -8t-7 -20zM48 1438h47l186 211l186 -211h47l-186 350h-94z" />
<glyph unicode="&#xcf;" horiz-adv-x="557" d="M-8 1593q0 -43 29 -71.5t70 -28.5t70.5 28.5t29.5 71.5q0 41 -30 71t-70 30q-41 0 -70 -30t-29 -71zM41 33q0 -33 43 -33q18 0 66.5 6t128.5 6t128 -6t66 -6q43 0 43 29q0 16 -7 23t-19.5 9t-28.5 2t-35 7q-20 6 -31.5 14t-16.5 21.5t-6 34t-1 53.5v937q0 49 7 69t46 28 q18 4 34.5 5t29 3t18.5 7t6 20q0 29 -31 28q-16 0 -65 -8t-137 -8t-137.5 8t-65.5 8q-31 0 -31 -28q0 -16 7 -21.5t20.5 -7.5t29.5 -2q18 0 39 -6q31 -10 38 -27.5t7 -67.5v-937q0 -33 -1 -54.5t-7 -35t-19.5 -21.5t-37.5 -14q-14 -4 -29 -5q-14 0 -25.5 -2t-18.5 -8t-7 -20 zM373 1593q0 -43 29 -71.5t69 -28.5q41 0 71 28.5t30 71.5q0 41 -30 71t-71 30t-69.5 -30t-28.5 -71z" />
<glyph unicode="&#xd0;" horiz-adv-x="1226" d="M8 657h185v-464q0 -33 -1.5 -54.5t-7.5 -35t-19 -21.5t-38 -14q-14 -4 -29 -5q-14 0 -25.5 -2t-18.5 -8t-7 -20q0 -33 45 -33q39 0 82 7t90 7q53 0 120 -10t146 -10q154 0 272 46t198.5 130t122.5 205t42 270q0 147 -44 271t-126 212.5t-198.5 137.5t-261.5 49 q-233 0 -359.5 -25.5t-126.5 -66.5q0 -14 7 -22.5t18 -8.5q18 0 36.5 9t41.5 9q27 0 34 -16t7 -49v-414h-185v-74zM379 252v405h260v74h-260v404q0 31 4 52t20.5 35.5t47 21.5t84.5 7q94 0 171.5 -44t134 -123.5t87 -189.5t30.5 -239q0 -139 -30.5 -249.5t-88 -187.5 t-137 -119t-178.5 -42q-92 0 -118.5 44.5t-26.5 150.5z" />
<glyph unicode="&#xd1;" horiz-adv-x="1187" d="M35 29q0 -31 49 -31q29 0 60.5 4t70.5 4q43 0 78 -4t63 -4q53 0 54 31q0 33 -29 32q-10 0 -18.5 -1t-18.5 -1q-31 0 -49.5 9.5t-27.5 33t-11 61.5t-2 95v797q0 23 8 22q2 0 4 -2l674 -1098q20 -33 39 -32q12 0 21.5 15t9.5 36v1022q0 113 12 164t65 51h21q20 0 27.5 5 t7.5 22q0 31 -45 30q-23 0 -53.5 -3t-73.5 -3q-45 0 -79 3t-63 3q-53 0 -53 -30q0 -12 10.5 -20.5t26.5 -8.5q43 0 66.5 -5t35 -22.5t14.5 -50.5t3 -88q0 -10 1 -35.5t1 -68.5v-562q0 -23 -8 -22q-2 0 -4 2l-549 891q-10 14 -15.5 17t-19.5 3h-262q-29 0 -29 -28 q0 -29 28.5 -28t65.5 -9q29 -10 35 -28.5t6 -66.5v-851q0 -59 -2 -101.5t-11 -68t-27.5 -37t-49.5 -11.5h-18q-39 0 -39 -32zM365 1485h41q12 49 27.5 70.5t49.5 21.5q10 0 19.5 -2t19.5 -6l86 -27q35 -10 60 -10q125 0 155 205h-43q-12 -45 -27.5 -65.5t-47.5 -20.5 q-12 0 -43 10l-88 28q-23 8 -52 9q-129 0 -157 -213z" />
<glyph unicode="&#xd2;" horiz-adv-x="1273" d="M61 645q0 -145 46.5 -270t124 -217t182 -144.5t221.5 -52.5q119 0 224.5 52.5t184 144.5t123.5 217t45 270t-46 270t-123.5 216.5t-182 143.5t-221.5 52q-119 0 -224.5 -52t-183 -143.5t-124 -216t-46.5 -270.5zM270 674q0 143 28 253.5t76 186.5t113.5 116t139.5 40 q78 0 146.5 -44t119.5 -128t81 -205t30 -275q0 -143 -28 -253.5t-77 -187.5t-114.5 -117t-139.5 -40q-78 0 -146.5 44.5t-119.5 128t-80 205.5t-29 276zM412 1720q0 -39 49 -76l264 -206h53l-231 301q-23 29 -39 44t-39 15t-40 -20.5t-17 -57.5z" />
<glyph unicode="&#xd3;" horiz-adv-x="1273" d="M61 645q0 -145 46.5 -270t124 -217t182 -144.5t221.5 -52.5q119 0 224.5 52.5t184 144.5t123.5 217t45 270t-46 270t-123.5 216.5t-182 143.5t-221.5 52q-119 0 -224.5 -52t-183 -143.5t-124 -216t-46.5 -270.5zM270 674q0 143 28 253.5t76 186.5t113.5 116t139.5 40 q78 0 146.5 -44t119.5 -128t81 -205t30 -275q0 -143 -28 -253.5t-77 -187.5t-114.5 -117t-139.5 -40q-78 0 -146.5 44.5t-119.5 128t-80 205.5t-29 276zM496 1438h53l264 206q49 37 49 82q0 33 -17.5 52.5t-39.5 19.5q-23 0 -39 -15.5t-39 -43.5z" />
<glyph unicode="&#xd4;" horiz-adv-x="1273" d="M61 645q0 -145 46.5 -270t124 -217t182 -144.5t221.5 -52.5q119 0 224.5 52.5t184 144.5t123.5 217t45 270t-46 270t-123.5 216.5t-182 143.5t-221.5 52q-119 0 -224.5 -52t-183 -143.5t-124 -216t-46.5 -270.5zM270 674q0 143 28 253.5t76 186.5t113.5 116t139.5 40 q78 0 146.5 -44t119.5 -128t81 -205t30 -275q0 -143 -28 -253.5t-77 -187.5t-114.5 -117t-139.5 -40q-78 0 -146.5 44.5t-119.5 128t-80 205.5t-29 276zM404 1438h47l186 211l186 -211h47l-186 350h-94z" />
<glyph unicode="&#xd5;" horiz-adv-x="1273" d="M61 645q0 -145 46.5 -270t124 -217t182 -144.5t221.5 -52.5q119 0 224.5 52.5t184 144.5t123.5 217t45 270t-46 270t-123.5 216.5t-182 143.5t-221.5 52q-119 0 -224.5 -52t-183 -143.5t-124 -216t-46.5 -270.5zM270 674q0 143 28 253.5t76 186.5t113.5 116t139.5 40 q78 0 146.5 -44t119.5 -128t81 -205t30 -275q0 -143 -28 -253.5t-77 -187.5t-114.5 -117t-139.5 -40q-78 0 -146.5 44.5t-119.5 128t-80 205.5t-29 276zM408 1485h41q12 49 27.5 70.5t49.5 21.5q10 0 19.5 -2t19.5 -6l86 -27q35 -10 60 -10q125 0 155 205h-43 q-12 -45 -27.5 -65.5t-47.5 -20.5q-12 0 -43 10l-88 28q-23 8 -52 9q-129 0 -157 -213z" />
<glyph unicode="&#xd6;" horiz-adv-x="1273" d="M61 645q0 -145 46.5 -270t124 -217t182 -144.5t221.5 -52.5q119 0 224.5 52.5t184 144.5t123.5 217t45 270t-46 270t-123.5 216.5t-182 143.5t-221.5 52q-119 0 -224.5 -52t-183 -143.5t-124 -216t-46.5 -270.5zM270 674q0 143 28 253.5t76 186.5t113.5 116t139.5 40 q78 0 146.5 -44t119.5 -128t81 -205t30 -275q0 -143 -28 -253.5t-77 -187.5t-114.5 -117t-139.5 -40q-78 0 -146.5 44.5t-119.5 128t-80 205.5t-29 276zM348 1593q0 -43 29 -71.5t70 -28.5t70.5 28.5t29.5 71.5q0 41 -30 71t-70 30q-41 0 -70 -30t-29 -71zM729 1593 q0 -43 29 -71.5t69 -28.5q41 0 71 28.5t30 71.5q0 41 -30 71t-71 30t-69.5 -30t-28.5 -71z" />
<glyph unicode="&#xd7;" horiz-adv-x="1705" d="M301 135l80 -82l477 475l475 -475l82 82l-475 475l475 477l-82 82l-475 -477l-477 477l-80 -82l475 -477z" />
<glyph unicode="&#xd8;" horiz-adv-x="1273" d="M61 645q0 -170 57.5 -305t176.5 -246l-141 -266h88l116 219q125 -86 277 -86q119 0 224.5 52.5t184 144.5t123.5 217t45 270q0 172 -62.5 312.5t-180.5 244.5l127 240h-88l-101 -193q-127 78 -268 78q-119 0 -224.5 -52t-183 -143.5t-124 -216t-46.5 -270.5zM272 649 q0 154 27 269.5t74 194.5t110.5 118t137.5 39q70 0 125 -30t110 -89l-496 -926q-59 117 -73.5 218.5t-14.5 205.5zM410 145l493 934q47 -86 74 -204.5t27 -260.5q0 -141 -28 -250.5t-77 -186.5t-114.5 -117t-139.5 -40q-129 0 -235 125z" />
<glyph unicode="&#xd9;" horiz-adv-x="1150" d="M39 1262q0 -16 7 -21.5t19.5 -6.5t30 -2t37.5 -7q33 -10 39 -26.5t6 -68.5v-718q0 -94 9.5 -169t50.5 -134q53 -78 141 -113t219 -35q119 0 203 40t127 114q41 70 48 151.5t7 188.5v503q0 76 2 129.5t11.5 85t26.5 46t50 14.5q31 0 45.5 5t14.5 24q0 29 -43 28 q-16 0 -51 -3t-91 -3q-53 0 -87 3t-52 3q-35 0 -35 -28q0 -16 12.5 -21.5t30 -7.5t35.5 -4t33 -12q27 -23 32 -85.5t5 -179.5v-495q0 -106 -7.5 -182t-44.5 -132q-76 -109 -239 -108q-82 0 -133.5 24.5t-81 72.5t-40.5 119t-11 165v714q0 49 7 66.5t38 28.5q18 6 34 6 q18 0 31.5 1t22 7t8.5 23q0 29 -31 28q-16 0 -65.5 -8t-137.5 -8t-137 8t-65 8q-31 0 -31 -28zM387 1720q0 -39 49 -76l264 -206h53l-231 301q-23 29 -39 44t-39 15t-40 -20.5t-17 -57.5z" />
<glyph unicode="&#xda;" horiz-adv-x="1150" d="M39 1262q0 -16 7 -21.5t19.5 -6.5t30 -2t37.5 -7q33 -10 39 -26.5t6 -68.5v-718q0 -94 9.5 -169t50.5 -134q53 -78 141 -113t219 -35q119 0 203 40t127 114q41 70 48 151.5t7 188.5v503q0 76 2 129.5t11.5 85t26.5 46t50 14.5q31 0 45.5 5t14.5 24q0 29 -43 28 q-16 0 -51 -3t-91 -3q-53 0 -87 3t-52 3q-35 0 -35 -28q0 -16 12.5 -21.5t30 -7.5t35.5 -4t33 -12q27 -23 32 -85.5t5 -179.5v-495q0 -106 -7.5 -182t-44.5 -132q-76 -109 -239 -108q-82 0 -133.5 24.5t-81 72.5t-40.5 119t-11 165v714q0 49 7 66.5t38 28.5q18 6 34 6 q18 0 31.5 1t22 7t8.5 23q0 29 -31 28q-16 0 -65.5 -8t-137.5 -8t-137 8t-65 8q-31 0 -31 -28zM471 1438h53l264 206q49 37 49 82q0 33 -17.5 52.5t-39.5 19.5q-23 0 -39 -15.5t-39 -43.5z" />
<glyph unicode="&#xdb;" horiz-adv-x="1150" d="M39 1262q0 -16 7 -21.5t19.5 -6.5t30 -2t37.5 -7q33 -10 39 -26.5t6 -68.5v-718q0 -94 9.5 -169t50.5 -134q53 -78 141 -113t219 -35q119 0 203 40t127 114q41 70 48 151.5t7 188.5v503q0 76 2 129.5t11.5 85t26.5 46t50 14.5q31 0 45.5 5t14.5 24q0 29 -43 28 q-16 0 -51 -3t-91 -3q-53 0 -87 3t-52 3q-35 0 -35 -28q0 -16 12.5 -21.5t30 -7.5t35.5 -4t33 -12q27 -23 32 -85.5t5 -179.5v-495q0 -106 -7.5 -182t-44.5 -132q-76 -109 -239 -108q-82 0 -133.5 24.5t-81 72.5t-40.5 119t-11 165v714q0 49 7 66.5t38 28.5q18 6 34 6 q18 0 31.5 1t22 7t8.5 23q0 29 -31 28q-16 0 -65.5 -8t-137.5 -8t-137 8t-65 8q-31 0 -31 -28zM379 1438h47l186 211l186 -211h47l-186 350h-94z" />
<glyph unicode="&#xdc;" horiz-adv-x="1150" d="M39 1262q0 -16 7 -21.5t19.5 -6.5t30 -2t37.5 -7q33 -10 39 -26.5t6 -68.5v-718q0 -94 9.5 -169t50.5 -134q53 -78 141 -113t219 -35q119 0 203 40t127 114q41 70 48 151.5t7 188.5v503q0 76 2 129.5t11.5 85t26.5 46t50 14.5q31 0 45.5 5t14.5 24q0 29 -43 28 q-16 0 -51 -3t-91 -3q-53 0 -87 3t-52 3q-35 0 -35 -28q0 -16 12.5 -21.5t30 -7.5t35.5 -4t33 -12q27 -23 32 -85.5t5 -179.5v-495q0 -106 -7.5 -182t-44.5 -132q-76 -109 -239 -108q-82 0 -133.5 24.5t-81 72.5t-40.5 119t-11 165v714q0 49 7 66.5t38 28.5q18 6 34 6 q18 0 31.5 1t22 7t8.5 23q0 29 -31 28q-16 0 -65.5 -8t-137.5 -8t-137 8t-65 8q-31 0 -31 -28zM323 1593q0 -43 29 -71.5t70 -28.5t70.5 28.5t29.5 71.5q0 41 -30 71t-70 30q-41 0 -70 -30t-29 -71zM704 1593q0 -43 29 -71.5t69 -28.5q41 0 71 28.5t30 71.5q0 41 -30 71 t-71 30t-69.5 -30t-28.5 -71z" />
<glyph unicode="&#xdd;" horiz-adv-x="942" d="M-72 1260q0 -14 9.5 -18.5t22.5 -5.5t28.5 -3t29.5 -12q37 -29 111 -162l260 -475q6 -10 10 -25.5t4 -23.5v-342q0 -59 -8 -85t-47 -38q-16 -6 -33 -7q-16 0 -28.5 -2t-20.5 -8t-8 -20q0 -33 43 -33q18 0 66.5 6t128.5 6t128 -6t66 -6q43 0 43 29q0 16 -6 22t-17.5 9 t-25.5 3t-31 5q-45 10 -55 33.5t-10 80.5v389q0 10 4 24.5t8 25.5l244 456q31 59 55.5 95t58.5 49q14 6 28.5 7t25 3t17.5 8t7 23q0 25 -30 24q-6 0 -39 -4t-101 -4q-53 0 -91 6t-58 6q-33 0 -33 -24q0 -23 17.5 -28t39 -8t40 -11.5t18.5 -34.5q0 -8 -6.5 -28.5t-22.5 -51.5 l-195 -391q-10 -18 -12 -19q-12 0 -18 15l-228 424q-14 27 -14 49q0 23 15.5 30t35 11t34.5 10t15 27q0 27 -24 26q-8 0 -47 -4t-113 -4q-100 0 -162.5 6t-87.5 6q-18 0 -29.5 -10t-11.5 -20zM332 1438h53l264 206q49 37 49 82q0 33 -17.5 52.5t-39.5 19.5q-23 0 -39 -15.5 t-39 -43.5z" />
<glyph unicode="&#xde;" horiz-adv-x="882" d="M47 31q0 -33 41 -33q23 0 69 7t117 7q78 0 126.5 -7t68.5 -7t31.5 9t11.5 22q0 18 -8 24t-21.5 8t-32 3.5t-36.5 9.5q-29 14 -35 36.5t-6 75.5v131q0 20 3 28.5t15 8.5q2 0 15 -4l32 -14q37 -16 68 -26.5t59 -10.5q57 0 107.5 27.5t89.5 76t61.5 114t22.5 142.5 q0 172 -84 273.5t-227 101.5q-35 0 -65 -1t-58 -1q-27 0 -35 10.5t-8 32.5v55q0 47 8 67t43 28q37 8 59 8q25 0 25 29q0 31 -35 30q-8 0 -53 -4t-137 -4t-136.5 3t-52.5 3q-39 0 -39 -28q0 -16 7.5 -21.5t19.5 -7.5t29.5 -3t35.5 -7q29 -10 36 -28.5t7 -64.5v-923 q0 -70 -8 -99.5t-53 -41.5q-14 -4 -29 -5q-14 0 -24.5 -2t-17.5 -8t-7 -20zM371 479v398q0 53 16 76.5t80 23.5q37 0 70.5 -22.5t59.5 -62.5t41 -96.5t15 -125.5q0 -129 -53 -204t-123 -75q-39 0 -72.5 21.5t-33.5 66.5z" />
<glyph unicode="&#xdf;" horiz-adv-x="950" d="M18 27q0 -35 39 -35q23 0 51.5 7t69.5 7q29 0 50.5 -3t37.5 -3q35 0 42 20.5t7 67.5v815q0 106 5.5 190.5t23.5 141.5t54 87t100 30q66 0 110.5 -60.5t44.5 -165.5q0 -80 -25.5 -125t-97.5 -88q-25 -16 -47 -30.5t-38.5 -34t-25.5 -46t-9 -67.5q0 -49 14 -85t38.5 -66.5 t59.5 -59t76 -65.5q70 -61 108.5 -115.5t38.5 -126.5q0 -80 -40.5 -128t-106.5 -48q-47 0 -70.5 31.5t-48.5 105.5q-10 31 -14 54.5t-8 40t-9.5 24.5t-15.5 8q-18 0 -22 -42t-4 -132v-45q0 -25 4 -39t20 -24q31 -23 77 -35.5t93 -12.5q135 0 218 87.5t83 242.5 q0 106 -55 183t-156 157q-63 49 -104 82t-41 70q0 35 34.5 56t94.5 46q76 31 109.5 78t33.5 147q0 63 -21.5 117.5t-61.5 94.5t-96 63.5t-124 23.5q-74 0 -137.5 -26.5t-110.5 -75.5t-75.5 -118.5t-32.5 -158.5l-6 -98q0 -25 -25 -39l-37 -20q-39 -20 -39 -39 q0 -10 9.5 -19.5t21.5 -9.5h35q27 0 26 -26v-637q0 -39 -7 -58.5t-40 -31.5q-14 -6 -28.5 -7.5t-24.5 -3.5t-17.5 -8t-7.5 -20z" />
<glyph unicode="&#xe0;" horiz-adv-x="780" d="M59 653q0 -16 11.5 -26.5t27.5 -10.5q61 0 89 36t51 87q29 66 59.5 102t83.5 36t66.5 -39t13.5 -125v-146q0 -23 -3 -32t-20 -17l-51 -26q-74 -37 -134 -74t-103.5 -79t-66 -93t-22.5 -119q0 -78 40 -122t106 -44q57 0 104 32t101 77l43 36h12q23 -70 57.5 -104.5 t87.5 -34.5q25 0 54.5 16.5t55.5 39t44 46t18 40.5q0 31 -24 30q-18 0 -36.5 -20.5t-41.5 -20.5q-35 0 -43 33t-8 98v476q0 57 -6.5 101t-26.5 73.5t-60 45t-106 15.5q-80 0 -148.5 -27.5t-118.5 -69.5t-78 -93.5t-28 -96.5zM168 1331q0 -39 49 -76l264 -206h53l-231 301 q-23 29 -39 44t-39 15t-40 -20.5t-17 -57.5zM244 215q0 143 121 205l67 33q14 8 21 8q10 0 10 -25v-162q0 -41 -13.5 -73.5t-34 -56t-45 -37t-48.5 -13.5q-35 0 -56.5 31t-21.5 90z" />
<glyph unicode="&#xe1;" horiz-adv-x="780" d="M59 653q0 -16 11.5 -26.5t27.5 -10.5q61 0 89 36t51 87q29 66 59.5 102t83.5 36t66.5 -39t13.5 -125v-146q0 -23 -3 -32t-20 -17l-51 -26q-74 -37 -134 -74t-103.5 -79t-66 -93t-22.5 -119q0 -78 40 -122t106 -44q57 0 104 32t101 77l43 36h12q23 -70 57.5 -104.5 t87.5 -34.5q25 0 54.5 16.5t55.5 39t44 46t18 40.5q0 31 -24 30q-18 0 -36.5 -20.5t-41.5 -20.5q-35 0 -43 33t-8 98v476q0 57 -6.5 101t-26.5 73.5t-60 45t-106 15.5q-80 0 -148.5 -27.5t-118.5 -69.5t-78 -93.5t-28 -96.5zM244 215q0 143 121 205l67 33q14 8 21 8 q10 0 10 -25v-162q0 -41 -13.5 -73.5t-34 -56t-45 -37t-48.5 -13.5q-35 0 -56.5 31t-21.5 90zM252 1049h53l264 206q49 37 49 82q0 33 -17.5 52.5t-39.5 19.5q-23 0 -39 -15.5t-39 -43.5z" />
<glyph unicode="&#xe2;" horiz-adv-x="780" d="M59 653q0 -16 11.5 -26.5t27.5 -10.5q61 0 89 36t51 87q29 66 59.5 102t83.5 36t66.5 -39t13.5 -125v-146q0 -23 -3 -32t-20 -17l-51 -26q-74 -37 -134 -74t-103.5 -79t-66 -93t-22.5 -119q0 -78 40 -122t106 -44q57 0 104 32t101 77l43 36h12q23 -70 57.5 -104.5 t87.5 -34.5q25 0 54.5 16.5t55.5 39t44 46t18 40.5q0 31 -24 30q-18 0 -36.5 -20.5t-41.5 -20.5q-35 0 -43 33t-8 98v476q0 57 -6.5 101t-26.5 73.5t-60 45t-106 15.5q-80 0 -148.5 -27.5t-118.5 -69.5t-78 -93.5t-28 -96.5zM160 1049h47l186 211l186 -211h47l-186 350h-94z M244 215q0 143 121 205l67 33q14 8 21 8q10 0 10 -25v-162q0 -41 -13.5 -73.5t-34 -56t-45 -37t-48.5 -13.5q-35 0 -56.5 31t-21.5 90z" />
<glyph unicode="&#xe3;" horiz-adv-x="780" d="M59 653q0 -16 11.5 -26.5t27.5 -10.5q61 0 89 36t51 87q29 66 59.5 102t83.5 36t66.5 -39t13.5 -125v-146q0 -23 -3 -32t-20 -17l-51 -26q-74 -37 -134 -74t-103.5 -79t-66 -93t-22.5 -119q0 -78 40 -122t106 -44q57 0 104 32t101 77l43 36h12q23 -70 57.5 -104.5 t87.5 -34.5q25 0 54.5 16.5t55.5 39t44 46t18 40.5q0 31 -24 30q-18 0 -36.5 -20.5t-41.5 -20.5q-35 0 -43 33t-8 98v476q0 57 -6.5 101t-26.5 73.5t-60 45t-106 15.5q-80 0 -148.5 -27.5t-118.5 -69.5t-78 -93.5t-28 -96.5zM164 1096h41q12 49 27.5 70.5t49.5 21.5 q10 0 19.5 -2t19.5 -6l86 -27q35 -10 60 -10q125 0 155 205h-43q-12 -45 -27.5 -65.5t-47.5 -20.5q-12 0 -43 10l-88 28q-23 8 -52 9q-129 0 -157 -213zM244 215q0 143 121 205l67 33q14 8 21 8q10 0 10 -25v-162q0 -41 -13.5 -73.5t-34 -56t-45 -37t-48.5 -13.5 q-35 0 -56.5 31t-21.5 90z" />
<glyph unicode="&#xe4;" horiz-adv-x="780" d="M59 653q0 -16 11.5 -26.5t27.5 -10.5q61 0 89 36t51 87q29 66 59.5 102t83.5 36t66.5 -39t13.5 -125v-146q0 -23 -3 -32t-20 -17l-51 -26q-74 -37 -134 -74t-103.5 -79t-66 -93t-22.5 -119q0 -78 40 -122t106 -44q57 0 104 32t101 77l43 36h12q23 -70 57.5 -104.5 t87.5 -34.5q25 0 54.5 16.5t55.5 39t44 46t18 40.5q0 31 -24 30q-18 0 -36.5 -20.5t-41.5 -20.5q-35 0 -43 33t-8 98v476q0 57 -6.5 101t-26.5 73.5t-60 45t-106 15.5q-80 0 -148.5 -27.5t-118.5 -69.5t-78 -93.5t-28 -96.5zM104 1204q0 -43 29 -71.5t70 -28.5t70.5 28.5 t29.5 71.5q0 41 -30 71t-70 30q-41 0 -70 -30t-29 -71zM244 215q0 143 121 205l67 33q14 8 21 8q10 0 10 -25v-162q0 -41 -13.5 -73.5t-34 -56t-45 -37t-48.5 -13.5q-35 0 -56.5 31t-21.5 90zM485 1204q0 -43 29 -71.5t69 -28.5q41 0 71 28.5t30 71.5q0 41 -30 71t-71 30 t-69.5 -30t-28.5 -71z" />
<glyph unicode="&#xe5;" horiz-adv-x="780" d="M59 653q0 -16 11.5 -26.5t27.5 -10.5q61 0 89 36t51 87q29 66 59.5 102t83.5 36t66.5 -39t13.5 -125v-146q0 -23 -3 -32t-20 -17l-51 -26q-74 -37 -134 -74t-103.5 -79t-66 -93t-22.5 -119q0 -78 40 -122t106 -44q57 0 104 32t101 77l43 36h12q23 -70 57.5 -104.5 t87.5 -34.5q25 0 54.5 16.5t55.5 39t44 46t18 40.5q0 31 -24 30q-18 0 -36.5 -20.5t-41.5 -20.5q-35 0 -43 33t-8 98v476q0 57 -6.5 101t-26.5 73.5t-60 45t-106 15.5q-80 0 -148.5 -27.5t-118.5 -69.5t-78 -93.5t-28 -96.5zM139 1247q0 -49 18.5 -93t51.5 -77t77 -52 t93 -19q51 0 95 18t77 51t51.5 77t18.5 95q0 49 -18.5 93t-51.5 77t-77 51.5t-95 18.5q-49 0 -93 -18.5t-77 -51.5t-51.5 -77t-18.5 -93zM231 1247q0 61 43.5 105.5t104.5 44.5t105 -44t44 -106q0 -61 -44 -105t-105 -44t-104.5 43t-43.5 106zM244 215q0 143 121 205l67 33 q14 8 21 8q10 0 10 -25v-162q0 -41 -13.5 -73.5t-34 -56t-45 -37t-48.5 -13.5q-35 0 -56.5 31t-21.5 90z" />
<glyph unicode="&#xe6;" horiz-adv-x="1171" d="M35 670q0 -53 39 -54q33 0 55.5 10.5t38.5 27t27.5 38t21.5 43.5q29 63 59.5 102.5t90.5 39.5q53 0 67.5 -39t14.5 -125v-135q0 -27 -4.5 -43.5t-22.5 -26.5l-53 -31q-84 -47 -145.5 -87t-102.5 -80t-61.5 -84t-20.5 -99q0 -80 41 -123t125 -43q78 0 159.5 32t174.5 91 h18q41 -59 103.5 -91t136.5 -32q66 0 124 25.5t101 60.5t67.5 72t24.5 61q0 23 -16 23q-4 0 -19.5 -18.5t-42 -41t-66.5 -41t-96 -18.5q-123 0 -198.5 110.5t-75.5 301.5v49q0 18 3 25.5t20 7.5h430q35 0 50 9t15 36q0 63 -21.5 120.5t-63.5 100.5t-102.5 68.5t-139.5 25.5 q-51 0 -100.5 -18.5t-84.5 -47.5l-26 -20q-12 -12 -21 -12l-20 16l-27 25q-66 59 -156 59q-63 0 -121.5 -26.5t-102.5 -66.5t-70.5 -87t-26.5 -90zM215 197q0 68 34 115.5t105 86.5l60 33q18 10 24 10q13 1 13 -30v-170q0 -96 -29 -145.5t-100 -49.5q-51 0 -79 39t-28 111z M614 659v5l7 32q6 39 22 74t41 61.5t55.5 43t67.5 16.5q59 0 99 -43t40 -94q0 -68 -43 -90.5t-139 -22.5h-127q-23 0 -23 18z" />
<glyph unicode="&#xe7;" horiz-adv-x="753" d="M49 442q0 -111 28.5 -199.5t80 -151t121 -96.5t151.5 -34q61 0 114.5 20.5t91.5 48t59.5 57.5t21.5 48q0 27 -27 27q-6 0 -19.5 -13.5t-35 -30t-53 -29.5t-70.5 -13q-61 0 -112.5 27.5t-89.5 80t-59.5 128t-21.5 171.5q0 94 19.5 168t50.5 126t70 80t75 28 q29 0 48.5 -13.5t36 -36t30.5 -56.5t33 -72q27 -59 55 -60q25 0 40 44t15 122q0 27 -19 49.5t-51 39t-75 26.5t-92 10q-90 0 -166 -35t-131 -99.5t-87 -155.5t-32 -206zM216 -371q68 -35 124 -55t111 -20q84 0 129 47t45 129q0 76 -38 120t-101 44q-18 0 -55 -7v113h-52 v-190q18 4 30.5 6t21.5 2q43 0 66.5 -24.5t23.5 -65.5q0 -92 -99 -93q-29 0 -77 16.5t-101 55.5z" />
<glyph unicode="&#xe8;" horiz-adv-x="833" d="M49 446q0 -113 26.5 -202.5t76 -153t118 -97.5t152.5 -34q80 0 143.5 26.5t109.5 62.5t70.5 73t24.5 59q0 23 -16 23q-6 0 -21.5 -18.5t-43 -41t-69.5 -41t-100 -18.5q-129 0 -210 110.5t-81 301.5v49q0 20 4.5 26.5t20.5 6.5h453q37 0 53 8t16 35q0 66 -23.5 123 t-66.5 100t-104.5 68.5t-135.5 25.5q-86 0 -158.5 -35t-125.5 -98.5t-83 -154.5t-30 -204zM195 1331q0 -39 49 -76l264 -206h53l-231 301q-23 29 -39 44t-39 15t-40 -20.5t-17 -57.5zM246 659v5l6 32q16 84 69.5 139.5t124.5 55.5q66 0 108 -43t42 -94q0 -68 -46.5 -90.5 t-146.5 -22.5h-133q-25 0 -24 18z" />
<glyph unicode="&#xe9;" horiz-adv-x="833" d="M49 446q0 -113 26.5 -202.5t76 -153t118 -97.5t152.5 -34q80 0 143.5 26.5t109.5 62.5t70.5 73t24.5 59q0 23 -16 23q-6 0 -21.5 -18.5t-43 -41t-69.5 -41t-100 -18.5q-129 0 -210 110.5t-81 301.5v49q0 20 4.5 26.5t20.5 6.5h453q37 0 53 8t16 35q0 66 -23.5 123 t-66.5 100t-104.5 68.5t-135.5 25.5q-86 0 -158.5 -35t-125.5 -98.5t-83 -154.5t-30 -204zM246 659v5l6 32q16 84 69.5 139.5t124.5 55.5q66 0 108 -43t42 -94q0 -68 -46.5 -90.5t-146.5 -22.5h-133q-25 0 -24 18zM279 1049h53l264 206q49 37 49 82q0 33 -17.5 52.5 t-39.5 19.5q-23 0 -39 -15.5t-39 -43.5z" />
<glyph unicode="&#xea;" horiz-adv-x="833" d="M49 446q0 -113 26.5 -202.5t76 -153t118 -97.5t152.5 -34q80 0 143.5 26.5t109.5 62.5t70.5 73t24.5 59q0 23 -16 23q-6 0 -21.5 -18.5t-43 -41t-69.5 -41t-100 -18.5q-129 0 -210 110.5t-81 301.5v49q0 20 4.5 26.5t20.5 6.5h453q37 0 53 8t16 35q0 66 -23.5 123 t-66.5 100t-104.5 68.5t-135.5 25.5q-86 0 -158.5 -35t-125.5 -98.5t-83 -154.5t-30 -204zM187 1049h47l186 211l186 -211h47l-186 350h-94zM246 659v5l6 32q16 84 69.5 139.5t124.5 55.5q66 0 108 -43t42 -94q0 -68 -46.5 -90.5t-146.5 -22.5h-133q-25 0 -24 18z" />
<glyph unicode="&#xeb;" horiz-adv-x="833" d="M49 446q0 -113 26.5 -202.5t76 -153t118 -97.5t152.5 -34q80 0 143.5 26.5t109.5 62.5t70.5 73t24.5 59q0 23 -16 23q-6 0 -21.5 -18.5t-43 -41t-69.5 -41t-100 -18.5q-129 0 -210 110.5t-81 301.5v49q0 20 4.5 26.5t20.5 6.5h453q37 0 53 8t16 35q0 66 -23.5 123 t-66.5 100t-104.5 68.5t-135.5 25.5q-86 0 -158.5 -35t-125.5 -98.5t-83 -154.5t-30 -204zM131 1204q0 -43 29 -71.5t70 -28.5t70.5 28.5t29.5 71.5q0 41 -30 71t-70 30q-41 0 -70 -30t-29 -71zM246 659v5l6 32q16 84 69.5 139.5t124.5 55.5q66 0 108 -43t42 -94 q0 -68 -46.5 -90.5t-146.5 -22.5h-133q-25 0 -24 18zM512 1204q0 -43 29 -71.5t69 -28.5q41 0 71 28.5t30 71.5q0 41 -30 71t-71 30t-69.5 -30t-28.5 -71z" />
<glyph unicode="&#xec;" horiz-adv-x="452" d="M4 1331q0 -39 49 -76l264 -206h53l-231 301q-23 29 -39 44t-39 15t-40 -20.5t-17 -57.5zM49 27q0 -35 31 -35q23 0 59.5 7t89.5 7q49 0 92.5 -7t73.5 -7q37 0 37 33q0 14 -7 20t-18.5 9t-26.5 5t-32 11q-18 10 -25.5 28.5t-7.5 55.5v747q0 43 -20 43q-8 0 -17.5 -9 t-23.5 -23.5t-35.5 -33t-52.5 -36.5q-51 -29 -79 -43.5t-28 -36.5q0 -20 13.5 -21.5t30 -6.5t29.5 -23.5t13 -73.5v-483q0 -41 -6 -58.5t-28 -29.5q-12 -6 -22.5 -7.5t-20 -3.5t-14.5 -8t-5 -20z" />
<glyph unicode="&#xed;" horiz-adv-x="452" d="M49 27q0 -35 31 -35q23 0 59.5 7t89.5 7q49 0 92.5 -7t73.5 -7q37 0 37 33q0 14 -7 20t-18.5 9t-26.5 5t-32 11q-18 10 -25.5 28.5t-7.5 55.5v747q0 43 -20 43q-8 0 -17.5 -9t-23.5 -23.5t-35.5 -33t-52.5 -36.5q-51 -29 -79 -43.5t-28 -36.5q0 -20 13.5 -21.5t30 -6.5 t29.5 -23.5t13 -73.5v-483q0 -41 -6 -58.5t-28 -29.5q-12 -6 -22.5 -7.5t-20 -3.5t-14.5 -8t-5 -20zM88 1049h53l264 206q49 37 49 82q0 33 -17.5 52.5t-39.5 19.5q-23 0 -39 -15.5t-39 -43.5z" />
<glyph unicode="&#xee;" horiz-adv-x="452" d="M-4 1049h47l186 211l186 -211h47l-186 350h-94zM49 27q0 -35 31 -35q23 0 59.5 7t89.5 7q49 0 92.5 -7t73.5 -7q37 0 37 33q0 14 -7 20t-18.5 9t-26.5 5t-32 11q-18 10 -25.5 28.5t-7.5 55.5v747q0 43 -20 43q-8 0 -17.5 -9t-23.5 -23.5t-35.5 -33t-52.5 -36.5 q-51 -29 -79 -43.5t-28 -36.5q0 -20 13.5 -21.5t30 -6.5t29.5 -23.5t13 -73.5v-483q0 -41 -6 -58.5t-28 -29.5q-12 -6 -22.5 -7.5t-20 -3.5t-14.5 -8t-5 -20z" />
<glyph unicode="&#xef;" horiz-adv-x="452" d="M-60 1204q0 -43 29 -71.5t70 -28.5t70.5 28.5t29.5 71.5q0 41 -30 71t-70 30q-41 0 -70 -30t-29 -71zM49 27q0 -35 31 -35q23 0 59.5 7t89.5 7q49 0 92.5 -7t73.5 -7q37 0 37 33q0 14 -7 20t-18.5 9t-26.5 5t-32 11q-18 10 -25.5 28.5t-7.5 55.5v747q0 43 -20 43 q-8 0 -17.5 -9t-23.5 -23.5t-35.5 -33t-52.5 -36.5q-51 -29 -79 -43.5t-28 -36.5q0 -20 13.5 -21.5t30 -6.5t29.5 -23.5t13 -73.5v-483q0 -41 -6 -58.5t-28 -29.5q-12 -6 -22.5 -7.5t-20 -3.5t-14.5 -8t-5 -20zM321 1204q0 -43 29 -71.5t69 -28.5q41 0 71 28.5t30 71.5 q0 41 -30 71t-71 30t-69.5 -30t-28.5 -71z" />
<glyph unicode="&#xf0;" horiz-adv-x="952" d="M45 432q0 -102 29.5 -188t85 -149.5t132.5 -98.5t169 -35q207 0 326.5 129t119.5 356q0 104 -20.5 198.5t-64.5 182.5t-111.5 175.5t-159.5 179.5l213 135q14 10 23.5 16t9.5 21q0 25 -27 24q-6 0 -25 -12l-233 -143q-195 158 -231 157q-20 0 -21 -18q0 -16 52.5 -53 t136.5 -127l-244 -152q-14 -10 -23.5 -15t-9.5 -22q0 -27 29 -26q-2 0 22 14l258 160q59 -86 96 -152.5t52 -120.5q-84 31 -162 31q-90 0 -167 -34t-134 -95t-89 -147t-32 -191zM231 461q0 180 64.5 281.5t179.5 101.5q111 0 179.5 -117t68.5 -328q0 -180 -65.5 -280.5 t-178.5 -100.5q-111 0 -179.5 116t-68.5 327z" />
<glyph unicode="&#xf1;" horiz-adv-x="974" d="M53 27q0 -35 33 -35q23 0 59.5 7t90.5 7q51 0 92 -7t69 -7q37 0 37 31q0 18 -6 24t-17.5 8t-25.5 3t-33 12q-20 10 -25 29.5t-5 54.5v444q0 111 49 164t127 53q84 0 129 -62.5t45 -185.5v-413q0 -37 -4 -56.5t-29 -31.5q-12 -6 -23.5 -7.5t-20.5 -3.5t-14.5 -8t-5.5 -20 q0 -35 33 -35q20 0 58.5 7t91.5 7t94 -7t70 -7q37 0 36 33q0 16 -7 22t-19 8t-27.5 4t-30.5 11q-31 20 -30 84v440q0 170 -71 257t-198 87q-61 0 -117.5 -28.5t-99.5 -82.5l-22 -26q-10 -12 -17 -13q-6 0 -6 27v84q0 23 -6 33t-12 10q-18 0 -43 -32.5t-84 -67.5 q-51 -31 -78 -46.5t-27 -35.5t13.5 -21.5t30 -5.5t30 -22.5t13.5 -73.5v-483q0 -41 -6.5 -59.5t-28.5 -28.5q-12 -6 -23.5 -7.5t-20 -3.5t-13.5 -8t-5 -20zM260 1096h41q12 49 27.5 70.5t49.5 21.5q10 0 19.5 -2t19.5 -6l86 -27q35 -10 60 -10q125 0 155 205h-43 q-12 -45 -27.5 -65.5t-47.5 -20.5q-12 0 -43 10l-88 28q-23 8 -52 9q-129 0 -157 -213z" />
<glyph unicode="&#xf2;" horiz-adv-x="952" d="M49 451q0 -109 30 -199t84 -154.5t130 -100.5t168 -36q102 0 184 35t138.5 98.5t87 153.5t30.5 198q0 111 -29.5 201t-84 154.5t-132 100.5t-172.5 36q-98 0 -178 -35t-137 -98.5t-88 -153t-31 -200.5zM231 479q0 193 63.5 297.5t180.5 104.5q109 0 177.5 -122t68.5 -339 q0 -190 -64.5 -296t-177.5 -106q-111 0 -179.5 122t-68.5 339zM254 1331q0 -39 49 -76l264 -206h53l-231 301q-23 29 -39 44t-39 15t-40 -20.5t-17 -57.5z" />
<glyph unicode="&#xf3;" horiz-adv-x="952" d="M49 451q0 -109 30 -199t84 -154.5t130 -100.5t168 -36q102 0 184 35t138.5 98.5t87 153.5t30.5 198q0 111 -29.5 201t-84 154.5t-132 100.5t-172.5 36q-98 0 -178 -35t-137 -98.5t-88 -153t-31 -200.5zM231 479q0 193 63.5 297.5t180.5 104.5q109 0 177.5 -122t68.5 -339 q0 -190 -64.5 -296t-177.5 -106q-111 0 -179.5 122t-68.5 339zM338 1049h53l264 206q49 37 49 82q0 33 -17.5 52.5t-39.5 19.5q-23 0 -39 -15.5t-39 -43.5z" />
<glyph unicode="&#xf4;" horiz-adv-x="952" d="M49 451q0 -109 30 -199t84 -154.5t130 -100.5t168 -36q102 0 184 35t138.5 98.5t87 153.5t30.5 198q0 111 -29.5 201t-84 154.5t-132 100.5t-172.5 36q-98 0 -178 -35t-137 -98.5t-88 -153t-31 -200.5zM231 479q0 193 63.5 297.5t180.5 104.5q109 0 177.5 -122t68.5 -339 q0 -190 -64.5 -296t-177.5 -106q-111 0 -179.5 122t-68.5 339zM246 1049h47l186 211l186 -211h47l-186 350h-94z" />
<glyph unicode="&#xf5;" horiz-adv-x="952" d="M49 451q0 -109 30 -199t84 -154.5t130 -100.5t168 -36q102 0 184 35t138.5 98.5t87 153.5t30.5 198q0 111 -29.5 201t-84 154.5t-132 100.5t-172.5 36q-98 0 -178 -35t-137 -98.5t-88 -153t-31 -200.5zM231 479q0 193 63.5 297.5t180.5 104.5q109 0 177.5 -122t68.5 -339 q0 -190 -64.5 -296t-177.5 -106q-111 0 -179.5 122t-68.5 339zM250 1096h41q12 49 27.5 70.5t49.5 21.5q10 0 19.5 -2t19.5 -6l86 -27q35 -10 60 -10q125 0 155 205h-43q-12 -45 -27.5 -65.5t-47.5 -20.5q-12 0 -43 10l-88 28q-23 8 -52 9q-129 0 -157 -213z" />
<glyph unicode="&#xf6;" horiz-adv-x="952" d="M49 451q0 -109 30 -199t84 -154.5t130 -100.5t168 -36q102 0 184 35t138.5 98.5t87 153.5t30.5 198q0 111 -29.5 201t-84 154.5t-132 100.5t-172.5 36q-98 0 -178 -35t-137 -98.5t-88 -153t-31 -200.5zM190 1204q0 -43 29 -71.5t70 -28.5t70.5 28.5t29.5 71.5 q0 41 -30 71t-70 30q-41 0 -70 -30t-29 -71zM231 479q0 193 63.5 297.5t180.5 104.5q109 0 177.5 -122t68.5 -339q0 -190 -64.5 -296t-177.5 -106q-111 0 -179.5 122t-68.5 339zM571 1204q0 -43 29 -71.5t69 -28.5q41 0 71 28.5t30 71.5q0 41 -30 71t-71 30t-69.5 -30 t-28.5 -71z" />
<glyph unicode="&#xf7;" horiz-adv-x="1705" d="M254 553h1198v117h-1198v-117zM739 250q0 -47 34 -81t81 -34q49 0 82 34t33 81t-34 81t-81 34t-81 -33t-34 -82zM739 971q0 -47 33 -81t82 -34t82 34t33 81t-34 80.5t-81 33.5t-81 -33.5t-34 -80.5z" />
<glyph unicode="&#xf8;" horiz-adv-x="952" d="M49 446q0 -254 166 -401l-133 -254h86l113 213q70 -43 180 -43q205 0 321.5 131t116.5 371q0 250 -166 397l123 230h-88l-98 -191q-94 41 -185 41q-98 0 -179 -35t-138 -98.5t-88 -155.5t-31 -205zM231 473q0 197 65.5 303.5t176.5 106.5q92 0 145 -78l-333 -631 q-31 72 -42.5 144.5t-11.5 154.5zM332 98l334 633q29 -72 42 -149.5t13 -163.5q0 -188 -64.5 -294t-179.5 -106q-100 0 -145 80z" />
<glyph unicode="&#xf9;" horiz-adv-x="974" d="M18 879q0 -23 17.5 -27t39 -10t40 -24.5t18.5 -67.5v-476q0 -141 74 -224t196 -83q61 0 119 29t99 80l20 26q10 14 18 15q6 0 7 -29v-84q0 -43 24 -43q20 0 152 45q37 12 57.5 22.5t20.5 30.5t-14.5 21.5t-32 5.5t-32 21.5t-14.5 70.5v690q0 18 -5 26.5t-25 8.5 q-10 0 -27.5 -2t-46.5 -2q-53 0 -89 7t-56 7q-35 0 -35 -34q0 -16 7 -21.5t18.5 -8.5t26.5 -6t32 -14q18 -12 24 -28.5t6 -50.5v-445q0 -111 -50 -164t-130 -53t-126 62.5t-46 173.5v544q0 18 -5 26.5t-26 8.5q-10 0 -28.5 -3t-44.5 -3q-47 0 -83 7t-63 7q-37 0 -37 -32z M264 1331q0 -39 49 -76l264 -206h53l-231 301q-23 29 -39 44t-39 15t-40 -20.5t-17 -57.5z" />
<glyph unicode="&#xfa;" horiz-adv-x="974" d="M18 879q0 -23 17.5 -27t39 -10t40 -24.5t18.5 -67.5v-476q0 -141 74 -224t196 -83q61 0 119 29t99 80l20 26q10 14 18 15q6 0 7 -29v-84q0 -43 24 -43q20 0 152 45q37 12 57.5 22.5t20.5 30.5t-14.5 21.5t-32 5.5t-32 21.5t-14.5 70.5v690q0 18 -5 26.5t-25 8.5 q-10 0 -27.5 -2t-46.5 -2q-53 0 -89 7t-56 7q-35 0 -35 -34q0 -16 7 -21.5t18.5 -8.5t26.5 -6t32 -14q18 -12 24 -28.5t6 -50.5v-445q0 -111 -50 -164t-130 -53t-126 62.5t-46 173.5v544q0 18 -5 26.5t-26 8.5q-10 0 -28.5 -3t-44.5 -3q-47 0 -83 7t-63 7q-37 0 -37 -32z M348 1049h53l264 206q49 37 49 82q0 33 -17.5 52.5t-39.5 19.5q-23 0 -39 -15.5t-39 -43.5z" />
<glyph unicode="&#xfb;" horiz-adv-x="974" d="M18 879q0 -23 17.5 -27t39 -10t40 -24.5t18.5 -67.5v-476q0 -141 74 -224t196 -83q61 0 119 29t99 80l20 26q10 14 18 15q6 0 7 -29v-84q0 -43 24 -43q20 0 152 45q37 12 57.5 22.5t20.5 30.5t-14.5 21.5t-32 5.5t-32 21.5t-14.5 70.5v690q0 18 -5 26.5t-25 8.5 q-10 0 -27.5 -2t-46.5 -2q-53 0 -89 7t-56 7q-35 0 -35 -34q0 -16 7 -21.5t18.5 -8.5t26.5 -6t32 -14q18 -12 24 -28.5t6 -50.5v-445q0 -111 -50 -164t-130 -53t-126 62.5t-46 173.5v544q0 18 -5 26.5t-26 8.5q-10 0 -28.5 -3t-44.5 -3q-47 0 -83 7t-63 7q-37 0 -37 -32z M256 1049h47l186 211l186 -211h47l-186 350h-94z" />
<glyph unicode="&#xfc;" horiz-adv-x="974" d="M18 879q0 -23 17.5 -27t39 -10t40 -24.5t18.5 -67.5v-476q0 -141 74 -224t196 -83q61 0 119 29t99 80l20 26q10 14 18 15q6 0 7 -29v-84q0 -43 24 -43q20 0 152 45q37 12 57.5 22.5t20.5 30.5t-14.5 21.5t-32 5.5t-32 21.5t-14.5 70.5v690q0 18 -5 26.5t-25 8.5 q-10 0 -27.5 -2t-46.5 -2q-53 0 -89 7t-56 7q-35 0 -35 -34q0 -16 7 -21.5t18.5 -8.5t26.5 -6t32 -14q18 -12 24 -28.5t6 -50.5v-445q0 -111 -50 -164t-130 -53t-126 62.5t-46 173.5v544q0 18 -5 26.5t-26 8.5q-10 0 -28.5 -3t-44.5 -3q-47 0 -83 7t-63 7q-37 0 -37 -32z M200 1204q0 -43 29 -71.5t70 -28.5t70.5 28.5t29.5 71.5q0 41 -30 71t-70 30q-41 0 -70 -30t-29 -71zM581 1204q0 -43 29 -71.5t69 -28.5q41 0 71 28.5t30 71.5q0 41 -30 71t-71 30t-69.5 -30t-28.5 -71z" />
<glyph unicode="&#xfd;" horiz-adv-x="755" d="M-45 877q0 -14 7 -20.5t18.5 -10.5t25.5 -8t29 -15q27 -18 48 -65t46 -123l168 -514q16 -53 23.5 -88t7.5 -45q0 -27 -15 -64l-43 -119q-18 -51 -37.5 -60t-50.5 -9h-8q-57 0 -74.5 -25.5t-17.5 -87.5q0 -74 78 -74q37 0 58.5 6.5t34.5 21.5t21.5 39t18.5 60 q16 49 62 202t143 409l168 450q20 57 44.5 78t44 27t33 9t13.5 26q0 16 -2 20t-19 4q-16 0 -49 -3t-82 -3q-57 0 -92 3t-51 3q-14 0 -19.5 -3t-5.5 -19q0 -23 17.5 -30t39 -12.5t40 -15.5t18.5 -39q0 -8 -6 -42.5t-21 -75.5l-125 -351q-10 -25 -16 -24q-8 0 -16 24l-115 365 q-16 47 -20.5 80t-4.5 45q0 18 15.5 24.5t34 11.5t34 12t15.5 28q0 23 -25 22q-8 0 -49 -4t-119 -4t-125 4t-63 4q-18 0 -26.5 -4t-8.5 -20zM240 1049h53l264 206q49 37 49 82q0 33 -17.5 52.5t-39.5 19.5q-23 0 -39 -15.5t-39 -43.5z" />
<glyph unicode="&#xfe;" horiz-adv-x="978" d="M27 -418q0 -33 36 -33q29 0 70 6.5t94 6.5t99.5 -6.5t87.5 -6.5q43 0 43 29q0 18 -8.5 24.5t-21.5 8.5t-32.5 4t-40.5 12q-25 10 -32 28.5t-7 55.5v291l13 6q82 -47 178 -47q92 0 168 38t131 106.5t86 162.5t31 209q0 104 -27 190.5t-72 145.5t-106.5 92t-128.5 33 q-66 0 -121 -27.5t-109 -89.5l-20 -24q-10 -10 -16 -11q-6 0 -7 15v442q0 43 3.5 77t3.5 62q0 20 -4.5 29.5t-20.5 9.5q-10 0 -42 -23.5t-110 -51.5q-35 -12 -61.5 -19.5t-26.5 -30.5q0 -12 13.5 -18t31 -12t30.5 -18.5t13 -39.5q0 -4 1 -11t1 -19v-1467q0 -41 -9 -59.5 t-36 -28.5q-31 -12 -53 -12q-23 0 -22 -29zM317 215v381q0 203 164 203q117 0 194 -100.5t77 -282.5q0 -86 -19.5 -159t-55.5 -125t-85 -80.5t-109 -28.5q-78 0 -122 47t-44 145z" />
<glyph unicode="&#xff;" horiz-adv-x="755" d="M-45 877q0 -14 7 -20.5t18.5 -10.5t25.5 -8t29 -15q27 -18 48 -65t46 -123l168 -514q16 -53 23.5 -88t7.5 -45q0 -27 -15 -64l-43 -119q-18 -51 -37.5 -60t-50.5 -9h-8q-57 0 -74.5 -25.5t-17.5 -87.5q0 -74 78 -74q37 0 58.5 6.5t34.5 21.5t21.5 39t18.5 60 q16 49 62 202t143 409l168 450q20 57 44.5 78t44 27t33 9t13.5 26q0 16 -2 20t-19 4q-16 0 -49 -3t-82 -3q-57 0 -92 3t-51 3q-14 0 -19.5 -3t-5.5 -19q0 -23 17.5 -30t39 -12.5t40 -15.5t18.5 -39q0 -8 -6 -42.5t-21 -75.5l-125 -351q-10 -25 -16 -24q-8 0 -16 24l-115 365 q-16 47 -20.5 80t-4.5 45q0 18 15.5 24.5t34 11.5t34 12t15.5 28q0 23 -25 22q-8 0 -49 -4t-119 -4t-125 4t-63 4q-18 0 -26.5 -4t-8.5 -20zM92 1204q0 -43 29 -71.5t70 -28.5t70.5 28.5t29.5 71.5q0 41 -30 71t-70 30q-41 0 -70 -30t-29 -71zM473 1204q0 -43 29 -71.5 t69 -28.5q41 0 71 28.5t30 71.5q0 41 -30 71t-71 30t-69.5 -30t-28.5 -71z" />
<glyph unicode="&#x152;" horiz-adv-x="1611" d="M57 645q0 -143 45 -265t124 -212t183.5 -141.5t221.5 -51.5q8 0 47 5.5t109.5 10.5t176 10t248.5 5q92 0 159 -6t110 -6q41 0 49 11t12 61l21 198q2 16 2 27v10q0 4 -6.5 11t-10.5 7q-23 0 -40 -41.5t-52 -101.5q-43 -74 -96 -94.5t-141 -20.5q-45 0 -72 6.5t-40 20.5 t-17.5 40t-4.5 65v421q0 23 5.5 30t25.5 7h86q59 0 96 -11t62 -58q14 -29 21.5 -54.5t12.5 -45t11 -31t18 -11.5q23 0 23 37q0 14 -3 60.5t-3 130.5q0 76 6 118.5t6 59.5q0 37 -25 37q-14 0 -19 -12.5t-9 -32t-11.5 -41t-25.5 -39.5q-14 -14 -58 -25.5t-102 -11.5h-86 q-23 0 -27 5t-4 19v355q0 35 2.5 59.5t11.5 38.5t30.5 20.5t58.5 6.5q154 0 231 -78q27 -27 39 -54.5t20.5 -49t14.5 -36t20 -14.5q20 0 21 51v177v16q0 29 -7 41t-46 12q-23 0 -119 -4t-270 -4q-125 0 -233.5 16.5t-203.5 16.5q-131 0 -240.5 -51.5t-189.5 -142.5 t-124 -213t-44 -263zM266 672q0 137 28 244.5t77 182.5t117.5 113.5t152.5 38.5q111 0 183.5 -65t72.5 -176v-693q0 -281 -229 -280q-186 0 -294 167t-108 468z" />
<glyph unicode="&#x153;" horiz-adv-x="1435" d="M49 451q0 -109 28.5 -199t80 -154.5t123 -100.5t159.5 -36q109 0 187 40t141 126h14q49 -84 119 -125t156 -41q66 0 123 25.5t100 60.5t67.5 72t24.5 61q0 23 -16 23q-4 0 -18.5 -18.5t-41 -41t-66.5 -41t-95 -18.5q-61 0 -112.5 28.5t-87.5 83t-56.5 130t-20.5 170.5v49 q0 18 3 25.5t20 7.5h432q63 0 63 40q0 68 -21.5 126.5t-63.5 101.5t-103.5 67.5t-138.5 24.5q-72 0 -127.5 -27.5t-108.5 -85.5l-25 -26q-12 -14 -20 -15q-2 0 -18 17l-21 22q-102 115 -266 115q-94 0 -170 -35t-130 -98.5t-84 -153.5t-30 -200zM223 477q0 193 62 299.5 t166 106.5q102 0 168.5 -122t66.5 -341q0 -193 -61.5 -298.5t-165.5 -105.5q-102 0 -169 122t-67 339zM874 659v5l7 32q16 84 65 139.5t119 55.5q59 0 100 -43t41 -103q0 -61 -45 -82.5t-137 -21.5h-127q-23 0 -23 18z" />
<glyph unicode="&#x178;" horiz-adv-x="942" d="M-72 1260q0 -14 9.5 -18.5t22.5 -5.5t28.5 -3t29.5 -12q37 -29 111 -162l260 -475q6 -10 10 -25.5t4 -23.5v-342q0 -59 -8 -85t-47 -38q-16 -6 -33 -7q-16 0 -28.5 -2t-20.5 -8t-8 -20q0 -33 43 -33q18 0 66.5 6t128.5 6t128 -6t66 -6q43 0 43 29q0 16 -6 22t-17.5 9 t-25.5 3t-31 5q-45 10 -55 33.5t-10 80.5v389q0 10 4 24.5t8 25.5l244 456q31 59 55.5 95t58.5 49q14 6 28.5 7t25 3t17.5 8t7 23q0 25 -30 24q-6 0 -39 -4t-101 -4q-53 0 -91 6t-58 6q-33 0 -33 -24q0 -23 17.5 -28t39 -8t40 -11.5t18.5 -34.5q0 -8 -6.5 -28.5t-22.5 -51.5 l-195 -391q-10 -18 -12 -19q-12 0 -18 15l-228 424q-14 27 -14 49q0 23 15.5 30t35 11t34.5 10t15 27q0 27 -24 26q-8 0 -47 -4t-113 -4q-100 0 -162.5 6t-87.5 6q-18 0 -29.5 -10t-11.5 -20zM184 1593q0 -43 29 -71.5t70 -28.5t70.5 28.5t29.5 71.5q0 41 -30 71t-70 30 q-41 0 -70 -30t-29 -71zM565 1593q0 -43 29 -71.5t69 -28.5q41 0 71 28.5t30 71.5q0 41 -30 71t-71 30t-69.5 -30t-28.5 -71z" />
<glyph unicode="&#x2c6;" d="M279 1049h47l186 211l186 -211h47l-186 350h-94z" />
<glyph unicode="&#x2dc;" d="M283 1096h41q12 49 27.5 70.5t49.5 21.5q10 0 19.5 -2t19.5 -6l86 -27q35 -10 60 -10q125 0 155 205h-43q-12 -45 -27.5 -65.5t-47.5 -20.5q-12 0 -43 10l-88 28q-23 8 -52 9q-129 0 -157 -213z" />
<glyph unicode="&#x2000;" horiz-adv-x="938" />
<glyph unicode="&#x2001;" horiz-adv-x="1876" />
<glyph unicode="&#x2002;" horiz-adv-x="938" />
<glyph unicode="&#x2003;" horiz-adv-x="1876" />
<glyph unicode="&#x2004;" horiz-adv-x="625" />
<glyph unicode="&#x2005;" horiz-adv-x="469" />
<glyph unicode="&#x2006;" horiz-adv-x="312" />
<glyph unicode="&#x2007;" horiz-adv-x="312" />
<glyph unicode="&#x2008;" horiz-adv-x="234" />
<glyph unicode="&#x2009;" horiz-adv-x="375" />
<glyph unicode="&#x200a;" horiz-adv-x="104" />
<glyph unicode="&#x2010;" horiz-adv-x="454" d="M31 367q0 -10 14 -11h313q6 0 14.5 7.5t12.5 19.5l37 137q2 8 2 15q0 10 -14 10h-314q-6 0 -14 -7.5t-12 -19.5l-35 -137q-4 -16 -4 -14z" />
<glyph unicode="&#x2011;" horiz-adv-x="454" d="M31 367q0 -10 14 -11h313q6 0 14.5 7.5t12.5 19.5l37 137q2 8 2 15q0 10 -14 10h-314q-6 0 -14 -7.5t-12 -19.5l-35 -137q-4 -16 -4 -14z" />
<glyph unicode="&#x2012;" horiz-adv-x="454" d="M31 367q0 -10 14 -11h313q6 0 14.5 7.5t12.5 19.5l37 137q2 8 2 15q0 10 -14 10h-314q-6 0 -14 -7.5t-12 -19.5l-35 -137q-4 -16 -4 -14z" />
<glyph unicode="&#x2013;" d="M-20 391q0 -12 16 -12h983q23 0 33 27l28 90q4 12 4 14q0 12 -16 12h-983q-23 1 -33 -26l-30 -93q-2 -6 -2 -12z" />
<glyph unicode="&#x2014;" horiz-adv-x="1331" d="M-41 391q0 -12 16 -12h1334q10 0 19 8t13 19l29 90q4 12 4 14q0 12 -18 12h-1331q-10 0 -19.5 -8t-13.5 -18l-31 -93q-2 -6 -2 -12z" />
<glyph unicode="&#x2018;" horiz-adv-x="448" d="M123 1018q0 -86 31.5 -131t81.5 -45q39 0 64.5 28.5t25.5 71.5q0 86 -70 100q-25 6 -43 13.5t-18 42.5q0 37 17 69.5t36.5 59t37 47t17.5 33.5q0 20 -18 20q-14 0 -42 -26.5t-54.5 -69.5t-46 -98.5t-19.5 -114.5z" />
<glyph unicode="&#x2019;" horiz-adv-x="448" d="M125 1225q0 -84 72 -99q25 -4 43 -13t18 -40q0 -39 -17.5 -72.5t-38 -60.5t-38 -47.5t-17.5 -32.5q0 -20 21 -20q14 0 42 26.5t54.5 69.5t46 98.5t19.5 114.5q0 86 -32 131t-87 45q-35 0 -60.5 -28.5t-25.5 -71.5z" />
<glyph unicode="&#x201a;" horiz-adv-x="448" d="M115 86q0 -84 71 -98q23 -4 42.5 -11.5t19.5 -39.5q0 -39 -17.5 -73t-38 -60.5t-38 -47t-17.5 -32.5q0 -20 21 -21q14 0 41.5 26.5t54.5 69.5t46 98.5t19 112.5q0 86 -30.5 132t-85.5 46q-35 0 -61.5 -29.5t-26.5 -72.5z" />
<glyph unicode="&#x201c;" horiz-adv-x="675" d="M80 1018q0 -86 31.5 -131t81.5 -45q41 0 66.5 29.5t25.5 72.5q0 84 -72 98q-25 6 -43 13.5t-18 42.5q0 37 17 69.5t37.5 59t38 47t17.5 33.5q0 20 -20 20q-14 0 -42 -26.5t-54.5 -69.5t-46 -99.5t-19.5 -113.5zM385 1018q0 -86 32 -131t81 -45q41 0 66.5 29.5t25.5 72.5 q0 84 -72 98q-25 6 -43 13.5t-18 42.5q0 37 17.5 69.5t37.5 59t37.5 47t17.5 33.5q0 20 -20 20q-14 0 -42 -26.5t-54.5 -69.5t-46 -99.5t-19.5 -113.5z" />
<glyph unicode="&#x201d;" horiz-adv-x="675" d="M84 1225q0 -84 70 -99q25 -4 44 -13t19 -40q0 -39 -17.5 -72.5t-38 -60.5t-38 -47.5t-17.5 -32.5q0 -20 19 -20q14 0 42 26.5t54.5 69.5t47 98.5t20.5 114.5q0 86 -32 131t-87 45q-35 0 -60.5 -28.5t-25.5 -71.5zM389 1225q0 -84 72 -99q25 -4 43 -13t18 -40 q0 -39 -17.5 -72.5t-38 -60.5t-37.5 -47.5t-17 -32.5q0 -20 18 -20q14 0 42 26.5t54.5 70.5t47 99.5t20.5 112.5q0 86 -32 131t-87 45q-35 0 -60.5 -28.5t-25.5 -71.5z" />
<glyph unicode="&#x201e;" horiz-adv-x="675" d="M76 86q0 -84 71 -98q23 -4 42.5 -11.5t19.5 -39.5q0 -39 -17.5 -73t-38 -60.5t-38 -47t-17.5 -32.5q0 -20 21 -21q14 0 41.5 26.5t54.5 69.5t46.5 98.5t19.5 112.5q0 86 -32 132t-87 46q-35 0 -60.5 -29.5t-25.5 -72.5zM381 86q0 -84 72 -98q23 -4 42 -11.5t19 -39.5 q0 -39 -17.5 -73t-38 -60.5t-38 -47t-17.5 -32.5q0 -20 21 -21q14 0 42 26.5t54.5 69.5t46 98.5t19.5 112.5q0 86 -32 132t-87 46q-35 0 -60.5 -29.5t-25.5 -72.5z" />
<glyph unicode="&#x2022;" horiz-adv-x="1208" d="M307 762q0 -61 22.5 -115.5t62.5 -94.5t94.5 -63.5t115.5 -23.5t115.5 23.5t94.5 64.5t63.5 94t23.5 115q0 61 -23.5 114.5t-63.5 93.5t-93 63.5t-115 23.5q-61 0 -115.5 -23.5t-94.5 -63.5t-63.5 -93.5t-23.5 -114.5z" />
<glyph unicode="&#x2026;" horiz-adv-x="2048" d="M250 88q0 -47 27.5 -77.5t62.5 -30.5t62.5 30.5t27.5 77.5t-27.5 78t-62.5 31t-62.5 -31t-27.5 -78zM932 88q0 -47 27.5 -77.5t62.5 -30.5t62.5 30.5t27.5 77.5t-27.5 78t-62.5 31t-62.5 -31t-27.5 -78zM1616 88q0 -47 27.5 -77.5t62.5 -30.5t62.5 30.5t27.5 77.5 t-27.5 78t-62.5 31t-62.5 -31t-27.5 -78z" />
<glyph unicode="&#x202f;" horiz-adv-x="375" />
<glyph unicode="&#x2039;" horiz-adv-x="403" d="M49 451q0 -12 15.5 -28.5t43 -40.5t65.5 -57.5t81 -80.5q39 -43 56.5 -73t39.5 -30q12 0 12 17q0 18 -10 40.5t-26 55.5l-107 197l107 196q16 31 26 54.5t10 41.5q0 16 -12 17q-23 0 -45 -36t-78 -95q-78 -80 -128 -118t-50 -60z" />
<glyph unicode="&#x203a;" horiz-adv-x="403" d="M41 162q0 -20 12 -21q23 0 45.5 36t77.5 95q78 80 128 118t50 61q0 12 -13 25t-36.5 33.5t-57.5 50.5t-73 71q-55 57 -76.5 93t-44.5 36q-12 0 -12 -21q0 -25 37 -92l106 -196l-106 -197q-37 -66 -37 -92z" />
<glyph unicode="&#x205f;" horiz-adv-x="469" />
<glyph unicode="&#x2122;" horiz-adv-x="1683" d="M244 1260h26q8 78 40 114.5t98 36.5h20v-426q0 -49 -45 -53l-31 -2v-27h248v27l-31 2q-45 4 -45 53v426h21q66 0 97.5 -37t39.5 -114h25l-11 178h-440zM788 903h197v27l-31 2q-20 2 -33.5 15.5t-13.5 37.5v395l174 -479h15l178 479v-395q0 -49 -45 -53l-31 -2v-27h236v27 l-29 2q-47 4 -47 53v373q0 49 47 53l29 2v25h-174l-148 -400l-141 400h-183v-27l31 -2q20 -2 33.5 -15.5t13.5 -37.5v-371q0 -49 -45 -53l-33 -2v-27z" />
<glyph unicode="&#xe000;" horiz-adv-x="901" d="M0 0v901h901v-901h-901z" />
<glyph unicode="&#xfb01;" horiz-adv-x="927" d="M18 27q0 -33 39 -33q29 0 77 7t110 7q53 0 89 -7t56 -7q35 0 35 29q0 16 -5 22t-15.5 9t-24.5 7.5t-33 14.5q-18 12 -23.5 30.5t-5.5 49.5v637q0 27 25 26h141q74 0 106 -25.5t32 -107.5v-532q0 -41 -5.5 -59.5t-27.5 -28.5q-12 -6 -23.5 -7.5t-19.5 -3.5t-13.5 -8 t-5.5 -20q0 -35 31 -35q23 0 59.5 7t90.5 7q51 0 93 -7t70 -7q37 0 37 31q0 18 -6 24t-17.5 8t-26.5 3t-34 12q-20 10 -25 29.5t-5 54.5v729q0 57 -23 57q-6 0 -15.5 -6t-28.5 -13.5t-53 -13.5t-91 -6h-238q-27 0 -27 27v104q0 162 34 247t126 85q43 0 72 -24.5t50.5 -54.5 t38.5 -54.5t36 -24.5q10 0 24.5 13.5t26.5 33t20.5 41t8.5 37.5q0 35 -63.5 63.5t-155.5 28.5q-74 0 -139.5 -24.5t-116 -72.5t-83 -118.5t-38.5 -163.5l-8 -104q-4 -25 -23 -35l-37 -18q-39 -20 -39 -39q0 -10 9.5 -19.5t21.5 -9.5h37q27 0 26 -26v-637q0 -35 -8 -53.5 t-37 -32.5q-37 -16 -59.5 -15.5t-22.5 -27.5z" />
<glyph unicode="&#xfb02;" horiz-adv-x="927" d="M18 27q0 -33 39 -33q29 0 77 7t110 7q53 0 89 -7t56 -7q35 0 35 29q0 16 -5 22t-15.5 9t-24.5 7.5t-33 14.5q-18 12 -23.5 30.5t-5.5 49.5v637q0 27 25 26h154q20 0 23 9.5t3 29.5v10q0 16 -4 24.5t-22 8.5h-152q-27 0 -27 27v104q0 164 34 248t128 84q141 0 142 -211 v-999q0 -41 -5.5 -59.5t-27.5 -28.5q-12 -6 -23.5 -7.5t-19.5 -3.5t-13.5 -8t-5.5 -20q0 -35 31 -35q23 0 59.5 7t90.5 7q51 0 93 -7t70 -7q37 0 37 31q0 18 -6 24t-17.5 8t-26.5 3t-34 12q-20 10 -25 29.5t-5 54.5v1007q0 78 2 135.5t2 92.5q0 33 -25 32q-6 0 -23.5 -10.5 t-54.5 -24.5q-80 37 -159 37q-74 0 -139.5 -24.5t-116 -72.5t-83 -118.5t-38.5 -163.5l-8 -104q-4 -25 -23 -35l-37 -18q-39 -20 -39 -39q0 -10 9.5 -19.5t21.5 -9.5h37q27 0 26 -26v-637q0 -35 -8 -53.5t-37 -32.5q-37 -16 -59.5 -15.5t-22.5 -27.5z" />
</font>
</defs>
</svg>
